<svg width="61" height="59" viewBox="0 0 61 59" fill="none" xmlns="http://www.w3.org/2000/svg">
<path d="M60.3207 28.7771C60.1092 27.5785 59.2833 26.5067 58.266 25.8635C56.997 25.0742 55.4862 24.8306 54.0056 24.6942C49.2114 24.2362 44.3366 24.3531 39.6834 25.386C43.7323 22.9305 47.2574 19.6856 50.3193 16.0802C51.2661 14.9693 52.1524 13.761 52.4747 12.3286C52.7265 11.1885 52.5251 9.85351 51.7999 8.86933C51.7126 8.7524 51.6186 8.64521 51.5179 8.54776C51.4171 8.45032 51.3064 8.35937 51.1855 8.27492C50.1682 7.57333 48.7884 7.37844 47.61 7.63179C46.1294 7.93387 44.8805 8.80112 43.7423 9.70735C40.0157 12.6696 36.6517 16.0802 34.1136 19.9974C35.1913 15.4955 35.3021 10.7792 34.8388 6.14091C34.6877 4.70848 34.446 3.24682 33.6201 2.01903C32.9553 1.03485 31.8474 0.235813 30.6086 0.0311809C30.4676 0.00519593 30.3232 -0.00454725 30.1755 0.001949C30.0345 -0.00454725 29.8901 0.00519593 29.7424 0.0311809C28.5136 0.235813 27.3956 1.03485 26.7409 2.01903C25.915 3.24682 25.6632 4.70848 25.5222 6.14091C25.0489 10.7792 25.1697 15.4955 26.2373 19.9974C23.7093 16.0802 20.3453 12.6696 16.6187 9.70735C15.4705 8.80112 14.2316 7.93387 12.751 7.63179C11.5626 7.38818 10.1928 7.57333 9.16545 8.27492C9.0513 8.35937 8.94386 8.45032 8.84314 8.54776C8.73571 8.64521 8.64171 8.7524 8.56113 8.86933C7.83595 9.85351 7.63451 11.1885 7.88631 12.3286C8.19854 13.761 9.09494 14.9693 10.0316 16.0802C13.0935 19.6856 16.6187 22.9305 20.6776 25.386C16.0143 24.3531 11.1496 24.2362 6.34531 24.6942C4.87481 24.8306 3.36402 25.0742 2.09496 25.8635C1.0777 26.5067 0.241726 27.5785 0.0402878 28.7771C0.0134294 28.9135 0 29.0532 0 29.1961C0 29.3325 0.0134294 29.4722 0.0402878 29.6151C0.241726 30.8039 1.0777 31.8855 2.09496 32.5189C3.36402 33.318 4.87481 33.5616 6.34531 33.698C11.1496 34.156 16.0143 34.039 20.6776 33.0061C16.6187 35.452 13.0935 38.7066 10.0316 42.312C9.09494 43.4229 8.19854 44.6214 7.88631 46.0539C7.63451 47.2037 7.83595 48.5289 8.56113 49.5229C8.64171 49.6333 8.73571 49.7405 8.84314 49.8444C8.94386 49.9419 9.0513 50.0296 9.16545 50.1075C10.1928 50.8091 11.5626 51.004 12.751 50.7604C14.2316 50.4583 15.4705 49.5911 16.6187 48.6848C20.3453 45.7226 23.7093 42.312 26.2373 38.385C25.1697 42.8967 25.0489 47.613 25.5222 52.2513C25.6632 53.674 25.915 55.1454 26.7409 56.3732C27.3956 57.3476 28.5136 58.1564 29.7424 58.361C29.8901 58.3805 30.0345 58.3902 30.1755 58.3902C30.3232 58.3902 30.4676 58.3805 30.6086 58.361C31.8474 58.1564 32.9553 57.3476 33.6201 56.3732C34.446 55.1454 34.6877 53.674 34.8388 52.2513C35.3021 47.613 35.1913 42.8967 34.1136 38.385C36.6517 42.312 40.0157 45.7226 43.7423 48.6848C44.8805 49.5911 46.1294 50.4583 47.61 50.7604C48.7984 51.004 50.1682 50.8091 51.1855 50.1075C51.3064 50.0296 51.4171 49.9419 51.5179 49.8444C51.6186 49.7405 51.7126 49.6333 51.7999 49.5229C52.5251 48.5289 52.7265 47.2037 52.4747 46.0539C52.1524 44.6214 51.2661 43.4229 50.3193 42.312C47.2574 38.7066 43.7323 35.452 39.6834 33.0061C44.3366 34.039 49.2114 34.156 54.0056 33.698C55.4862 33.5616 56.997 33.318 58.266 32.5189C59.2833 31.8855 60.1092 30.8039 60.3207 29.6151C60.3476 29.4722 60.361 29.3325 60.361 29.1961C60.361 29.0532 60.3476 28.9135 60.3207 28.7771Z" fill="#BCD1DE"/>
<path d="M37.9702 29.1964C37.9702 33.3573 34.4854 36.7386 30.1746 36.7386C25.8739 36.7386 22.3789 33.3573 22.3789 29.1964C22.3789 25.0259 25.8739 21.6543 30.1746 21.6543C34.4854 21.6543 37.9702 25.0259 37.9702 29.1964Z" fill="#FBEFE1"/>
</svg>
