<svg width="54" height="48" viewBox="0 0 54 48" fill="none" xmlns="http://www.w3.org/2000/svg">
<path d="M26.9834 47.011C21.4756 47.011 15.9957 45.1741 11.5363 41.8535C6.93718 38.4199 3.65207 33.6581 2.03048 28.1049C0.632557 23.2866 0.632556 18.1856 2.00252 13.3955C3.3585 8.71843 5.94466 4.50765 9.49538 1.2436C9.69109 1.07404 9.91475 0.989258 10.1524 0.989258C10.3481 0.989258 10.5298 1.03165 10.6976 1.14469C11.5224 1.69576 12.473 1.97837 13.4515 1.97837C13.5726 1.97837 13.6938 1.97365 13.815 1.96423C13.8429 1.96423 13.8662 1.96423 13.8848 1.96423C14.2902 1.96423 14.6677 2.21858 14.8075 2.61422C15.5344 4.60657 17.4216 5.9348 19.5045 5.9348C19.9798 5.9348 20.4551 5.86415 20.9304 5.73698C21.0702 5.69459 21.2239 5.62393 21.3637 5.56741C21.4849 5.52973 21.6014 5.51089 21.7132 5.51089C21.9369 5.51089 22.1466 5.58155 22.3283 5.72285C23.852 6.95217 25.7532 7.63041 27.6823 7.63041C28.4791 7.63041 29.2899 7.51737 30.0728 7.27716C32.4912 6.57065 34.4622 4.81852 35.4688 2.48705C35.5946 2.20445 35.8322 2.00663 36.1118 1.92185C36.1957 1.90301 36.2842 1.89358 36.3774 1.89358C36.5731 1.89358 36.7688 1.9501 36.9366 2.07727C37.8033 2.699 38.8238 3.03812 39.8722 3.03812C40.3475 3.03812 40.8228 2.96747 41.2841 2.82617C42.0949 2.58596 42.8358 2.14793 43.4229 1.54033C43.6186 1.35664 43.8703 1.25773 44.1219 1.25773C44.3595 1.25773 44.5972 1.34251 44.7929 1.5262C48.1759 4.71961 50.6502 8.78908 51.9642 13.3107C53.9073 20.0508 53.1525 27.1582 49.8254 33.319C46.4844 39.4797 40.9766 43.9589 34.3085 45.9372C31.918 46.6437 29.4577 47.011 26.9834 47.011Z" fill="#DA8C74"/>
<path fill-rule="evenodd" clip-rule="evenodd" d="M11.2288 0.324991C11.8998 0.763025 12.6687 0.989108 13.4515 0.989108C13.5447 0.989108 13.6426 0.989108 13.7451 0.989108C13.7917 0.979688 13.8383 0.974977 13.8849 0.974977C14.7096 0.974977 15.4366 1.48366 15.7301 2.27495C16.3033 3.87165 17.827 4.94554 19.5045 4.94554C19.8959 4.94554 20.2734 4.88902 20.6508 4.77598C20.7487 4.74772 20.8885 4.70533 21.0143 4.64881C21.2379 4.56403 21.4756 4.52164 21.7132 4.52164C22.1606 4.52164 22.5939 4.66294 22.9434 4.94554C24.2854 6.04769 25.9629 6.64115 27.6824 6.64115C28.3953 6.64115 29.1082 6.54224 29.7932 6.33029C31.932 5.69443 33.6794 4.15425 34.5741 2.09126C34.8118 1.54018 35.287 1.13041 35.8602 0.974977C36.0279 0.927877 36.2004 0.904327 36.3774 0.904327C36.7688 0.904327 37.1742 1.0315 37.5097 1.27171C38.2087 1.78039 39.0195 2.04887 39.8722 2.04887C40.2497 2.04887 40.6411 1.99234 41.0045 1.8793C41.6616 1.68148 42.2627 1.32823 42.724 0.847807C43.1154 0.466294 43.6187 0.268471 44.1219 0.268471C44.5972 0.268471 45.0725 0.438034 45.4499 0.791287C48.9587 4.11186 51.5449 8.3509 52.9009 13.028C54.9278 20.0224 54.131 27.3983 50.6782 33.7992C47.2253 40.186 41.5078 44.8349 34.5881 46.8837C32.0998 47.6185 29.5416 48 26.9834 48C21.2659 48 15.5764 46.0924 10.9492 42.6447C6.18233 39.0839 2.7714 34.1525 1.0939 28.3733C-0.359941 23.3712 -0.359938 18.1007 1.06594 13.1127C2.46386 8.26612 5.14787 3.89991 8.83838 0.508685C9.21582 0.169562 9.67714 0 10.1524 0C10.5299 0 10.9073 0.0989091 11.2288 0.324991ZM2.96712 27.8222C6.16835 38.8578 16.1495 46.0218 26.9834 46.0218C29.3179 46.0218 31.6804 45.6827 34.0429 44.9903C47.3092 41.0621 54.9139 27.0026 51.0137 13.5932C49.7136 9.08566 47.2812 5.22814 44.1219 2.24669C43.4369 2.93906 42.5562 3.47601 41.5637 3.77274C40.9906 3.9423 40.4314 4.02708 39.8722 4.02708C38.6001 4.02708 37.3839 3.61731 36.3774 2.88254C35.2871 5.38357 33.1482 7.40418 30.3524 8.23786C29.4577 8.4922 28.5631 8.61937 27.6824 8.61937C25.4876 8.61937 23.3907 7.84221 21.7132 6.49985C21.5455 6.55637 21.3777 6.62702 21.196 6.68354C20.6368 6.8531 20.0637 6.92376 19.5045 6.92376C17.0442 6.92376 14.7656 5.36944 13.8849 2.95319C13.7358 2.96261 13.5913 2.96732 13.4515 2.96732C12.2633 2.96732 11.117 2.61407 10.1524 1.97822C3.30262 8.28025 0.185252 18.2278 2.96712 27.8222Z" fill="#DA8C74"/>
<path d="M36.572 29.8284C36.7118 27.9209 38.3473 26.4796 40.2345 26.6209C42.1217 26.7481 43.5476 28.4154 43.4078 30.323C43.268 32.2305 41.6324 33.6577 39.7452 33.5305C37.8581 33.3892 36.4322 31.736 36.572 29.8284Z" fill="#FDAD95"/>
<path d="M8.33376 16.3909C8.45958 14.4834 10.1091 13.0421 11.9963 13.1834C13.8835 13.3247 15.2954 14.9779 15.1696 16.8855C15.0298 18.7931 13.3803 20.2343 11.4931 20.093C9.60587 19.9517 8.19397 18.2985 8.33376 16.3909Z" fill="#FDAD95"/>
<path d="M23.25 22.1988C23.3898 20.2912 25.0393 18.8641 26.9265 18.9913C28.8137 19.1326 30.2256 20.7999 30.0858 22.7075C29.96 24.6151 28.3105 26.0422 26.4233 25.9009C24.5361 25.7737 23.1242 24.1064 23.25 22.1988Z" fill="#FDAD95"/>
<path d="M10.5151 29.4614C10.5989 28.2321 11.6753 27.2995 12.8915 27.3843C14.1217 27.4832 15.0303 28.5571 14.9465 29.7864C14.8626 31.0298 13.8002 31.9624 12.57 31.8635C11.3538 31.7787 10.4312 30.7048 10.5151 29.4614Z" fill="#FDAD95"/>
<path d="M29.304 14.1302C29.3879 12.8868 30.4503 11.9542 31.6805 12.0531C32.8966 12.1379 33.8193 13.2118 33.7354 14.4552C33.6375 15.6845 32.5751 16.6171 31.3589 16.5323C30.1288 16.4334 29.2061 15.3595 29.304 14.1302Z" fill="#FDAD95"/>
<path d="M23.5306 37.5433C23.6144 36.2999 24.6769 35.3673 25.907 35.4662C27.1232 35.551 28.0458 36.6248 27.962 37.8683C27.8641 39.0976 26.8017 40.0302 25.5855 39.9454C24.3553 39.8465 23.4327 38.7726 23.5306 37.5433Z" fill="#FDAD95"/>
<path d="M19.0834 13.3813C19.1813 12.152 20.2437 11.2194 21.4599 11.3042C22.6901 11.389 23.6127 12.4628 23.5148 13.7063C23.431 14.9356 22.3685 15.8682 21.1384 15.7834C19.9222 15.6986 18.9995 14.6248 19.0834 13.3813Z" fill="#FDAD95"/>
<path d="M28.8001 30.3657C28.884 29.1364 29.9464 28.2038 31.1626 28.2886C32.3927 28.3875 33.3154 29.4614 33.2315 30.6907C33.1336 31.9341 32.0712 32.8526 30.855 32.7678C29.6249 32.683 28.7022 31.6091 28.8001 30.3657Z" fill="#FDAD95"/>
<path d="M37.145 13.6922C37.2709 11.9259 38.7946 10.6118 40.542 10.739C42.2754 10.8661 43.5895 12.3922 43.4637 14.1585C43.3378 15.9106 41.8281 17.2388 40.0807 17.1117C38.3333 16.9845 37.0192 15.4584 37.145 13.6922Z" fill="#FDAD95"/>
<g style="mix-blend-mode:multiply" opacity="0.2">
<path d="M34.9102 44.7081C42.403 39.1691 47.2258 30.4225 47.2258 20.588C47.2258 14.3142 45.2687 8.49258 41.9137 3.66008C42.7665 3.34922 43.5074 2.85467 44.1225 2.24707C47.2818 5.22852 49.7141 9.08604 51.0142 13.5936C54.8166 26.7063 47.6312 40.4408 34.9102 44.7081Z" fill="#DA8C74"/>
</g>
</svg>
