<svg width="61" height="59" viewBox="0 0 61 59" fill="none" xmlns="http://www.w3.org/2000/svg">
<path d="M60.3207 29.1433C60.1092 27.9447 59.2833 26.8729 58.266 26.2297C56.997 25.4404 55.4862 25.1968 54.0056 25.0604C49.2114 24.6024 44.3366 24.7194 39.6834 25.7523C43.7323 23.2967 47.2574 20.0518 50.3193 16.4464C51.2661 15.3355 52.1524 14.1272 52.4747 12.6948C52.7265 11.5547 52.5251 10.2197 51.7999 9.23554C51.7126 9.11861 51.6186 9.01142 51.5179 8.91397C51.4171 8.81653 51.3064 8.72558 51.1855 8.64113C50.1682 7.93954 48.7884 7.74465 47.61 7.998C46.1294 8.30008 44.8805 9.16733 43.7423 10.0736C40.0157 13.0358 36.6517 16.4464 34.1136 20.3636C35.1913 15.8617 35.3021 11.1454 34.8388 6.50712C34.6877 5.07469 34.446 3.61303 33.6201 2.38524C32.9553 1.40106 31.8474 0.602024 30.6086 0.397392C30.4676 0.371407 30.3232 0.361664 30.1755 0.36816C30.0345 0.361664 29.8901 0.371407 29.7424 0.397392C28.5136 0.602024 27.3956 1.40106 26.7409 2.38524C25.915 3.61303 25.6632 5.07469 25.5222 6.50712C25.0489 11.1454 25.1697 15.8617 26.2373 20.3636C23.7093 16.4464 20.3453 13.0358 16.6187 10.0736C15.4705 9.16733 14.2316 8.30008 12.751 7.998C11.5626 7.7544 10.1928 7.93954 9.16545 8.64113C9.0513 8.72558 8.94386 8.81653 8.84314 8.91397C8.73571 9.01142 8.64171 9.11861 8.56113 9.23554C7.83595 10.2197 7.63451 11.5547 7.88631 12.6948C8.19854 14.1272 9.09494 15.3355 10.0316 16.4464C13.0935 20.0518 16.6187 23.2967 20.6776 25.7523C16.0143 24.7194 11.1496 24.6024 6.34531 25.0604C4.87481 25.1968 3.36402 25.4404 2.09496 26.2297C1.0777 26.8729 0.241726 27.9447 0.0402878 29.1433C0.0134294 29.2797 0 29.4194 0 29.5623C0 29.6987 0.0134294 29.8384 0.0402878 29.9813C0.241726 31.1701 1.0777 32.2517 2.09496 32.8851C3.36402 33.6842 4.87481 33.9278 6.34531 34.0642C11.1496 34.5222 16.0143 34.4053 20.6776 33.3724C16.6187 35.8182 13.0935 39.0728 10.0316 42.6782C9.09494 43.7891 8.19854 44.9877 7.88631 46.4201C7.63451 47.5699 7.83595 48.8951 8.56113 49.8891C8.64171 49.9995 8.73571 50.1067 8.84314 50.2106C8.94386 50.3081 9.0513 50.3958 9.16545 50.4737C10.1928 51.1753 11.5626 51.3702 12.751 51.1266C14.2316 50.8245 15.4705 49.9573 16.6187 49.0511C20.3453 46.0888 23.7093 42.6782 26.2373 38.7513C25.1697 43.2629 25.0489 47.9792 25.5222 52.6175C25.6632 54.0402 25.915 55.5116 26.7409 56.7394C27.3956 57.7138 28.5136 58.5226 29.7424 58.7272C29.8901 58.7467 30.0345 58.7565 30.1755 58.7565C30.3232 58.7565 30.4676 58.7467 30.6086 58.7272C31.8474 58.5226 32.9553 57.7138 33.6201 56.7394C34.446 55.5116 34.6877 54.0402 34.8388 52.6175C35.3021 47.9792 35.1913 43.2629 34.1136 38.7513C36.6517 42.6782 40.0157 46.0888 43.7423 49.0511C44.8805 49.9573 46.1294 50.8245 47.61 51.1266C48.7984 51.3702 50.1682 51.1753 51.1855 50.4737C51.3064 50.3958 51.4171 50.3081 51.5179 50.2106C51.6186 50.1067 51.7126 49.9995 51.7999 49.8891C52.5251 48.8951 52.7265 47.5699 52.4747 46.4201C52.1524 44.9877 51.2661 43.7891 50.3193 42.6782C47.2574 39.0728 43.7323 35.8182 39.6834 33.3724C44.3366 34.4053 49.2114 34.5222 54.0056 34.0642C55.4862 33.9278 56.997 33.6842 58.266 32.8851C59.2833 32.2517 60.1092 31.1701 60.3207 29.9813C60.3476 29.8384 60.361 29.6987 60.361 29.5623C60.361 29.4194 60.3476 29.2797 60.3207 29.1433Z" fill="#C8D2B9"/>
<path d="M37.9712 29.5627C37.9712 33.7235 34.4863 37.1048 30.1755 37.1048C25.8748 37.1048 22.3799 33.7235 22.3799 29.5627C22.3799 25.3921 25.8748 22.0205 30.1755 22.0205C34.4863 22.0205 37.9712 25.3921 37.9712 29.5627Z" fill="#FBEFE1"/>
</svg>
