<svg width="28" height="27" viewBox="0 0 28 27" fill="none" xmlns="http://www.w3.org/2000/svg">
  <path fill-rule="evenodd" clip-rule="evenodd" d="M0.666016 12.0745C0.666016 6.48784 0.666015 3.69377 2.40231 1.95895C4.13861 0.224138 6.9312 0.222656 12.5179 0.222656H15.4808C21.0675 0.222656 23.8616 0.222656 25.5964 1.95895C27.3312 3.69525 27.3327 6.48784 27.3327 12.0745V15.0375C27.3327 20.6241 27.3327 23.4182 25.5964 25.153C23.8601 26.8878 21.0675 26.8893 15.4808 26.8893H12.5179C6.9312 26.8893 4.13713 26.8893 2.40231 25.153C0.667497 23.4167 0.666016 20.6241 0.666016 15.0375V12.0745ZM22.8882 6.88932C22.8882 7.47869 22.6541 8.04392 22.2374 8.46067C21.8206 8.87742 21.2554 9.11154 20.666 9.11154C20.0766 9.11154 19.5114 8.87742 19.0947 8.46067C18.6779 8.04392 18.4438 7.47869 18.4438 6.88932C18.4438 6.29995 18.6779 5.73472 19.0947 5.31797C19.5114 4.90123 20.0766 4.6671 20.666 4.6671C21.2554 4.6671 21.8206 4.90123 22.2374 5.31797C22.6541 5.73472 22.8882 6.29995 22.8882 6.88932ZM16.9623 15.0375C16.9623 15.8233 16.6501 16.5769 16.0945 17.1326C15.5388 17.6883 14.7852 18.0004 13.9993 18.0004C13.2135 18.0004 12.4599 17.6883 11.9042 17.1326C11.3486 16.5769 11.0364 15.8233 11.0364 15.0375C11.0364 14.2516 11.3486 13.498 11.9042 12.9423C12.4599 12.3867 13.2135 12.0745 13.9993 12.0745C14.7852 12.0745 15.5388 12.3867 16.0945 12.9423C16.6501 13.498 16.9623 14.2516 16.9623 15.0375ZM19.9253 15.0375C19.9253 16.6091 19.3009 18.1164 18.1896 19.2277C17.0783 20.3391 15.571 20.9634 13.9993 20.9634C12.4277 20.9634 10.9204 20.3391 9.80909 19.2277C8.69776 18.1164 8.07342 16.6091 8.07342 15.0375C8.07342 13.4658 8.69776 11.9585 9.80909 10.8472C10.9204 9.73588 12.4277 9.11154 13.9993 9.11154C15.571 9.11154 17.0783 9.73588 18.1896 10.8472C19.3009 11.9585 19.9253 13.4658 19.9253 15.0375Z" fill="#484343" />
</svg>