<svg width="157" height="114" viewBox="0 0 157 114" fill="none" xmlns="http://www.w3.org/2000/svg">
<path d="M90.6239 19.9149C99.8555 23.3975 107.096 28.9743 113.143 36.4872C120.607 45.7106 125.722 56.2693 129.607 67.5274C133.699 79.4083 136.082 91.6685 137.579 104.062C137.615 104.387 137.652 104.711 137.688 105.036C137.741 106.56 136.94 107.755 135.655 107.968C134.37 108.18 133.224 107.204 132.908 105.608C132.553 103.812 132.309 101.953 131.954 100.157C129.394 85.1116 125.7 70.4152 119.203 56.6461C114.454 46.4712 108.354 37.4343 99.4801 30.9365C90.1281 24.1185 79.9996 22.1817 69.1362 24.2884C61.3538 25.8274 54.3016 29.1711 47.5343 33.5366C33.9515 42.4431 23.0109 54.4351 12.9934 67.5301C10.9211 70.2623 8.78511 72.8825 6.62505 75.5905C5.94523 76.347 5.31368 76.9281 4.44311 77.3491C3.68438 77.7065 2.93447 77.6889 2.26569 77.0332C1.57279 76.4652 1.32723 75.6429 1.48077 74.7417C1.82732 73.1388 2.56416 71.8319 3.38873 70.5491C13.5072 55.0289 25.8228 41.8112 40.3507 31.1834C47.9185 25.6228 56.1373 21.4678 65.0622 19.2053C72.2547 17.4097 79.4757 17.2259 86.7646 18.8533C88.2798 19.1758 89.7468 19.6736 90.6239 19.9149Z" fill="#F29A7F"/>
<path d="M81.4526 51.5462C89.2019 54.2438 94.9424 59.7854 98.979 67.4056C103.779 76.3679 105.537 86.0975 105.499 96.1823C105.433 97.1077 105.367 98.0331 105.102 98.9979C104.779 100.513 103.788 101.373 102.488 101.298C101.275 101.247 100.264 100.12 100.124 98.5722C99.859 95.7632 99.6815 92.9783 99.4164 90.1693C98.6844 81.8541 96.4832 74.0783 91.9905 67.0873C89.39 63.1642 86.0856 60.0853 81.9171 58.0896C74.3214 54.4908 67.0434 55.2251 59.8551 58.72C52.3314 62.4058 46.5815 68.5607 41.3886 75.4349C39.7482 77.6255 38.1715 79.9278 36.6188 82.1425C36.1868 82.6841 35.8426 83.2498 35.3228 83.7673C34.4435 84.5632 33.4852 84.9601 32.3778 84.1838C31.2705 83.4075 31.1214 82.2343 31.4351 81.0941C32.1347 78.5504 33.4636 76.4629 34.7685 74.4632C41.1084 64.791 49.1587 57.4762 59.3731 52.9266C65.3947 50.2429 71.6596 49.4187 78.2797 50.3905C79.3563 50.5923 80.4242 51.169 81.4526 51.5462Z" fill="#BCD1DE"/>
<path d="M18.3735 69.5769C20.7263 69.9411 20.3317 67.9456 20.948 67.0772C22.108 65.6037 23.0927 64.082 24.2286 62.6962C25.2286 61.4617 26.165 60.1154 27.404 59.0409C29.4105 57.2342 31.0115 54.8441 33.3206 53.3092C34.2394 52.7128 34.928 51.5813 35.7832 50.8731C39.8357 47.4591 43.8641 44.1328 48.3617 41.5017C51.5414 39.5458 54.8241 37.9014 57.9797 36.0333C58.8744 35.5246 60.041 34.7133 61.3238 35.5379C61.4751 35.6739 61.5233 35.4984 61.6352 35.4348C63.9925 33.7246 66.7138 33.4353 69.4593 33.0582C71.4065 32.8391 73.3932 32.8194 75.2922 32.7757C76.529 32.7385 77.8205 33.188 79.0725 33.4381C82.0635 33.8834 85.1905 34.1774 87.9556 35.7871C88.7844 36.2038 89.4773 36.7717 90.282 37.2761C91.6284 38.2125 93.2949 38.6709 94.593 39.7827C95.9152 40.8068 97.2857 41.6555 98.4478 42.9187C100.064 44.5897 101.16 46.7781 102.873 48.0983C104.394 49.0829 104.614 51.0302 105.984 51.8789C106.638 52.2473 106.445 52.949 106.037 53.4029C106.403 53.7867 106.802 53.7077 107.056 54.1551C107.747 55.7603 108.797 57.087 109.847 58.4137C110.214 58.7975 110.157 59.3478 110.323 59.7711C111.29 62.7731 113.351 65.2269 113.584 68.4986C114.754 69.3868 114.208 71.0292 115.156 72.0445C115.609 72.4524 115.68 73.2265 115.662 73.9764C115.653 74.3514 115.756 74.6628 115.923 75.086C116.789 76.7395 117.056 78.5112 117.212 80.3466C117.243 80.9211 117.098 81.4474 117.552 81.8553C118.435 82.7588 118.249 84.1227 118.295 84.9845C118.273 87.8089 119.36 90.3723 119.65 93.0937C119.902 94.5782 120.066 96.0386 120.007 97.6262C120.027 99.6129 120.246 101.56 120.353 103.571C120.397 105.47 119.557 106.465 117.809 106.645C117.347 106.612 116.899 106.867 116.388 107.009C116.263 105.748 114.948 105.386 114.623 104.165C114.45 103.079 114.229 102.169 114.718 101.077C114.974 100.488 114.777 99.4898 114.459 98.9306C114.014 98.1478 114.374 97.8693 114.909 97.6391C114.431 97.3189 114.168 97.2465 114.361 96.5448C114.523 95.2686 114.31 93.9836 113.611 92.7534C113.356 92.3061 113.413 91.7557 113.558 91.2294C113.981 91.0628 114.027 91.9246 114.475 91.6702C114.611 91.5189 114.595 91.2317 114.42 91.1834C113.128 90.7338 113.179 89.5212 113.118 88.3721C112.993 87.1113 112.644 85.9776 112.407 84.7803C112.107 83.4712 111.894 82.1862 111.881 80.8617C111.859 79.9122 111.254 79.3683 111.096 78.5701C110.611 76.6755 110.097 74.7729 109.553 72.8622C109.253 71.5531 108.386 69.8996 109.498 68.6015C109.18 68.0423 108.954 69.2067 108.549 68.6234C108.231 68.0642 108.591 67.7858 108.775 67.459C108.297 67.1389 108.04 67.7287 107.602 67.6081C107.317 66.5862 107.567 65.3341 106.683 64.4306C106.317 64.0469 106.597 63.3693 106.63 62.9066C106.328 62.6347 105.896 63.1763 105.641 62.7289C105.387 62.2816 105.659 61.979 105.931 61.6764C104.839 61.1873 104.403 60.0295 104.341 58.8805C104.383 58.0428 103.754 57.5867 103.427 57.4025C102.232 56.602 101.484 55.5472 101.208 54.1504C101.05 53.3522 100.62 52.8566 100.263 52.0979C99.5679 52.5671 99.1775 52.2711 98.8201 51.5123C98.0571 50.1703 96.9103 49.1944 96.0113 48.0037C95.2154 47.1243 94.0992 46.7229 93.6147 45.7405C93.2332 45.0695 92.5381 45.5388 92.0206 45.019C91.1369 44.1155 90.0296 43.3392 89.0341 42.4993C88.1657 41.8831 87.225 41.53 86.2997 41.4642C85.2866 41.3742 84.8568 40.8786 84.4359 40.0081C84.1179 39.4489 83.7276 39.1528 83.0961 39.7339C82.3527 40.3785 81.6751 40.0978 81.0305 39.3544C80.6007 38.8588 80.035 38.5145 79.5394 38.9443C79.1797 39.2228 79.1644 38.9355 78.9254 38.7754C78.3596 38.4311 77.6667 37.8631 77.0899 38.931C76.954 39.0823 76.7786 39.034 76.6909 39.0099C74.4257 38.6699 72.2855 39.5908 70.1475 39.4744C68.0972 39.3822 66.389 39.7615 64.6237 40.6912C64.2005 40.8578 63.9702 40.3227 63.4593 40.4652C63.6172 41.2634 63.0821 41.4936 62.4923 41.237C61.8388 40.8686 61.4792 41.1471 61.0713 41.601C60.6393 42.1426 60.01 41.6865 59.5626 41.9408C58.2791 42.7199 57.1256 43.5977 56.1022 44.5742C55.9662 44.7255 55.7425 44.8527 55.6548 44.8286C54.826 44.4119 54.5453 45.0894 54.1768 45.7429C52.631 44.8459 51.9007 46.8151 50.3854 46.4926C50.8064 47.3632 51.1879 48.0342 50.063 48.0079C49.6003 47.9749 49.495 48.7008 49.0477 48.9551C48.1771 49.3761 47.6772 48.1064 46.9974 48.8629C47.4513 49.2708 47.721 50.0054 47.2254 50.4351C46.6333 51.2157 45.6356 51.4131 44.7102 51.3472C44.2716 51.2266 43.9208 51.1301 43.776 51.6563C43.8549 52.0554 44.2782 51.8888 44.4448 52.312C44.2606 52.6388 43.5589 52.4458 43.8044 53.2681C42.8725 52.54 41.627 52.9522 41.3375 54.0047C41.3133 54.0924 41.3528 54.292 41.3287 54.3797C40.48 55.7502 39.3287 56.8487 38.7344 58.6665C37.9713 57.3245 37.4669 58.1293 36.9319 58.3595C36.5481 58.7257 37.3375 58.9427 37.0656 59.2453C36.5064 59.5633 36.4604 58.7015 35.9977 58.6686C35.1425 59.3768 36.6949 60.936 35.1862 61.2758C34.7872 61.3547 34.8683 60.7166 34.3661 60.4842C34.9779 61.6903 33.7082 62.1901 33.9209 63.4751C32.8618 62.5234 32.2543 63.0168 31.5745 63.7732C31.7411 64.1965 32.2126 63.8544 32.4911 64.2141C32.0656 65.4179 32.0656 65.4179 30.75 65.056C30.1908 65.3739 30.603 66.6194 29.3903 66.569C30.4889 67.7202 28.4781 67.8276 29.1381 68.8582C27.7588 68.3845 27.1272 68.9656 27.3399 70.2506C26.079 70.3755 25.6777 71.4917 24.8224 72.1999C25.1404 72.7591 25.6601 72.2416 25.9144 72.6889C25.7915 74.1647 23.3532 72.7393 23.5724 74.6865C22.1119 74.8509 21.4957 75.7192 21.5153 77.7059C20.5329 78.1905 19.7413 79.0106 18.8466 79.5192C18.5835 79.4469 18.7041 79.0083 18.2173 79.0631C18.1449 79.3262 18.0484 79.6771 17.9037 80.2034C17.4586 79.4205 16.156 80.383 16.167 78.9709C16.1846 78.2209 16.1386 77.3591 16.268 76.5456C16.5992 74.6554 17.9347 73.2302 18.0905 71.2917C18.1475 70.7413 19.3602 70.7918 18.3735 69.5769Z" fill="#C8D2B9"/>
<path d="M86.3346 91.7598C86.8609 91.9046 87.635 91.8344 87.589 90.9726C87.5824 90.3104 87.0649 89.7907 86.3786 89.8849C86.1813 88.8872 87.1943 88.9772 87.5628 88.3237C86.5343 87.9465 86.2647 87.2119 86.1157 86.0387C86.0543 84.8897 85.2825 83.9226 85.0457 82.7253C84.627 80.8175 83.2258 79.3943 82.4475 77.765C82.2808 77.3418 82.3774 76.991 82.3379 76.7914C81.4455 76.2629 80.3206 76.2365 80.2439 74.8002C79.5334 74.9822 78.9347 75.1006 78.5138 74.23C78.22 73.5831 77.4064 73.4537 76.8078 73.5721C76.1214 73.6663 75.6434 73.3461 75.5733 72.5721C74.2641 72.8724 72.909 72.311 72.3609 71.2167C71.6481 72.4359 70.7864 72.4819 69.7909 71.642C69.6476 71.4768 69.5307 71.4447 69.44 71.5455C68.6484 72.3656 67.3963 72.1156 66.541 72.8238C66.1902 72.7273 66.2078 71.9773 65.6091 72.0957C65.9336 73.3171 65.6134 73.7951 63.8899 73.8871C63.3153 73.9178 62.8921 74.0845 62.4601 74.6261C61.6202 75.6216 60.5896 76.2815 59.6642 76.2157C55.7959 79.303 52.9077 82.9429 50.2104 86.9183C50.2893 87.3174 50.5196 87.8525 49.6731 88.1858C49.0503 88.3919 48.4429 88.8852 48.6643 89.7952C47.2675 90.0715 46.3202 89.0562 45.3883 88.3281C44.6077 87.736 45.7414 87.3874 45.7985 86.837C44.9301 86.2208 44.6122 85.6616 45.4521 84.6661C45.996 84.0609 46.6516 83.3921 46.6297 82.4427C46.7262 82.0918 46.9982 81.7892 47.246 81.5743C47.7416 81.1445 48.3402 81.0262 48.1671 79.9407C48.1364 79.3662 48.9434 78.8334 49.5968 79.2018C50.0288 78.6602 49.4784 78.6032 49.4631 78.3159C50.3424 77.52 51.1582 76.6121 51.5596 75.496C51.9368 74.4676 52.871 74.1585 53.4784 73.6651C55.3643 72.2969 57.0441 70.3059 59.4628 69.7447C59.6624 69.7052 59.7983 69.5539 59.9342 69.4026C60.0066 69.1395 60.1908 68.8128 60.3904 68.7733C62.3617 68.4664 63.7938 66.6903 65.8923 66.6071C66.3791 66.5523 66.9536 66.5216 67.537 66.116C68.5676 65.456 69.8438 65.6183 71.0959 65.8684C72.2602 66.0943 73.497 66.0571 74.6614 66.283C75.4991 66.3247 76.5363 66.327 76.8366 67.6361C77.637 66.4411 78.2488 67.6471 78.8628 67.816C81.0556 68.4192 82.5115 70.3292 84.4959 71.3467C85.3248 71.7634 86.0725 72.8182 86.4935 73.6888C87.3508 75.7172 88.6554 77.4912 89.425 79.4955C89.8218 80.4538 89.9467 81.7147 90.9663 82.4669C91.5321 82.8112 90.6856 83.1445 90.804 83.7431C91.6811 83.9844 92.1745 84.5918 92.1481 85.7167C92.0911 86.2671 91.8192 86.5697 91.2052 86.4008C91.5626 87.1595 92.4002 87.2012 92.7093 88.1354C92.9702 89.245 92.9768 89.9072 91.8672 90.1681C92.2487 90.8391 92.5666 91.3983 92.8846 91.9575C92.5403 92.5232 92.1588 91.8522 91.7991 92.1307C91.4702 92.9837 92.4525 92.4991 92.595 93.01C91.8911 93.8542 91.9919 95.2028 91.2638 96.1347C91.4941 96.6698 91.9743 95.9527 92.2199 96.7751C92.2966 98.2114 91.2177 99.0468 90.1146 99.9699C88.992 98.9063 87.5644 98.608 86.6589 96.7551C85.7533 94.9021 86.1394 93.4987 86.3346 91.7598Z" fill="#F29A7F"/>
<path fill-rule="evenodd" clip-rule="evenodd" d="M45.8725 40.5399C45.8099 39.9639 46.3119 39.6851 46.6831 39.4789C46.7289 39.4534 46.7727 39.4291 46.8133 39.4055L47.0539 39.2352C49.3999 37.5756 51.652 35.9825 54.1076 34.6215C59.3862 31.7651 64.7297 29.021 70.6284 27.7549C74.3087 27.0331 78.0903 27.0029 81.8619 27.7295C85.5454 28.4325 89.0425 29.8449 92.3117 31.7659C92.373 31.7963 92.4372 31.8233 92.5022 31.8507C92.8796 32.0098 93.2824 32.1796 93.2894 33.0723C92.6704 32.7278 92.08 32.433 91.5005 32.1436L91.5004 32.1435C90.847 31.8172 90.2074 31.4978 89.5562 31.1219C87.5391 29.8215 85.2293 28.9173 83.0675 28.5275C79.5836 27.7831 75.9833 27.4821 72.3911 28.2276C68.7109 28.9495 65.0256 30.0497 61.5997 31.5992C57.7513 33.3202 54.0743 35.4669 50.5269 37.8382L46.6452 40.4046C46.3342 40.5111 46.1114 40.6412 46.0182 40.996C45.978 40.9159 45.9466 40.8401 45.9232 40.7682C43.5111 42.2276 41.3345 43.9539 39.109 45.719L39.1089 45.7191C38.3545 46.3174 37.5945 46.9202 36.8178 47.5186C36.7696 47.5564 36.7226 47.5962 36.6764 47.6354L36.6763 47.6355C36.3909 47.8774 36.133 48.096 35.7981 47.6768C35.8935 48.0521 35.7674 48.4178 35.4688 48.5897C34.9817 48.9615 34.542 49.393 34.1006 49.8263C33.461 50.4542 32.8176 51.0857 32.0205 51.5445C31.7392 51.7366 31.5111 52.0196 31.2772 52.3096C30.9317 52.7382 30.5738 53.1822 30.0132 53.3714L29.9711 53.2995C29.4989 53.7819 29.0282 54.2586 28.5599 54.7329L28.5594 54.7333L28.5593 54.7335L28.5592 54.7336L28.559 54.7338C27.2247 56.0851 25.909 57.4175 24.6287 58.81C23.7686 59.7142 22.9308 60.6242 22.093 61.5343C21.2552 62.4443 20.4173 63.3544 19.5573 64.2585C18.3955 65.434 17.4213 66.7883 16.4509 68.1374C15.5696 69.3626 14.6915 70.5834 13.6788 71.662C13.631 71.7038 13.5829 71.7596 13.5332 71.8174L13.5331 71.8174C13.3277 72.056 13.092 72.3298 12.714 71.806C12.8999 73.0394 12.2461 73.8071 11.5852 74.5832C11.2837 74.9372 10.9807 75.293 10.7553 75.6954C10.609 74.8106 10.9532 74.2418 11.4767 73.7198C12.1133 73.1333 12.5708 72.5 12.6933 71.6853C12.6989 71.7141 12.7039 71.7428 12.7085 71.7712C13.5128 71.256 13.9649 70.4553 14.4141 69.66C14.663 69.2192 14.911 68.78 15.2175 68.392C18.0177 64.795 20.9942 61.3702 24.1469 58.1175C24.939 57.2896 25.7697 56.4956 26.6003 55.7015L26.6004 55.7014L26.6005 55.7013C27.4312 54.9072 28.2619 54.1132 29.054 53.2853C29.0973 53.2474 29.1387 53.2061 29.1795 53.1653C29.3727 52.9723 29.5547 52.7905 29.883 53.0327L29.9045 53.0694C30.1228 52.3188 30.544 51.7952 31.1092 51.3978C32.0962 50.8296 32.9041 50.0716 33.7004 49.3247C34.353 48.7124 34.9979 48.1075 35.727 47.6205L35.7504 47.5324C35.7581 47.5513 35.7652 47.5701 35.7718 47.5891C36.6729 46.6237 37.7462 45.8099 38.8338 44.9852C39.1847 44.7192 39.537 44.4521 39.8855 44.1784L44.4223 40.6618C44.9537 40.2868 45.3728 40.0387 45.8725 40.5399ZM116.717 62.6414C117.548 62.6366 117.711 63.3443 117.85 63.9478C117.886 64.1055 117.921 64.256 117.965 64.385C119.223 67.0424 120.339 69.7566 121.313 72.5276C123.4 78.2634 124.971 84.146 126.028 90.1755C126.647 93.9212 127.088 97.62 127.417 101.383C127.458 101.829 127.447 102.278 127.437 102.723C127.423 103.338 127.409 103.945 127.531 104.524C127.549 104.812 127.348 104.853 126.88 104.824C126.793 103.01 126.64 101.084 126.488 99.1587L126.488 99.1584C125.694 91.7843 124.611 84.4279 122.118 77.3595C120.55 72.8918 118.78 68.4652 117.011 64.0387C116.975 63.9516 116.932 63.8625 116.888 63.7715C116.718 63.4209 116.535 63.0423 116.717 62.6414ZM115.9 60.5744C116.155 61.3814 116.407 62.179 117.178 62.6407C117.448 62.3341 117.341 62.0216 117.17 61.5971C116.966 61.1165 116.74 60.6301 116.514 60.1437C116.288 59.6572 116.062 59.1708 115.858 58.6902C112.729 52.6466 109.329 46.9097 104.52 42.2163C101.308 38.9911 98.0253 36.0311 94.3613 33.4427L94.3072 33.3944C94.0116 33.1297 93.66 32.8149 93.2785 33.2481C93.3272 33.6466 93.5705 33.7832 93.7896 33.9062C93.8395 33.9342 93.8882 33.9615 93.933 33.991C95.8096 34.9361 97.3304 36.2854 98.9016 37.6793C99.0066 37.7724 99.1118 37.8658 99.2174 37.9592C104.097 42.3873 108.459 47.3401 111.924 53.1891C113.181 55.2292 114.35 57.2457 115.472 59.4391C115.654 59.7954 115.777 60.186 115.9 60.5744Z" fill="#F29A7F"/>
</svg>
