<svg width="28" height="27" viewBox="0 0 28 27" fill="none" xmlns="http://www.w3.org/2000/svg">
  <path d="M13.9993 0.222656C6.63935 0.222656 0.666016 6.19599 0.666016 13.556C0.666016 20.916 6.63935 26.8893 13.9993 26.8893C21.3593 26.8893 27.3327 20.916 27.3327 13.556C27.3327 6.19599 21.3593 0.222656 13.9993 0.222656ZM20.186 9.28932C19.986 11.396 19.1193 16.516 18.6793 18.876C18.4927 19.876 18.1193 20.2093 17.7727 20.2493C16.9993 20.316 16.4127 19.7427 15.666 19.2493C14.4927 18.476 13.826 17.996 12.6927 17.2493C11.3727 16.3827 12.226 15.9027 12.986 15.1293C13.186 14.9293 16.5993 11.8227 16.666 11.5427C16.6753 11.5002 16.674 11.4562 16.6624 11.4144C16.6508 11.3726 16.6292 11.3342 16.5993 11.3027C16.5193 11.236 16.4127 11.2627 16.3193 11.276C16.1993 11.3027 14.3327 12.5427 10.6927 14.996C10.1593 15.356 9.67935 15.5427 9.25268 15.5293C8.77268 15.516 7.86601 15.2627 7.18602 15.036C6.34601 14.7693 5.69268 14.6227 5.74602 14.156C5.77268 13.916 6.10602 13.676 6.73268 13.4227C10.626 11.7293 13.2127 10.6093 14.506 10.076C18.2127 8.52932 18.9727 8.26266 19.4793 8.26266C19.586 8.26266 19.8393 8.28932 19.9993 8.42266C20.1327 8.52932 20.1727 8.67599 20.186 8.78266C20.1727 8.86266 20.1993 9.10266 20.186 9.28932Z" fill="#484343" />
</svg>