<svg width="28" height="27" viewBox="0 0 28 27" fill="none" xmlns="http://www.w3.org/2000/svg">
  <path d="M18.0967 0.222656H9.91668C2.44202 0.222656 0.666016 1.99999 0.666016 9.45866V17.64C0.666016 25.112 2.43002 26.8893 9.90201 26.8893H18.0833C25.5553 26.8893 27.3327 25.1253 27.3327 17.6533V9.47332C27.3327 1.99866 25.5687 0.222656 18.0967 0.222656ZM22.194 19.2493H20.2487C19.5127 19.2493 19.2913 18.6533 17.9713 17.3333C16.8193 16.2227 16.3327 16.084 16.0407 16.084C15.638 16.084 15.5273 16.1947 15.5273 16.7507V18.5C15.5273 18.9733 15.374 19.2507 14.138 19.2507C12.9387 19.1692 11.7758 18.8044 10.7448 18.1862C9.71385 17.5681 8.84422 16.7142 8.20735 15.6947C6.69582 13.8153 5.64472 11.6086 5.13802 9.25066C5.13802 8.95866 5.24868 8.69466 5.80468 8.69466H7.75002C8.25002 8.69466 8.43002 8.91732 8.62468 9.43066C9.56868 12.2093 11.1793 14.6253 11.8327 14.6253C12.0833 14.6253 12.1927 14.5147 12.1927 13.8893V11.028C12.11 9.72266 11.4167 9.61199 11.4167 9.13999C11.4256 9.01549 11.4826 8.89937 11.5757 8.81623C11.6688 8.73309 11.7906 8.68948 11.9153 8.69466H14.9713C15.3887 8.69466 15.5273 8.90266 15.5273 9.40266V13.264C15.5273 13.6813 15.7073 13.82 15.8327 13.82C16.0833 13.82 16.2767 13.6813 16.7353 13.2227C17.7205 12.0212 18.5254 10.6827 19.1247 9.24932C19.1863 9.07739 19.3023 8.93023 19.4551 8.83015C19.6079 8.73006 19.7891 8.68249 19.9713 8.69466H21.9167C22.4993 8.69466 22.6233 8.98666 22.4993 9.40266C21.792 10.9873 20.9168 12.4914 19.8887 13.8893C19.6793 14.2093 19.5953 14.376 19.8887 14.7507C20.082 15.0427 20.7633 15.612 21.222 16.1533C21.8883 16.8184 22.4418 17.5876 22.8607 18.4307C23.0273 18.972 22.7487 19.2493 22.194 19.2493Z" fill="#484343" />
</svg>