<svg width="29" height="57" viewBox="0 0 29 57" fill="none" xmlns="http://www.w3.org/2000/svg">
<path d="M28.8626 28.4275C21.7557 31.0381 19.29 37.1298 17.5496 43.5115C16.3893 47.8626 15.9542 52.5038 14.9389 57C14.6488 55.2595 14.5038 53.3741 14.2137 51.4886C13.3435 45.1069 12.1832 38.7252 8.2672 33.3588C6.52674 30.8931 4.20611 28.7175 0.725191 28.8626C0.580153 28.8626 0.435115 28.7175 0 28.4275C2.32061 28.2824 4.49617 27.8474 6.23663 26.397C10.5878 22.9161 12.6183 17.9848 13.9236 12.6183C14.7939 8.55727 14.3587 4.20611 15.0839 0C15.519 2.75573 16.0992 5.51143 16.0992 8.4122C16.0992 14.0687 18.1298 19.145 21.3206 23.7862C23.2061 26.2519 25.5267 27.8473 28.8626 28.4275Z" fill="white"/>
</svg>
