<svg width="154" height="185" viewBox="0 0 154 185" fill="none" xmlns="http://www.w3.org/2000/svg">
  <path d="M115.168 124.402C115.216 124.16 115.167 123.93 115.021 123.713C114.876 123.496 114.622 123.351 114.259 123.28C106.679 122.536 98.0154 123.934 91.3464 125.255C90.7664 125.329 90.4417 126.019 90.4428 126.49C90.4435 126.804 90.6614 126.973 91.0966 126.996C98.4586 127.414 106.908 127.576 114.373 125.564C114.953 125.49 115.169 124.873 115.168 124.402Z" fill="white" />
  <path d="M119.231 125.299C119.341 125.697 119.632 126.132 120.321 125.985C121.662 125.873 122.931 125.653 124.344 125.178C125.032 125.031 124.959 124.451 124.994 124.27C125.018 124.149 124.982 124.016 124.885 123.871C124.739 123.654 124.412 123.401 124.014 123.511C122.708 123.441 121.548 123.589 120.279 123.81C119.482 124.029 119.157 124.719 119.231 125.299Z" fill="white" />
  <path d="M98.2881 163.095C98.4325 162.841 98.3955 162.551 98.1772 162.225C98.1287 162.152 98.0198 162.068 97.8503 161.972C93.3134 160.133 88.0867 157.97 82.8634 157.22C82.392 157.221 82.0661 157.44 81.9944 157.802C81.9586 157.984 81.9597 158.455 82.3953 158.636C86.8247 161.018 92.0861 162.529 97.0933 163.895C97.6375 164.003 98.1805 163.639 98.2881 163.095Z" fill="white" />
  <path d="M106.85 165.069C112.294 167.087 118.135 168.524 122.561 169.492C122.924 169.564 123.394 169.092 123.466 168.729C123.502 168.547 123.646 168.293 123.501 168.076C123.404 167.931 123.259 167.871 123.065 167.896C118.565 166.347 113.05 164.692 107.427 163.581C106.991 163.401 106.521 163.873 106.449 164.236C106.377 164.599 106.487 164.997 106.85 165.069Z" fill="white" />
  <path d="M121.721 151.328C122.447 151.472 122.844 150.89 122.916 150.528C122.988 150.165 122.951 149.875 122.805 149.658C122.708 149.513 122.478 149.405 122.116 149.333C113.009 147.251 101.146 144.813 89.396 144.188C89.0332 144.116 88.7801 144.443 88.7443 144.624C88.7812 144.914 88.8181 145.204 89.1809 145.276C100.393 148.622 112.4 150.335 121.721 151.328Z" fill="white" />
  <path d="M106.058 136.171C106.105 135.93 106.057 135.7 105.911 135.483C105.814 135.338 105.644 135.242 105.403 135.194C101.739 134.659 98.0037 134.486 94.3412 134.422C93.6884 134.387 93.3995 134.896 93.4006 135.367C93.4017 135.838 93.5842 136.346 94.1284 136.453C97.6465 136.771 101.346 137.125 105.226 137.044C105.806 136.97 105.986 136.534 106.058 136.171Z" fill="white" />
  <path d="M122.417 138.744C123.361 139.213 124.232 139.573 125.502 139.824C126.119 140.04 126.407 139.532 126.443 139.351C126.479 139.169 126.478 138.698 126.332 138.481C126.284 138.408 126.175 138.324 126.006 138.228C125.062 137.759 124.118 137.289 123.029 137.074C122.594 136.894 122.159 137.185 122.088 137.548C121.907 137.983 121.981 138.563 122.417 138.744Z" fill="white" />
  <path d="M112.743 110.918C112.767 110.797 112.73 110.664 112.633 110.519C112.415 110.193 111.979 110.013 111.689 110.05C105.018 110.428 98.4578 111.676 91.9355 113.686C91.5368 113.796 91.3565 114.231 91.3935 114.521C91.5032 114.92 91.8302 115.173 92.3015 115.172C98.8283 115.048 105.534 114.017 112.021 112.189C112.636 111.933 112.744 111.389 112.743 110.918Z" fill="white" />
  <path d="M115.568 109.497C115.64 109.605 115.786 109.822 116.076 109.786C116.91 109.856 117.853 109.854 118.904 109.779C119.666 109.741 120.536 109.63 121.333 109.411L121.623 109.374C122.13 109.191 122.311 108.756 122.309 108.284C122.285 108.091 122.224 107.922 122.127 107.777C121.981 107.56 121.788 107.427 121.546 107.38C119.696 107.203 117.992 107.243 116.325 107.573C116.107 107.719 115.31 107.938 115.24 108.772C115.204 108.954 115.314 109.352 115.568 109.497Z" fill="white" />
  <path d="M115.601 92.6362C115.601 92.6362 115.577 92.6 115.529 92.5276C115.31 92.2018 114.729 91.8042 114.113 92.0595C110.816 93.01 107.629 94.8305 104.587 96.3968C103.863 96.882 103.09 97.2948 102.269 97.6351C101.351 98.1449 100.434 98.6547 99.5166 99.1645C96.1485 100.949 92.599 102.698 89.3406 104.881C89.0148 105.1 88.9431 105.462 89.1614 105.788C89.1984 106.078 89.5253 106.331 89.9598 106.04C93.5831 104.871 97.2054 103.231 100.646 101.555C101.612 101.118 102.542 100.705 103.436 100.316C104.281 99.8544 105.114 99.4536 105.935 99.1133C109.123 97.7642 112.346 96.2337 115.17 94.3415C115.822 93.9048 115.857 93.2521 115.601 92.6362Z" fill="white" />
  <path d="M100.586 91.3653C100.538 91.2929 100.513 91.2567 100.513 91.2567C100.368 91.0395 100.114 90.895 99.8238 90.9319C99.558 91.0051 99.3285 91.054 99.1351 91.0786C98.6036 91.2249 98.1326 91.3831 97.7221 91.5533C97.2148 91.7358 96.7076 91.9183 96.2731 92.2094C96.1283 92.3064 95.9592 92.3673 95.7659 92.3919C95.2228 92.7558 95.1153 93.2999 95.3337 93.6258C95.4434 94.0244 95.8062 94.0961 96.2048 93.9863C97.5092 93.5844 98.7768 92.8925 100.37 91.9823C100.769 91.8725 100.659 91.4739 100.586 91.3653Z" fill="white" />
  <path d="M62.4426 45.9472C62.6956 45.6203 62.4773 45.2945 62.1503 45.0414C61.7148 44.8611 61.1348 44.935 60.7731 45.3347C56.3982 50.7841 53.1867 57.4999 50.6257 63.3076C50.5055 63.598 50.5302 63.7913 50.6996 63.8876C51.1351 64.0679 51.7151 63.9941 52.0768 63.5943C55.6914 58.6544 60.1727 52.1894 62.4426 45.9472Z" fill="white" />
  <path d="M62.2456 39.3114C61.8481 39.8925 62.212 40.4355 62.5389 40.6886C63.0472 40.9775 63.8086 40.9394 64.242 40.1769C65.0012 39.1961 65.5062 38.0708 65.9385 36.837C66.2274 36.3286 65.9363 35.8942 65.6093 35.6411C65.4279 35.6053 64.9196 35.3164 64.5221 35.8975C63.5457 37.0238 62.8592 38.1133 62.2456 39.3114Z" fill="white" />
  <path d="M20.4166 46.4073C20.4405 46.2864 20.4039 46.1535 20.3069 46.0087C20.0885 45.6829 19.8344 45.5384 19.5444 45.5753C19.073 45.5764 18.4571 45.8317 18.3496 46.3759C17.709 51.5264 17.1052 56.967 17.6246 61.9699C17.6257 62.4413 18.0612 62.6215 18.3154 62.766C18.6054 62.729 19.004 62.6193 19.1115 62.0751C20.405 56.9593 20.4646 51.4112 20.4166 46.4073Z" fill="white" />
  <path d="M20.9744 36.9061C20.9755 37.3775 21.2296 37.5219 21.5924 37.5936C21.9552 37.6653 22.571 37.41 22.5699 36.9386C23.7537 31.4242 24.3205 25.6936 24.5267 20.8341C24.623 20.6647 24.6226 20.5076 24.5256 20.3628C24.4528 20.2541 24.09 20.1825 23.9086 20.1466C23.5459 20.0749 22.93 20.3302 22.9311 20.8016C22.1438 25.2636 21.1784 31.1039 20.9744 36.9061Z" fill="white" />
  <path d="M41.3343 28.772C41.4776 28.0464 41.0779 27.6847 40.6065 27.6858C40.171 27.5055 39.5551 27.7608 39.339 28.3778C36.7857 37.4853 33.8035 49.2408 32.5613 60.7748C32.5624 61.2462 32.8166 61.3906 32.9979 61.4265C33.1793 61.4623 33.578 61.3526 33.6496 60.9898C37.5399 49.8848 39.7966 37.9859 41.3343 28.772Z" fill="white" />
  <path d="M48.1277 49.7154C48.2352 49.1712 47.8355 48.8096 47.4727 48.7379C47.0372 48.5576 46.5658 48.5587 46.3496 49.1756C44.7987 52.7328 43.6464 56.1803 42.6027 59.5551C42.4952 60.0992 42.8949 60.4609 43.3305 60.6412C43.7661 60.8215 44.3461 60.7476 44.5622 60.1307C45.8959 56.719 47.1568 53.1987 48.1277 49.7154Z" fill="white" />
  <path d="M51.2422 32.5196C51.2433 32.991 51.7516 33.2799 52.223 33.2788C52.5858 33.3505 53.093 33.168 53.0919 32.6966C53.2341 31.4996 53.232 30.5568 53.0842 29.3968C53.0831 28.9254 52.5748 28.6365 52.212 28.5649C52.1034 28.6376 51.5234 28.7115 51.4159 29.2557C51.165 30.5254 51.1672 31.4682 51.2422 32.5196Z" fill="white" />
  <path d="M72.0803 58.2172C72.3692 57.7089 72.1139 57.093 71.6056 56.8041C71.2786 56.5511 70.6259 56.5163 70.2284 57.0974C66.0707 62.4013 62.6756 68.1384 59.9701 74.2004C59.7899 74.6359 60.0082 74.9618 60.3351 75.2148C60.5893 75.3593 60.9521 75.4309 61.3137 75.0312C65.5442 69.836 69.1935 64.2433 72.0803 58.2172Z" fill="white" />
  <path d="M74.7207 55.3456C75.519 55.5975 75.9166 55.0164 76.061 54.7622C77.0005 53.3459 77.7586 51.8937 78.2983 50.1156C78.4185 49.8252 78.4059 49.5714 78.2603 49.3542C78.1633 49.2094 77.9938 49.1131 77.752 49.0653C77.425 48.8122 76.845 48.8861 76.4834 49.2858L76.4475 49.4672C75.8328 50.1939 75.508 50.8836 75.0747 51.6461C74.6055 52.59 74.3535 53.3883 73.9929 54.2594C73.9571 54.4408 73.9941 54.7308 74.0668 54.8394C74.2124 55.0566 74.5393 55.3097 74.7207 55.3456Z" fill="white" />
  <path d="M81.6 66.7889C82.2756 66.2314 82.9512 65.6738 83.6267 65.1162C86.2324 62.8982 89.128 60.6432 91.2611 57.9549C91.84 57.4097 91.5848 56.7938 91.2937 56.3594C90.8939 55.9977 90.2042 55.6729 89.5525 56.1096C86.7286 58.0018 84.0871 60.4012 81.6271 62.8364C81 63.4664 80.3125 64.0845 79.5645 64.6906C78.8651 65.3691 78.1294 66.0718 77.3575 66.7988C74.5716 69.4524 71.6043 72.0701 69.1453 74.9768C68.7837 75.3765 68.8206 75.6665 69.1475 75.9196C69.2931 76.1368 69.6559 76.2085 69.9817 75.9901C73.2401 73.8069 76.2802 71.2977 79.1389 68.7528C79.9593 68.0982 80.7796 67.4436 81.6 66.7889Z" fill="white" />
  <path d="M84.3374 74.3972C84.7719 74.1061 85.1336 73.7064 85.4953 73.3067C85.8088 72.9917 86.1343 72.6162 86.4717 72.1803C86.568 72.0108 86.7005 71.8171 86.8692 71.5992C87.0864 71.4536 86.9767 71.055 86.8311 70.8378C86.8311 70.8378 86.8069 70.8016 86.7584 70.7292C86.6856 70.6206 86.4314 70.4761 86.1056 70.6944C84.6578 71.8219 83.5358 72.731 82.668 73.7846C82.4149 74.1116 82.3433 74.4744 82.6702 74.7274C82.8885 75.0533 83.4327 75.1608 83.9758 74.7969C84.1206 74.6999 84.2411 74.5666 84.3374 74.3972Z" fill="white" />
</svg>