<svg width="55" height="51" viewBox="0 0 55 51" fill="none" xmlns="http://www.w3.org/2000/svg">
<path d="M54.191 25.0745C54.001 24.0301 53.259 23.0962 52.3451 22.5358C51.205 21.8481 49.8478 21.6358 48.5177 21.5169C44.2106 21.1179 39.8312 21.2197 35.6508 22.1198C39.2883 19.9801 42.4552 17.1527 45.2059 14.0112C46.0565 13.0433 46.8527 11.9904 47.1423 10.7423C47.3685 9.74893 47.1875 8.58571 46.536 7.72816C46.4576 7.62627 46.3732 7.53287 46.2827 7.44796C46.1922 7.36306 46.0927 7.28381 45.9841 7.21023C45.0702 6.5989 43.8306 6.42909 42.7719 6.64985C41.4418 6.91306 40.3198 7.66872 39.2973 8.45835C35.9494 11.0395 32.9272 14.0112 30.647 17.4244C31.6152 13.5018 31.7147 9.39232 31.2985 5.35079C31.1628 4.10267 30.9456 2.82907 30.2036 1.75925C29.6064 0.901699 28.6111 0.205472 27.4982 0.027169C27.3715 0.0045274 27.2418 -0.00396218 27.1091 0.00169823C26.9824 -0.00396218 26.8527 0.0045274 26.72 0.027169C25.6161 0.205472 24.6117 0.901699 24.0236 1.75925C23.2816 2.82907 23.0554 4.10267 22.9287 5.35079C22.5034 9.39232 22.612 13.5018 23.5711 17.4244C21.3 14.0112 18.2778 11.0395 14.9299 8.45835C13.8984 7.66872 12.7854 6.91306 11.4553 6.64985C10.3876 6.43758 9.15701 6.5989 8.23407 7.21023C8.13152 7.28381 8.035 7.36306 7.94452 7.44796C7.848 7.53287 7.76355 7.62627 7.69116 7.72816C7.03967 8.58571 6.85871 9.74893 7.08492 10.7423C7.36542 11.9904 8.17073 13.0433 9.01223 14.0112C11.763 17.1527 14.9299 19.9801 18.5764 22.1198C14.387 21.2197 10.0166 21.1179 5.70051 21.5169C4.37944 21.6358 3.02217 21.8481 1.88207 22.5358C0.968182 23.0962 0.217162 24.0301 0.0361938 25.0745C0.0120647 25.1933 0 25.3151 0 25.4396C0 25.5584 0.0120647 25.6802 0.0361938 25.8047C0.217162 26.8405 0.968182 27.783 1.88207 28.3349C3.02217 29.0311 4.37944 29.2434 5.70051 29.3622C10.0166 29.7613 14.387 29.6594 18.5764 28.7594C14.9299 30.8906 11.763 33.7264 9.01223 36.8679C8.17073 37.8359 7.36542 38.8802 7.08492 40.1283C6.85871 41.1302 7.03967 42.285 7.69116 43.151C7.76355 43.2472 7.848 43.3406 7.94452 43.4312C8.035 43.5161 8.13152 43.5925 8.23407 43.6604C9.15701 44.2718 10.3876 44.4416 11.4553 44.2293C12.7854 43.9661 13.8984 43.2104 14.9299 42.4208C18.2778 39.8397 21.3 36.868 23.5711 33.4462C22.612 37.3774 22.5034 41.4868 22.9287 45.5284C23.0554 46.768 23.2816 48.0501 24.0236 49.1199C24.6117 49.969 25.6161 50.6737 26.72 50.852C26.8527 50.869 26.9824 50.8775 27.1091 50.8775C27.2418 50.8775 27.3715 50.869 27.4982 50.852C28.6111 50.6737 29.6064 49.969 30.2036 49.1199C30.9456 48.0501 31.1628 46.768 31.2985 45.5284C31.7147 41.4868 31.6152 37.3774 30.647 33.4462C32.9272 36.868 35.9494 39.8397 39.2973 42.4208C40.3198 43.2104 41.4418 43.9661 42.7719 44.2293C43.8396 44.4416 45.0702 44.2718 45.9841 43.6604C46.0927 43.5925 46.1922 43.5161 46.2827 43.4312C46.3732 43.3406 46.4576 43.2472 46.536 43.151C47.1875 42.285 47.3685 41.1302 47.1423 40.1283C46.8527 38.8802 46.0565 37.8359 45.2059 36.8679C42.4552 33.7264 39.2883 30.8906 35.6508 28.7594C39.8312 29.6594 44.2106 29.7613 48.5177 29.3622C49.8478 29.2434 51.205 29.0311 52.3451 28.3349C53.259 27.783 54.001 26.8405 54.191 25.8047C54.2152 25.6802 54.2272 25.5584 54.2272 25.4396C54.2272 25.3151 54.2152 25.1933 54.191 25.0745Z" fill="#FDAD95"/>
<path d="M34.1124 25.4399C34.1124 29.0654 30.9817 32.0116 27.1089 32.0116C23.2453 32.0116 20.1055 29.0654 20.1055 25.4399C20.1055 21.8059 23.2453 18.8682 27.1089 18.8682C30.9817 18.8682 34.1124 21.8059 34.1124 25.4399Z" fill="#FBEFE1"/>
</svg>
