<svg width="34" height="49" viewBox="0 0 34 49" fill="none" xmlns="http://www.w3.org/2000/svg">
<path d="M34 24.4376C25.6281 26.6819 22.7236 31.9186 20.6734 37.4046C19.3065 41.1451 18.794 45.1349 17.598 49C17.2563 47.5038 17.0854 45.883 16.7437 44.2621C15.7186 38.7761 14.3518 33.2901 9.73873 28.6769C7.68848 26.5573 4.95478 24.687 0.854273 24.8117C0.683418 24.8117 0.512564 24.687 0 24.4376C2.73367 24.313 5.29647 23.939 7.34673 22.6921C12.4724 19.6998 14.8643 15.4606 16.402 10.8473C17.4271 7.35625 16.9145 3.61578 17.7688 0C18.2814 2.36896 18.9648 4.7379 18.9648 7.23154C18.9648 12.0941 21.3568 16.458 25.1156 20.4478C27.3368 22.5674 30.0703 23.9389 34 24.4376Z" fill="#FBEFE1"/>
</svg>
