<svg width="60" height="86" viewBox="0 0 60 86" fill="none" xmlns="http://www.w3.org/2000/svg">
<path d="M60 42.8905C45.2261 46.8295 40.1005 56.0204 36.4824 65.6489C34.0703 72.2138 33.1659 79.2163 31.0553 86C30.4523 83.374 30.1508 80.5293 29.5478 77.6845C27.7387 68.056 25.3267 58.4275 17.186 50.3308C13.5679 46.6107 8.74373 43.3282 1.50754 43.547C1.20603 43.547 0.904524 43.3282 0 42.8905C4.82413 42.6717 9.34671 42.0153 12.9648 39.827C22.0101 34.5751 26.2311 27.1349 28.9447 19.0382C30.7538 12.911 29.8492 6.34606 31.3567 0C32.2613 4.15776 33.4673 8.3155 33.4673 12.6921C33.4673 21.2264 37.6885 28.8854 44.3217 35.888C48.2413 39.6081 53.0653 42.0152 60 42.8905Z" fill="#FBEFE1"/>
</svg>
