<svg width="26" height="38" viewBox="0 0 26 38" fill="none" xmlns="http://www.w3.org/2000/svg">
<path d="M26 18.9516C19.598 20.6921 17.3769 24.7532 15.809 29.0076C14.7638 31.9084 14.3719 35.0025 13.4573 38C13.196 36.8397 13.0653 35.5827 12.804 34.3257C12.0201 30.0713 10.9749 25.8168 7.44727 22.2392C5.87942 20.5954 3.78895 19.145 0.653268 19.2417C0.522614 19.2417 0.391961 19.145 0 18.9516C2.09046 18.8549 4.05024 18.5649 5.61808 17.598C9.53769 15.2774 11.3668 11.9898 12.5427 8.41223C13.3266 5.70485 12.9346 2.80407 13.5879 0C13.9799 1.83715 14.5025 3.67429 14.5025 5.60813C14.5025 9.37913 16.3317 12.7633 19.2061 15.8575C20.9046 17.5012 22.995 18.5649 26 18.9516Z" fill="#FBEFE1"/>
</svg>
