<svg width="201" height="140" viewBox="0 0 201 140" fill="none" xmlns="http://www.w3.org/2000/svg">
<path d="M109.156 19.1431C96.3429 17.5528 84.5599 19.6009 72.9791 24.6181C58.7157 30.7535 46.359 39.8662 35.0009 50.5383C23.0248 61.8062 12.796 74.554 3.51181 87.9964C3.27179 88.35 3.03182 88.7036 2.7918 89.0572C1.80251 90.7903 2.00154 92.662 3.36027 93.6911C4.719 94.7202 6.64165 94.2886 7.97979 92.632C9.48519 90.7683 10.8998 88.7629 12.4052 86.8992C24.5361 71.0341 37.7675 56.2634 53.6798 44.2741C65.3787 35.3829 77.9489 28.6325 92.185 26.5129C107.17 24.3137 120.08 28.2408 131.379 37.2987C139.454 43.8221 145.585 51.9909 150.764 61.1696C161.069 79.7596 166.435 100.313 170.059 121.582C170.795 126.009 171.673 130.345 172.525 134.797C172.851 136.088 173.229 137.145 173.981 138.163C174.642 139.04 175.521 139.476 176.695 139.124C177.843 138.888 178.629 138.086 179 136.948C179.575 134.881 179.518 132.918 179.344 130.93C177.08 106.791 170.869 83.9797 160.517 62.8203C155.14 51.7699 148.152 41.9508 139.194 33.8934C131.957 27.4321 123.706 22.8202 114.273 20.2648C112.322 19.7151 110.319 19.398 109.156 19.1431Z" fill="#F29A7F"/>
<path d="M100.509 61.3654C89.891 59.7688 79.8666 62.6899 70.5493 69.0564C59.5307 76.5125 51.5671 86.7101 45.4673 98.4131C44.9798 99.5249 44.4924 100.637 44.2119 101.916C43.6623 103.867 44.2866 105.467 45.8381 106.172C47.2733 106.852 49.1307 106.163 50.2363 104.455C52.2546 101.364 54.1567 98.2462 56.1751 95.1544C62.0885 85.9698 69.3749 78.305 78.8372 72.9451C84.2389 69.9857 89.9417 68.4328 95.9852 68.6608C106.975 69.1201 114.957 74.4042 121.153 82.8311C127.622 91.6833 130.531 102.315 132.358 113.44C132.923 116.976 133.347 120.603 133.796 124.114C133.966 125.004 134.02 125.869 134.307 126.785C134.841 128.243 135.709 129.286 137.464 129.062C139.22 128.837 140.107 127.569 140.438 126.058C141.178 122.685 140.91 119.458 140.617 116.347C139.167 101.283 134.299 87.9067 125.241 76.4149C119.901 69.6383 113.148 64.8672 104.888 61.9598C103.518 61.5376 101.93 61.555 100.509 61.3654Z" fill="#BCD1DE"/>
<path d="M162.58 120.675C159.633 119.663 161.306 117.593 161.121 116.212C160.676 113.798 160.462 111.436 159.991 109.139C159.585 107.1 159.32 104.97 158.54 102.971C157.317 99.6561 156.918 95.9127 155.179 92.7283C154.478 91.4778 154.37 89.7479 153.811 88.4066C151.197 81.9838 148.558 75.6773 144.952 69.89C142.461 65.6877 139.661 61.7834 137.144 57.6974C136.418 56.5632 135.561 54.9129 133.573 55.0864C133.315 55.1517 133.366 54.9192 133.275 54.7774C131.586 51.3605 128.611 49.3676 125.661 47.2584C123.539 45.8183 121.25 44.5853 119.077 43.3778C117.668 42.5812 115.898 42.3151 114.296 41.842C110.56 40.5356 106.759 38.9712 102.576 39.151C101.363 39.1287 100.214 39.3643 98.9748 39.4583C96.8451 39.7226 94.6356 39.2383 92.4549 39.7352C90.2996 40.1158 88.1954 40.2639 86.0799 41.0188C83.1903 41.9697 80.5874 43.8365 77.7998 44.3222C75.4375 44.5355 73.9973 46.6573 71.893 46.8054C70.9118 46.834 70.7079 47.7642 70.9038 48.5384C70.2459 48.7598 69.8317 48.4253 69.2646 48.7884C67.4869 50.2268 65.4622 51.1235 63.4375 52.0202C62.7797 52.2416 62.5104 52.9138 62.0596 53.3025C59.1109 56.1903 55.2289 57.7767 52.9668 61.4244C51.0696 61.7398 50.7016 63.9747 48.986 64.5736C48.2118 64.7695 47.659 65.6232 47.2225 66.5025C47.0042 66.9421 46.6952 67.24 46.2444 67.6287C44.234 69.016 42.8449 70.9051 41.5466 72.9361C41.1611 73.5828 41.0081 74.2805 40.2339 74.4764C38.6601 74.9845 38.0451 76.6778 37.4669 77.6478C35.7719 80.9324 32.9507 83.2389 30.9578 86.2144C29.7614 87.7802 28.6814 89.3714 27.7829 91.2463C26.5498 93.5352 25.1098 95.657 23.7605 97.9205C22.5529 100.093 22.9192 101.758 24.8339 103.031C25.3898 103.274 25.753 103.841 26.2579 104.318C27.1707 102.934 28.9149 103.316 30.0348 102.099C30.8966 100.947 31.7075 100.028 31.8064 98.4656C31.8685 97.6261 32.7048 96.5907 33.4137 96.1368C34.4061 95.5013 34.1593 94.9596 33.6798 94.3671C34.4285 94.2874 34.7773 94.3639 34.9812 93.4336C35.5707 91.8567 36.5998 90.498 38.1593 89.4993C38.7264 89.1361 38.9956 88.4639 39.1486 87.7662C38.7599 87.3154 38.1817 88.2855 37.8185 87.7184C37.7532 87.4603 37.9459 87.137 38.1785 87.1879C39.9482 87.454 40.6285 86.0188 41.3995 84.7254C42.3123 83.3412 43.4067 82.2405 44.4103 80.9981C45.5557 79.6648 46.5848 78.3061 47.4068 76.7801C48.0106 75.6938 49.0428 75.4325 49.7119 74.6043C51.4281 72.7055 53.183 70.8154 54.9767 68.9337C56.1221 67.6004 58.1325 66.2131 57.6356 64.0323C58.3445 63.5784 57.8968 65.0646 58.722 64.6361C59.4308 64.1821 59.1839 63.6405 59.1696 63.1499C59.9183 63.0703 59.8561 63.9098 60.4376 64.0372C61.3902 63.0273 61.8633 61.4248 63.4371 60.9167C64.095 60.6954 64.1827 59.7396 64.4264 59.1837C64.9425 59.0531 65.113 59.9435 65.6801 59.5804C66.2472 59.2172 66.1166 58.7011 65.986 58.185C67.5487 58.2838 68.7593 57.2086 69.5304 55.9152C69.9924 54.9196 70.9991 54.7747 71.4897 54.7604C73.3614 54.5614 74.87 53.7953 76.0408 52.3457C76.7099 51.5174 77.5095 51.2052 78.3857 50.5442C78.9049 51.5111 79.5373 51.4061 80.4135 50.7451C82.1148 49.6556 84.0375 49.2239 85.8041 48.3925C87.2616 47.8589 88.7988 48.074 89.9585 47.2314C90.8092 46.6867 91.3284 47.6536 92.2443 47.3669C93.8182 46.8588 95.5736 46.6343 97.2382 46.268C98.6193 46.0833 99.9239 46.2474 101.036 46.7349C102.264 47.2479 103.064 46.9357 104.081 46.1839C104.79 45.7299 105.423 45.6248 105.8 46.6825C106.268 47.882 107.224 47.9697 108.424 47.5014C109.223 47.1892 110.088 47.1351 110.401 47.9348C110.647 48.4764 110.84 48.153 111.215 48.1132C112.079 48.0591 113.228 47.8234 113.245 49.4116C113.311 49.6696 113.543 49.7205 113.66 49.746C116.49 50.7322 118.408 53.1026 120.955 54.2703C123.386 55.4125 125.133 56.8925 126.611 59.0446C127 59.4954 127.593 59.0159 128.098 59.4922C127.428 60.3205 127.908 60.9131 128.747 60.9753C129.729 60.9466 129.975 61.4883 130.171 62.2624C130.342 63.1529 131.349 63.008 131.712 63.5751C132.724 65.2594 133.525 66.9787 134.115 68.7331C134.181 68.9911 134.362 69.2747 134.478 69.3002C135.692 69.3226 135.605 70.2783 135.633 71.2595C137.97 71.1625 137.616 73.888 139.568 74.4376C138.55 75.1894 137.699 75.7342 139.018 76.389C139.574 76.6327 139.254 77.5375 139.617 78.1046C140.369 79.1225 141.721 77.9565 142.048 79.2468C141.273 79.4427 140.514 80.1292 140.826 80.9288C141.036 82.1936 142.071 83.03 143.183 83.5175C143.765 83.6449 144.23 83.7469 144.077 84.4446C143.742 84.8587 143.354 84.4079 142.903 84.7965C142.917 85.2872 143.847 85.4911 143.062 86.2939C144.585 86.0184 145.776 87.2546 145.47 88.65C145.445 88.7663 145.278 88.9734 145.252 89.0896C145.4 91.1939 146.064 93.1676 145.645 95.635C147.347 94.5455 147.441 95.7848 147.92 96.3774C148.141 97.0353 147.095 96.8059 147.226 97.322C147.679 98.0308 148.258 97.0608 148.814 97.3045C149.373 98.6458 146.625 99.5059 148.165 100.818C148.579 101.153 148.874 100.365 149.597 100.401C148.154 101.425 149.32 102.778 148.291 104.137C150.097 103.68 150.5 104.621 150.827 105.911C150.376 106.3 150.038 105.617 149.497 105.863C149.256 107.517 149.256 107.517 151 107.899C151.454 108.608 150.218 109.8 151.653 110.48C149.68 111.144 151.943 112.493 150.551 113.285C152.437 113.576 152.814 114.634 151.785 115.993C153.169 116.906 152.954 118.443 153.513 119.784C152.805 120.238 152.518 119.322 151.951 119.685C151.194 121.469 154.886 121.304 153.446 123.426C155.038 124.506 155.222 125.887 153.989 128.176C154.832 129.335 155.249 130.768 155.976 131.902C156.324 131.978 156.452 131.397 156.982 131.757C156.906 132.106 156.804 132.571 156.651 133.269C157.643 132.633 158.566 134.541 159.413 132.899C159.85 132.02 160.428 131.05 160.774 130.029C161.541 127.638 160.863 125.173 161.863 122.833C162.133 122.161 160.697 121.481 162.58 120.675Z" fill="#C8D2B9"/>
<path d="M70.3551 104.965C69.6574 104.812 68.8036 104.259 69.3819 103.289C69.7929 102.526 70.7089 102.239 71.4464 102.767C72.2827 101.731 71.0546 101.218 71.026 100.237C72.4469 100.427 73.2067 99.74 74.094 98.4721C74.865 97.1786 76.3481 96.5288 77.3517 95.2863C78.9989 93.3319 81.4887 92.5371 83.3827 91.1243C83.8336 90.7356 83.9355 90.2705 84.1027 90.0634C85.4583 89.995 86.7772 90.6497 87.741 89.0329C88.453 89.6765 89.0743 90.1783 90.0922 89.4265C90.8265 88.8563 91.8476 89.202 92.4688 89.7038C93.2063 90.2311 93.9551 90.1514 94.5078 89.2976C95.8411 90.443 97.7526 90.6183 99.054 89.6849C99.1368 91.5311 100.107 92.1094 101.771 91.7431C102.038 91.639 102.193 91.673 102.237 91.8451C102.654 93.2771 104.256 93.7503 104.815 95.0916C105.281 95.1936 105.717 94.3143 106.338 94.8161C105.218 96.033 105.298 96.7817 107.238 97.9382C107.885 98.3237 108.274 98.7746 108.444 99.665C108.81 101.33 109.602 102.722 110.714 103.209C113.313 109.142 114.441 115.117 115.143 121.364C114.808 121.778 114.216 122.258 114.993 123.159C115.589 123.778 115.992 124.719 115.181 125.638C116.63 126.809 118.346 126.21 119.869 125.935C121.134 125.724 120.033 124.63 120.302 123.958C121.683 123.773 122.392 123.319 122.026 121.654C121.765 120.622 121.413 119.448 122.017 118.362C122.118 117.897 121.988 117.381 121.832 116.981C121.52 116.181 120.898 115.679 121.76 114.528C122.146 113.881 121.536 112.772 120.554 112.801C120.384 111.91 121.056 112.18 121.249 111.856C120.715 110.399 120.324 108.85 120.539 107.313C120.728 105.892 119.835 104.965 119.432 104.024C118.081 101.29 117.348 97.961 114.889 95.8375C114.682 95.6702 114.617 95.4122 114.551 95.1541C114.628 94.8053 114.614 94.3147 114.407 94.1474C112.31 92.591 111.734 89.6616 109.354 88.2868C108.824 87.9267 108.177 87.5412 107.748 86.716C106.957 85.3238 105.38 84.7344 103.777 84.2612C102.291 83.8135 100.881 83.0169 99.3952 82.5693C98.3997 82.1073 97.197 81.4781 96.0516 82.8113C95.8526 80.9396 94.4093 81.9638 93.5954 81.7853C90.6883 81.148 87.8385 82.4732 84.9202 82.4428C83.7064 82.4205 82.1979 83.1866 81.18 83.9385C78.9514 85.7655 76.3596 87.0253 74.2473 88.8778C73.2039 89.7459 72.2911 91.1302 70.652 91.3802C69.787 91.4343 70.5643 92.336 70.0625 92.9572C68.8997 92.7023 67.9583 93.1052 67.3035 94.4241C67.0343 95.0963 67.1649 95.6124 67.9788 95.7909C67.1027 96.4519 66.1072 95.9899 65.18 96.8835C64.2019 98.0097 63.7909 98.7727 64.9171 99.7508C64.0664 100.296 63.3576 100.75 62.6487 101.203C62.7028 102.068 63.5534 101.524 63.8003 102.065C63.6617 103.254 62.8191 102.094 62.3428 102.599C62.6438 104.005 61.7055 105.506 61.981 107.029C61.3884 107.508 61.269 106.385 60.4836 107.188C59.5198 108.805 60.2605 110.43 60.9756 112.171C62.9238 111.623 64.7589 112.147 66.9365 110.553C69.1141 108.958 69.5219 107.098 70.3551 104.965Z" fill="#F29A7F"/>
<path fill-rule="evenodd" clip-rule="evenodd" d="M148.122 70.4578C149.17 69.6929 148.624 68.8797 148.244 68.3127C148.206 68.256 148.169 68.2017 148.136 68.1501L147.958 67.8096L147.958 67.8095L147.958 67.8094L147.958 67.8094C146.218 64.4898 144.548 61.3032 142.504 58.2626C138.07 51.8062 133.494 45.4407 127.398 40.4482C123.554 37.4119 119.183 35.1131 114.376 33.6936C109.685 32.2995 104.79 31.8358 99.8578 32.0952C99.7686 32.0936 99.6781 32.0864 99.5865 32.0791C99.0543 32.0367 98.4863 31.9915 97.9494 33.0175C98.8719 32.9906 99.7317 33.0038 100.576 33.0167C101.527 33.0314 102.459 33.0457 103.437 33.0018C106.548 32.7088 109.764 33.0482 112.504 33.8926C116.988 35.1193 121.345 36.9275 125.072 39.9383C128.916 42.9746 132.541 46.4505 135.599 50.2896C139.046 54.5795 142.042 59.2581 144.755 64.1183L147.74 69.4037C148.037 69.7124 148.219 69.9957 148.118 70.46L148.117 70.4602L148.117 70.4606L148.117 70.4615L148.118 70.4611C150.071 73.629 151.576 76.9721 153.115 80.3914L153.115 80.3915L153.115 80.3916L153.115 80.3917C153.63 81.5353 154.149 82.6873 154.689 83.8442C154.722 83.9168 154.753 83.9911 154.783 84.0642C154.977 84.5363 155.152 84.9608 155.866 84.5897C155.402 82.9183 154.641 81.3219 153.87 79.7041C153.623 79.1865 153.376 78.6666 153.136 78.1414L149.992 71.3586C149.564 70.5348 149.201 69.9682 148.122 70.4578ZM52.5929 52.5664C51.6394 52.0675 51.0303 52.7933 50.5108 53.4123L50.5106 53.4125L50.5105 53.4127L50.5104 53.4128L50.5102 53.413L50.51 53.4132C50.3745 53.5746 50.2452 53.7287 50.1175 53.8518C47.0855 56.1933 44.183 58.685 41.4101 61.327C35.5893 66.7539 30.2735 72.6571 25.4626 79.0366C22.5171 83.022 19.8041 87.0583 17.182 91.2365C16.8691 91.7305 16.6132 92.2584 16.3597 92.7813L16.3596 92.7814C16.0091 93.5045 15.6632 94.218 15.1779 94.8189C14.9852 95.1422 15.1923 95.3095 15.7482 95.5533C16.9296 93.4979 18.2527 91.3518 19.5759 89.2057L19.576 89.2055L19.576 89.2054L19.5761 89.2053L19.5762 89.2052L19.5762 89.205L19.5779 89.2024C24.8874 81.1042 30.5204 73.1987 37.6029 66.4641C42.0712 62.2032 46.7466 58.1095 51.422 54.0159C51.5149 53.9358 51.6176 53.858 51.7225 53.7784L51.7227 53.7783C52.1271 53.4717 52.5638 53.1406 52.5929 52.5664ZM55.3015 50.9412C54.5268 51.7225 53.7611 52.4946 52.5933 52.5677C52.4627 52.0516 52.7718 51.7537 53.2226 51.365C53.744 50.9312 54.2945 50.5037 54.845 50.0763L54.8458 50.0756C55.3966 49.6479 55.9474 49.2203 56.4691 48.7862C63.6853 43.6652 71.0321 39.0604 79.3919 36.5057C85.0293 34.6948 90.5903 33.2327 96.3727 32.4285C96.3895 32.4243 96.4064 32.4199 96.4234 32.4155L96.4604 32.406L96.4633 32.4052L96.4641 32.405C96.9638 32.2755 97.5581 32.1215 97.7426 32.8507C97.4494 33.2827 97.0864 33.2952 96.7596 33.3065C96.6851 33.3091 96.6126 33.3116 96.5431 33.319C93.8077 33.2905 91.2443 33.9422 88.596 34.6156C88.4191 34.6606 88.2417 34.7057 88.0639 34.7507C79.7805 36.9565 71.7839 40.0783 64.2954 44.774C61.6271 46.3827 59.0752 48.017 56.4723 49.8838C56.0494 50.187 55.6745 50.5651 55.3016 50.9412L55.3015 50.9412ZM167.865 126.586C167.238 125.506 167.195 124.3 167.153 123.103C167.129 122.443 167.106 121.786 166.985 121.153C165.909 115.311 164.529 109.565 162.842 103.914C162.425 102.482 161.943 101.066 161.462 99.6504L161.462 99.6503L161.462 99.6503C160.98 98.2345 160.498 96.8188 160.081 95.3868C160.053 95.317 160.03 95.2444 160.008 95.1728C159.901 94.8338 159.8 94.5146 159.278 94.6014L159.278 94.6016C159.507 93.5553 159.336 92.665 158.908 91.84C158.11 90.5935 157.631 89.2329 157.159 87.8921C156.772 86.7931 156.39 85.7072 155.84 84.7084L155.866 84.592C155.415 84.9807 155.288 85.5621 155.56 85.9874C155.899 86.7088 156.149 87.4713 156.399 88.237C156.761 89.3464 157.126 90.4623 157.771 91.4689C157.98 91.8591 158.074 92.3234 158.171 92.7993C158.313 93.5024 158.461 94.2309 158.994 94.7838L158.994 94.7835C159.257 95.6489 159.522 96.5062 159.785 97.3591L159.786 97.3624L159.786 97.3631C160.515 99.7255 161.233 102.055 161.876 104.433C162.325 105.994 162.746 107.549 163.167 109.104C163.588 110.658 164.009 112.213 164.459 113.774C165.094 115.829 165.407 117.981 165.718 120.125L165.718 120.125C166.001 122.072 166.283 124.012 166.805 125.866C166.835 125.943 166.857 126.036 166.88 126.133C166.975 126.539 167.085 127.005 167.865 126.587C166.804 127.959 167.103 129.278 167.404 130.612C167.537 131.202 167.671 131.795 167.689 132.396C168.383 131.452 168.329 130.587 168.043 129.671C167.665 128.613 167.52 127.607 167.866 126.586C167.866 126.586 167.866 126.586 167.866 126.586C167.866 126.586 167.866 126.586 167.866 126.586C167.866 126.586 167.866 126.585 167.866 126.585C167.866 126.585 167.866 126.586 167.865 126.586Z" fill="#F29A7F"/>
</svg>
