<svg width="56" height="54" viewBox="0 0 56 54" fill="none" xmlns="http://www.w3.org/2000/svg">
<path d="M55.9394 26.5411C55.7432 25.4357 54.9773 24.4471 54.0339 23.854C52.857 23.126 51.456 22.9013 50.083 22.7755C45.6369 22.3531 41.1162 22.4609 36.801 23.4136C40.5558 21.1488 43.8249 18.156 46.6644 14.8308C47.5424 13.8062 48.3643 12.6918 48.6632 11.3707C48.8967 10.3192 48.7099 9.0879 48.0374 8.18019C47.9565 8.07235 47.8693 7.97348 47.7759 7.88361C47.6825 7.79374 47.5797 7.70986 47.4677 7.63197C46.5243 6.98489 45.2447 6.80514 44.1518 7.03881C42.7788 7.31742 41.6206 8.11728 40.5651 8.95309C37.1092 11.6852 33.9895 14.8308 31.6358 18.4436C32.6352 14.2915 32.7379 9.94169 32.3083 5.66376C32.1682 4.34264 31.944 2.99455 31.1781 1.86215C30.5616 0.954441 29.5342 0.21749 28.3853 0.0287582C28.2546 0.00479221 28.1207 -0.00419393 27.9837 0.00179756C27.8529 -0.00419393 27.719 0.00479221 27.582 0.0287582C26.4425 0.21749 25.4057 0.954441 24.7986 1.86215C24.0327 2.99455 23.7992 4.34264 23.6684 5.66376C23.2294 9.94169 23.3415 14.2915 24.3316 18.4436C21.9872 14.8308 18.8675 11.6852 15.4116 8.95309C14.3468 8.11728 13.1979 7.31742 11.8249 7.03881C10.7227 6.81413 9.45243 6.98489 8.49972 7.63197C8.39386 7.70986 8.29423 7.79374 8.20083 7.88361C8.1012 7.97348 8.01402 8.07235 7.9393 8.18019C7.26679 9.0879 7.07998 10.3192 7.31349 11.3707C7.60304 12.6918 8.43434 13.8062 9.30299 14.8308C12.1425 18.156 15.4116 21.1488 19.1757 23.4136C14.8512 22.4609 10.3398 22.3531 5.88442 22.7755C4.52073 22.9013 3.11968 23.126 1.94279 23.854C0.999418 24.4471 0.224169 25.4357 0.0373615 26.5411C0.0124539 26.667 0 26.7958 0 26.9276C0 27.0534 0.0124539 27.1822 0.0373615 27.314C0.224169 28.4105 0.999418 29.4081 1.94279 29.9922C3.11968 30.7292 4.52073 30.9539 5.88442 31.0797C10.3398 31.5021 14.8512 31.3942 19.1757 30.4416C15.4116 32.6974 12.1425 35.6991 9.30299 39.0244C8.43434 40.049 7.60304 41.1544 7.31349 42.4755C7.07998 43.536 7.26679 44.7583 7.9393 45.675C8.01402 45.7768 8.1012 45.8757 8.20083 45.9716C8.29423 46.0614 8.39386 46.1423 8.49972 46.2142C9.45243 46.8613 10.7227 47.0411 11.8249 46.8164C13.1979 46.5378 14.3468 45.7379 15.4116 44.9021C18.8675 42.17 21.9872 39.0244 24.3316 35.4026C23.3415 39.5637 23.2294 43.9135 23.6684 48.1914C23.7992 49.5036 24.0327 50.8606 24.7986 51.993C25.4057 52.8917 26.4425 53.6377 27.582 53.8264C27.719 53.8444 27.8529 53.8534 27.9837 53.8534C28.1207 53.8534 28.2546 53.8444 28.3853 53.8264C29.5342 53.6377 30.5616 52.8917 31.1781 51.993C31.944 50.8606 32.1682 49.5036 32.3083 48.1914C32.7379 43.9135 32.6352 39.5637 31.6358 35.4026C33.9895 39.0244 37.1092 42.17 40.5651 44.9021C41.6206 45.7379 42.7788 46.5378 44.1518 46.8164C45.254 47.0411 46.5243 46.8613 47.4677 46.2142C47.5797 46.1423 47.6825 46.0614 47.7759 45.9716C47.8693 45.8757 47.9565 45.7768 48.0374 45.675C48.7099 44.7583 48.8967 43.536 48.6632 42.4755C48.3643 41.1544 47.5424 40.049 46.6644 39.0244C43.8249 35.6991 40.5558 32.6974 36.801 30.4416C41.1162 31.3942 45.6369 31.5021 50.083 31.0797C51.456 30.9539 52.857 30.7292 54.0339 29.9922C54.9773 29.4081 55.7432 28.4105 55.9394 27.314C55.9643 27.1822 55.9767 27.0534 55.9767 26.9276C55.9767 26.7958 55.9643 26.667 55.9394 26.5411Z" fill="#C8D2B9"/>
</svg>
