<svg width="61" height="57" viewBox="0 0 61 57" fill="none" xmlns="http://www.w3.org/2000/svg">
<path d="M60.3207 28.0919C60.1092 26.9219 59.2833 25.8755 58.266 25.2477C56.997 24.4772 55.4862 24.2394 54.0056 24.1062C49.2114 23.6592 44.3366 23.7733 39.6834 24.7816C43.7323 22.3845 47.2574 19.2169 50.3193 15.6973C51.2661 14.6129 52.1524 13.4334 52.4747 12.035C52.7265 10.9221 52.5251 9.61891 51.7999 8.65816C51.7126 8.54401 51.6186 8.43937 51.5179 8.34424C51.4171 8.24912 51.3064 8.16034 51.1855 8.0779C50.1682 7.39301 48.7884 7.20276 47.61 7.45008C46.1294 7.74497 44.8805 8.59157 43.7423 9.47622C40.0157 12.368 36.6517 15.6973 34.1136 19.5213C35.1913 15.1266 35.3021 10.5226 34.8388 5.99469C34.6877 4.59638 34.446 3.16952 33.6201 1.97096C32.9553 1.01021 31.8474 0.230198 30.6086 0.0304385C30.4676 0.00507222 30.3232 -0.00443898 30.1755 0.00190259C30.0345 -0.00443898 29.8901 0.00507222 29.7424 0.0304385C28.5136 0.230198 27.3956 1.01021 26.7409 1.97096C25.915 3.16952 25.6632 4.59638 25.5222 5.99469C25.0489 10.5226 25.1697 15.1266 26.2373 19.5213C23.7093 15.6973 20.3453 12.368 16.6187 9.47622C15.4705 8.59157 14.2316 7.74497 12.751 7.45008C11.5626 7.21228 10.1928 7.39301 9.16545 8.0779C9.0513 8.16034 8.94386 8.24912 8.84314 8.34424C8.73571 8.43937 8.64171 8.54401 8.56113 8.65816C7.83595 9.61891 7.63451 10.9221 7.88631 12.035C8.19854 13.4334 9.09494 14.6129 10.0316 15.6973C13.0935 19.2169 16.6187 22.3845 20.6776 24.7816C16.0143 23.7733 11.1496 23.6592 6.34531 24.1062C4.87481 24.2394 3.36402 24.4772 2.09496 25.2477C1.0777 25.8755 0.241726 26.9219 0.0402878 28.0919C0.0134294 28.2251 0 28.3614 0 28.5009C0 28.6341 0.0134294 28.7705 0.0402878 28.91C0.241726 30.0705 1.0777 31.1264 2.09496 31.7447C3.36402 32.5247 4.87481 32.7625 6.34531 32.8957C11.1496 33.3427 16.0143 33.2286 20.6776 32.2203C16.6187 34.6079 13.0935 37.785 10.0316 41.3046C9.09494 42.389 8.19854 43.559 7.88631 44.9573C7.63451 46.0798 7.83595 47.3735 8.56113 48.3437C8.64171 48.4515 8.73571 48.5562 8.84314 48.6577C8.94386 48.7528 9.0513 48.8384 9.16545 48.9145C10.1928 49.5994 11.5626 49.7896 12.751 49.5518C14.2316 49.2569 15.4705 48.4103 16.6187 47.5257C20.3453 44.6339 23.7093 41.3046 26.2373 37.4711C25.1697 41.8753 25.0489 46.4793 25.5222 51.0072C25.6632 52.396 25.915 53.8324 26.7409 55.0309C27.3956 55.9822 28.5136 56.7717 29.7424 56.9715C29.8901 56.9905 30.0345 57 30.1755 57C30.3232 57 30.4676 56.9905 30.6086 56.9715C31.8474 56.7717 32.9553 55.9822 33.6201 55.0309C34.446 53.8324 34.6877 52.396 34.8388 51.0072C35.3021 46.4793 35.1913 41.8753 34.1136 37.4711C36.6517 41.3046 40.0157 44.6339 43.7423 47.5257C44.8805 48.4103 46.1294 49.2569 47.61 49.5518C48.7984 49.7896 50.1682 49.5994 51.1855 48.9145C51.3064 48.8384 51.4171 48.7528 51.5179 48.6577C51.6186 48.5562 51.7126 48.4515 51.7999 48.3437C52.5251 47.3735 52.7265 46.0798 52.4747 44.9573C52.1524 43.559 51.2661 42.389 50.3193 41.3046C47.2574 37.785 43.7323 34.6079 39.6834 32.2203C44.3366 33.2286 49.2114 33.3427 54.0056 32.8957C55.4862 32.7625 56.997 32.5247 58.266 31.7447C59.2833 31.1264 60.1092 30.0705 60.3207 28.91C60.3476 28.7705 60.361 28.6341 60.361 28.5009C60.361 28.3614 60.3476 28.2251 60.3207 28.0919Z" fill="#FBEFE1"/>
<path d="M37.9712 28.5012C37.9712 32.563 34.4863 35.8638 30.1755 35.8638C25.8748 35.8638 22.3799 32.563 22.3799 28.5012C22.3799 24.43 25.8748 21.1387 30.1755 21.1387C34.4863 21.1387 37.9712 24.43 37.9712 28.5012Z" fill="#FDAD95"/>
</svg>
