<svg width="40" height="57" viewBox="0 0 40 57" fill="none" xmlns="http://www.w3.org/2000/svg">
<path d="M40 28.4275C30.1507 31.0381 26.7337 37.1298 24.3216 43.5115C22.7136 47.8626 22.1106 52.5038 20.7035 57C20.3015 55.2595 20.1005 53.3741 19.6985 51.4886C18.4925 45.1069 16.8845 38.7252 11.4573 33.3588C9.04527 30.8931 5.82916 28.7175 1.00503 28.8626C0.804022 28.8626 0.603016 28.7175 0 28.4275C3.21609 28.2824 6.23114 27.8474 8.64321 26.397C14.6734 22.9161 17.4874 17.9848 19.2965 12.6183C20.5025 8.55727 19.8995 4.20611 20.9045 0C21.5075 2.75573 22.3115 5.51143 22.3115 8.4122C22.3115 14.0687 25.1257 19.145 29.5478 23.7862C32.1609 26.2519 35.3769 27.8473 40 28.4275Z" fill="#7FA2B9"/>
</svg>
