<svg width="944" height="20" viewBox="0 0 944 20" fill="none" xmlns="http://www.w3.org/2000/svg">
<circle cx="10" cy="10" r="10" fill="#FBEFE1"/>
<circle cx="38" cy="10" r="10" fill="#FBEFE1"/>
<circle cx="66" cy="10" r="10" fill="#FBEFE1"/>
<circle cx="94" cy="10" r="10" fill="#FBEFE1"/>
<circle cx="122" cy="10" r="10" fill="#FBEFE1"/>
<circle cx="150" cy="10" r="10" fill="#FBEFE1"/>
<circle cx="178" cy="10" r="10" fill="#FBEFE1"/>
<circle cx="206" cy="10" r="10" fill="#FBEFE1"/>
<circle cx="234" cy="10" r="10" fill="#FBEFE1"/>
<circle cx="262" cy="10" r="10" fill="#FBEFE1"/>
<circle cx="290" cy="10" r="10" fill="#FBEFE1"/>
<circle cx="318" cy="10" r="10" fill="#FBEFE1"/>
<circle cx="346" cy="10" r="10" fill="#FBEFE1"/>
<circle cx="374" cy="10" r="10" fill="#FBEFE1"/>
<circle cx="402" cy="10" r="10" fill="#FBEFE1"/>
<circle cx="430" cy="10" r="10" fill="#FBEFE1"/>
<circle cx="458" cy="10" r="10" fill="#FBEFE1"/>
<circle cx="486" cy="10" r="10" fill="#FBEFE1"/>
<circle cx="514" cy="10" r="10" fill="#FBEFE1"/>
<circle cx="542" cy="10" r="10" fill="#FBEFE1"/>
<circle cx="570" cy="10" r="10" fill="#FBEFE1"/>
<circle cx="598" cy="10" r="10" fill="#FBEFE1"/>
<circle cx="626" cy="10" r="10" fill="#FBEFE1"/>
<circle cx="654" cy="10" r="10" fill="#FBEFE1"/>
<circle cx="682" cy="10" r="10" fill="#FBEFE1"/>
<circle cx="710" cy="10" r="10" fill="#FBEFE1"/>
<circle cx="738" cy="10" r="10" fill="#FBEFE1"/>
<circle cx="766" cy="10" r="10" fill="#FBEFE1"/>
<circle cx="794" cy="10" r="10" fill="#FBEFE1"/>
<circle cx="822" cy="10" r="10" fill="#FBEFE1"/>
<circle cx="850" cy="10" r="10" fill="#FBEFE1"/>
<circle cx="878" cy="10" r="10" fill="#FBEFE1"/>
<circle cx="906" cy="10" r="10" fill="#FBEFE1"/>
<circle cx="934" cy="10" r="10" fill="#FBEFE1"/>
</svg>
