<svg width="56" height="54" viewBox="0 0 56 54" fill="none" xmlns="http://www.w3.org/2000/svg">
<path d="M55.9394 26.6359C55.7432 25.562 54.9773 24.6016 54.0339 24.0253C52.857 23.3181 51.456 23.0998 50.083 22.9775C45.6369 22.5672 41.1162 22.6719 36.801 23.5975C40.5558 21.3972 43.8249 18.4897 46.6644 15.2591C47.5424 14.2638 48.3643 13.1811 48.6632 11.8976C48.8967 10.876 48.7099 9.67986 48.0374 8.79801C47.9565 8.69323 47.8693 8.59718 47.7759 8.50987C47.6825 8.42256 47.5797 8.34107 47.4677 8.2654C46.5243 7.63675 45.2447 7.46212 44.1518 7.68914C42.7788 7.95981 41.6206 8.73688 40.5651 9.54889C37.1092 12.2032 33.9895 15.2591 31.6358 18.7691C32.6352 14.7352 32.7379 10.5093 32.3083 6.35326C32.1682 5.06977 31.944 3.76008 31.1781 2.65994C30.5616 1.77808 29.5342 1.06213 28.3853 0.878769C28.2546 0.855486 28.1207 0.846756 27.9837 0.852576C27.8529 0.846756 27.719 0.855486 27.582 0.878769C26.4425 1.06213 25.4057 1.77808 24.7986 2.65994C24.0327 3.76008 23.7992 5.06977 23.6684 6.35326C23.2294 10.5093 23.3415 14.7352 24.3316 18.7691C21.9872 15.2591 18.8675 12.2032 15.4116 9.54889C14.3468 8.73688 13.1979 7.95981 11.8249 7.68914C10.7227 7.47086 9.45243 7.63675 8.49972 8.2654C8.39386 8.34107 8.29423 8.42256 8.20083 8.50987C8.1012 8.59718 8.01402 8.69323 7.9393 8.79801C7.26679 9.67986 7.07998 10.876 7.31349 11.8976C7.60304 13.1811 8.43434 14.2638 9.30299 15.2591C12.1425 18.4897 15.4116 21.3972 19.1757 23.5975C14.8512 22.6719 10.3398 22.5672 5.88442 22.9775C4.52073 23.0998 3.11968 23.3181 1.94279 24.0253C0.999418 24.6016 0.224169 25.562 0.0373615 26.6359C0.0124539 26.7582 0 26.8833 0 27.0114C0 27.1336 0.0124539 27.2588 0.0373615 27.3868C0.224169 28.452 0.999418 29.4212 1.94279 29.9887C3.11968 30.7047 4.52073 30.923 5.88442 31.0452C10.3398 31.4556 14.8512 31.3508 19.1757 30.4253C15.4116 32.6168 12.1425 35.5331 9.30299 38.7636C8.43434 39.759 7.60304 40.8329 7.31349 42.1164C7.07998 43.1467 7.26679 44.3341 7.9393 45.2247C8.01402 45.3237 8.1012 45.4197 8.20083 45.5129C8.29423 45.6002 8.39386 45.6788 8.49972 45.7486C9.45243 46.3773 10.7227 46.5519 11.8249 46.3336C13.1979 46.0629 14.3468 45.2859 15.4116 44.4739C18.8675 41.8196 21.9872 38.7636 24.3316 35.2449C23.3415 39.2875 23.2294 43.5134 23.6684 47.6695C23.7992 48.9442 24.0327 50.2627 24.7986 51.3628C25.4057 52.2359 26.4425 52.9606 27.582 53.144C27.719 53.1614 27.8529 53.1702 27.9837 53.1702C28.1207 53.1702 28.2546 53.1614 28.3853 53.144C29.5342 52.9606 30.5616 52.2359 31.1781 51.3628C31.944 50.2627 32.1682 48.9442 32.3083 47.6695C32.7379 43.5134 32.6352 39.2875 31.6358 35.2449C33.9895 38.7636 37.1092 41.8196 40.5651 44.4739C41.6206 45.2859 42.7788 46.0629 44.1518 46.3336C45.254 46.5519 46.5243 46.3773 47.4677 45.7486C47.5797 45.6788 47.6825 45.6002 47.7759 45.5129C47.8693 45.4197 47.9565 45.3237 48.0374 45.2247C48.7099 44.3341 48.8967 43.1467 48.6632 42.1164C48.3643 40.8329 47.5424 39.759 46.6644 38.7636C43.8249 35.5331 40.5558 32.6168 36.801 30.4253C41.1162 31.3508 45.6369 31.4556 50.083 31.0452C51.456 30.923 52.857 30.7047 54.0339 29.9887C54.9773 29.4212 55.7432 28.452 55.9394 27.3868C55.9643 27.2588 55.9767 27.1336 55.9767 27.0114C55.9767 26.8833 55.9643 26.7582 55.9394 26.6359Z" fill="#C8D2B9"/>
<path d="M35.2137 27.0153C35.2137 30.7435 31.982 33.7733 27.9843 33.7733C23.996 33.7733 20.7549 30.7435 20.7549 27.0153C20.7549 23.2783 23.996 20.2573 27.9843 20.2573C31.982 20.2573 35.2137 23.2783 35.2137 27.0153Z" fill="#FBEFE1"/>
</svg>
