<svg width="154" height="109" viewBox="0 0 154 109" fill="none" xmlns="http://www.w3.org/2000/svg">
<path d="M87.6823 16.5312C97.0313 19.685 104.465 25.0019 110.774 32.2961C118.56 41.2495 124.046 51.6205 128.327 62.7341C132.836 74.4628 135.651 86.6309 137.586 98.964C137.634 99.2871 137.682 99.6101 137.73 99.9331C137.836 101.454 137.079 102.677 135.802 102.935C134.525 103.193 133.345 102.258 132.973 100.674C132.554 98.8918 132.245 97.0421 131.827 95.2598C128.736 80.3148 124.524 65.7584 117.544 52.2279C112.437 42.2274 106.021 33.4121 96.923 27.2325C87.3356 20.7498 77.1448 19.1727 66.3629 21.6626C58.6398 23.4761 51.7103 27.0673 45.1018 31.6696C31.8428 41.0513 21.3335 53.423 11.7858 66.8644C9.81143 69.6682 7.76956 72.3624 5.7067 75.1452C5.05409 75.9252 4.4435 76.5283 3.58838 76.9798C2.84277 77.3638 2.09271 77.3728 1.40114 76.7412C0.68857 76.1981 0.414055 75.385 0.535604 74.4789C0.8252 72.8647 1.51533 71.5326 2.29397 70.2214C11.8568 54.3528 23.6968 40.7075 37.8395 29.5721C45.2056 23.7471 53.2723 19.3038 62.1115 16.7268C69.236 14.6778 76.4459 14.2385 83.7878 15.607C85.3135 15.8756 86.7972 16.3212 87.6823 16.5312Z" fill="#F29A7F"/>
<path d="M79.6357 48.4674C87.4756 50.889 93.4086 56.2239 97.7124 63.6965C102.826 72.4833 104.928 82.1446 105.247 92.2244C105.214 93.1515 105.181 94.0786 104.95 95.0522C104.681 96.5779 103.721 97.472 102.419 97.4434C101.205 97.4359 100.155 96.3452 99.9601 94.803C99.5956 92.0052 99.3197 89.2283 98.9553 86.4304C97.9294 78.1463 95.4544 70.4533 90.717 63.6257C87.9793 59.7971 84.568 56.8371 80.3315 54.9902C72.6132 51.6625 65.3657 52.6539 58.3057 56.4011C50.9171 60.3509 45.3887 66.7054 40.4423 73.7592C38.8805 76.0064 37.3862 78.3631 35.913 80.6313C35.5004 81.1879 35.1764 81.7655 34.6753 82.301C33.8246 83.1276 32.881 83.5581 31.7469 82.8215C30.6128 82.0849 30.4223 80.9177 30.6953 79.7671C31.3045 77.2003 32.5587 75.067 33.792 73.0223C39.7856 63.1318 47.5719 55.5366 57.6188 50.6284C63.5417 47.7332 69.7735 46.6878 76.4238 47.4246C77.507 47.5882 78.5946 48.1268 79.6357 48.4674Z" fill="#BCD1DE"/>
<path d="M17.2357 68.7191C19.6 68.9997 19.1351 67.0194 19.7202 66.1298C20.8274 64.6162 21.7575 63.0606 22.8437 61.6354C23.7994 60.3663 24.6875 58.9877 25.8877 57.8701C27.8291 55.9934 29.3444 53.5482 31.5977 51.9325C32.4948 51.304 33.1429 50.1488 33.9726 49.4108C37.9017 45.8554 41.8099 42.3887 46.2115 39.6C49.32 37.5328 52.5424 35.7733 55.6299 33.7946C56.506 33.2546 57.6432 32.4025 58.9544 33.1812C59.1104 33.3117 59.1524 33.1347 59.2619 33.0671C61.5573 31.2745 64.2666 30.8891 66.997 30.4151C68.9352 30.1271 70.92 30.0372 72.8162 29.9263C74.0509 29.8453 75.3575 30.2489 76.6177 30.4544C79.6225 30.7936 82.758 30.9768 85.5783 32.4876C86.4214 32.8746 87.1339 33.4177 87.956 33.8933C89.3346 34.7814 91.0164 35.1806 92.353 36.2458C93.7106 37.2224 95.1103 38.0221 96.3164 39.2433C97.9905 40.8561 99.1636 43.0043 100.922 44.2631C102.477 45.1932 102.765 47.1315 104.165 47.9312C104.831 48.2762 104.663 48.9843 104.272 49.4524C104.651 49.8229 105.047 49.7299 105.317 50.168C106.064 51.7477 107.161 53.0364 108.257 54.3251C108.637 54.6957 108.599 55.2478 108.781 55.6648C109.853 58.6307 112 61.0101 112.348 64.2715C113.55 65.1177 113.062 66.7784 114.045 67.7596C114.513 68.1511 114.61 68.9222 114.619 69.6723C114.624 70.0473 114.738 70.3549 114.919 70.772C115.843 72.3937 116.173 74.1549 116.394 75.9837C116.445 76.5567 116.319 77.0878 116.787 77.4794C117.702 78.351 117.564 79.7207 117.64 80.5803C117.718 83.4037 118.896 85.927 119.281 88.6364C119.585 90.1111 119.801 91.5648 119.798 93.1535C119.888 95.1382 120.176 97.0765 120.355 99.0822C120.466 100.978 119.662 102.003 117.921 102.245C117.458 102.228 117.02 102.498 116.514 102.659C116.345 101.403 115.017 101.088 114.649 99.8786C114.438 98.8 114.184 97.8983 114.635 96.7897C114.87 96.1912 114.638 95.201 114.3 94.6534C113.828 93.8868 114.177 93.5958 114.704 93.3468C114.215 93.0437 113.949 92.9807 114.117 92.2726C114.234 90.9915 113.976 89.7148 113.234 88.5101C112.964 88.0721 113.001 87.52 113.127 86.989C113.544 86.8074 113.621 87.6671 114.059 87.397C114.189 87.241 114.164 86.9545 113.987 86.9125C112.68 86.5089 112.688 85.2952 112.586 84.1491C112.416 82.8934 112.028 81.7728 111.749 80.5846C111.402 79.2869 111.144 78.0102 111.084 76.6871C111.029 75.739 110.405 75.2169 110.219 74.4248C109.667 72.5485 109.085 70.6653 108.474 68.775C108.128 67.4773 107.204 65.8556 108.269 64.5189C107.931 63.9714 107.747 65.143 107.321 64.5744C106.983 64.0268 107.333 63.7358 107.505 63.4028C107.016 63.0997 106.781 63.6983 106.338 63.5933C106.017 62.5821 106.223 61.3219 105.308 60.4503C104.928 60.0797 105.185 59.3927 105.201 58.9291C104.889 58.6681 104.477 59.2246 104.207 58.7865C103.937 58.3485 104.198 58.0364 104.459 57.7244C103.35 57.2743 102.873 56.1326 102.771 54.9865C102.783 54.1479 102.138 53.7143 101.805 53.5418C100.582 52.7841 99.7978 51.7565 99.4723 50.3703C99.2863 49.5782 98.8393 49.0981 98.4553 48.3525C97.7772 48.846 97.3766 48.564 96.9926 47.8184C96.1826 46.5042 95.002 45.5695 94.0614 44.4113C93.2348 43.5607 92.1052 43.1991 91.5861 42.2345C91.1811 41.5774 90.503 42.0709 89.9675 41.5698C89.0524 40.6982 87.9183 39.9616 86.8937 39.1574C86.0041 38.5723 85.0514 38.2528 84.1243 38.2197C83.1087 38.1657 82.6617 37.6856 82.2102 36.8305C81.8726 36.2829 81.4721 36.0008 80.8615 36.6039C80.1414 37.2744 79.4543 37.0179 78.7838 36.2978C78.3367 35.8177 77.7592 35.4936 77.2791 35.9407C76.9295 36.2317 76.904 35.9452 76.6595 35.7936C76.0819 35.4696 75.3693 34.9265 74.8307 36.0141C74.7002 36.1701 74.5232 36.1281 74.4347 36.1071C72.1589 35.8474 70.0526 36.8435 67.9119 36.8029C65.8596 36.7834 64.1659 37.2229 62.4346 38.2144C62.0176 38.3959 61.7685 37.8693 61.2629 38.0298C61.4489 38.8219 60.9224 39.0709 60.3238 38.8354C59.6577 38.4903 59.3082 38.7814 58.9166 39.2494C58.5041 39.806 57.859 39.3724 57.4209 39.6424C56.1657 40.4665 55.0441 41.3845 54.0559 42.3966C53.9254 42.5526 53.7063 42.6877 53.6178 42.6667C52.7747 42.2796 52.5182 42.9666 52.1731 43.6327C50.5964 42.791 49.9363 44.7848 48.4106 44.5162C48.8621 45.3713 49.2671 46.0284 48.142 46.0419C47.6784 46.0254 47.5989 46.7544 47.1608 47.0245C46.3057 47.476 45.7612 46.2248 45.1086 47.0049C45.5766 47.3965 45.8721 48.121 45.3921 48.5681C44.828 49.3692 43.8379 49.6017 42.9107 49.5686C42.4682 49.4636 42.1141 49.3795 41.9881 49.9106C42.0811 50.3067 42.4982 50.1252 42.6797 50.5422C42.5071 50.8753 41.799 50.7072 42.0735 51.5203C41.1164 50.8257 39.8862 51.2817 39.6342 52.3438C39.6132 52.4324 39.6597 52.6304 39.6387 52.7189C38.839 54.1186 37.7274 55.2572 37.1977 57.0949C36.3877 55.7807 35.9121 56.6028 35.3855 56.8518C35.0149 57.2313 35.8115 57.4203 35.5505 57.7324C35.0029 58.0699 34.9264 57.2103 34.4629 57.1938C33.6332 57.9318 35.2399 59.4351 33.7442 59.8281C33.3481 59.9211 33.4066 59.2805 32.8966 59.066C33.5506 60.2496 32.2995 60.7942 32.5574 62.0708C31.4653 61.1572 30.8757 61.6717 30.2231 62.4518C30.4046 62.8688 30.8637 62.5103 31.1547 62.8599C30.7722 64.078 30.7721 64.078 29.4445 63.7629C28.8969 64.1004 29.3529 65.3306 28.1392 65.323C29.2778 66.4347 27.2721 66.6132 27.9682 67.6198C26.573 67.1952 25.9624 67.7983 26.2204 69.075C24.9647 69.2444 24.6031 70.3741 23.7735 71.1122C24.111 71.6598 24.6121 71.1242 24.8821 71.5622C24.8116 73.0414 22.3243 71.7032 22.6122 73.6414C21.1585 73.8574 20.5735 74.747 20.6634 76.7318C19.6988 77.2508 18.9366 78.0984 18.0605 78.6384C17.795 78.5754 17.9 78.1328 17.4155 78.2048C17.3524 78.4703 17.2684 78.8244 17.1424 79.3555C16.6698 78.5889 15.4021 79.5969 15.3632 78.1852C15.3542 77.4351 15.2777 76.5755 15.3782 75.7579C15.6423 73.8572 16.9266 72.3856 17.0137 70.4428C17.0512 69.8908 18.2648 69.8983 17.2357 68.7191Z" fill="#C8D2B9"/>
<path d="M85.9403 88.4825C86.4713 88.6085 87.2425 88.511 87.166 87.6514C87.136 86.9898 86.6004 86.4888 85.9178 86.6072C85.6853 85.6171 86.7009 85.6712 87.046 85.0051C86.0049 84.6645 85.7094 83.9399 85.5189 82.7728C85.417 81.6266 84.6114 80.6874 84.3324 79.4993C83.8464 77.6075 82.3957 76.2348 81.5602 74.6341C81.3787 74.217 81.4627 73.863 81.4162 73.6649C80.5056 73.1683 79.3805 73.1818 79.2531 71.7491C78.5495 71.9561 77.9554 72.0956 77.5038 71.2405C77.1873 70.6044 76.3697 70.5039 75.7757 70.6434C75.0931 70.7618 74.604 70.4588 74.5065 69.6877C73.2088 70.0342 71.8347 69.5211 71.2481 68.4469C70.579 69.6905 69.7194 69.767 68.6948 68.9629C68.5458 68.8029 68.4278 68.7748 68.3408 68.8789C67.5786 69.7264 66.3185 69.5209 65.4888 70.2589C65.1348 70.1749 65.1258 69.4248 64.5317 69.5643C64.8992 70.7735 64.5962 71.2625 62.877 71.4155C62.3039 71.4664 61.8868 71.648 61.4743 72.2045C60.6701 73.2291 59.6635 73.9252 58.7364 73.8921C54.9798 77.1144 52.2223 80.8542 49.6673 84.9227C49.7603 85.3187 50.0093 85.8453 49.1752 86.2083C48.5601 86.4363 47.9705 86.9509 48.224 87.8525C46.8378 88.178 45.8553 87.1968 44.8982 86.5022C44.0971 85.9381 45.2177 85.5496 45.2553 84.9975C44.3657 84.4124 44.0282 83.8648 44.8323 82.8402C45.3544 82.2162 45.986 81.5246 45.9305 80.5765C46.0145 80.2225 46.2756 79.9104 46.5156 79.6869C46.9957 79.2399 47.5898 79.1004 47.3783 78.0217C47.3273 77.4487 48.1149 76.8876 48.781 77.2327C49.1936 76.6761 48.6415 76.6386 48.616 76.3521C49.4666 75.5255 50.2498 74.5894 50.6114 73.4598C50.9519 72.4186 51.8746 72.0766 52.4642 71.5621C54.3004 70.128 55.9087 68.0788 58.3061 67.4323C58.5041 67.3858 58.6346 67.2298 58.7651 67.0738C58.8281 66.8082 59.0006 66.4752 59.1987 66.4287C61.1579 66.0522 62.5262 64.2265 64.6204 64.0691C65.105 63.9971 65.6781 63.9461 66.2467 63.5201C67.2534 62.824 68.5345 62.9411 69.7946 63.1467C70.9663 63.3312 72.201 63.2503 73.3726 63.4348C74.2112 63.4469 75.2478 63.4124 75.5943 64.7101C76.352 63.4875 77.006 64.6711 77.6256 64.8182C79.8384 65.3433 81.361 67.2006 83.3802 68.1473C84.2233 68.5344 85.0079 69.562 85.4594 70.4172C86.3879 72.414 87.7545 74.1407 88.5946 76.1165C89.0251 77.0601 89.1945 78.3158 90.2402 79.0314C90.8177 79.3555 89.9836 79.7185 90.1231 80.3126C91.0082 80.5227 91.5228 81.1122 91.5362 82.2374C91.4987 82.7894 91.2377 83.1015 90.6181 82.9544C91.0021 83.7 91.8407 83.7121 92.1827 84.6347C92.4827 85.7344 92.5127 86.396 91.413 86.696C91.8181 87.3531 92.1556 87.9006 92.4931 88.4482C92.169 89.0258 91.764 88.3687 91.4145 88.6597C91.1159 89.5238 92.0805 89.0048 92.241 89.5103C91.5674 90.3789 91.7159 91.7231 91.0212 92.6802C91.2703 93.2068 91.7249 92.4732 91.9994 93.2863C92.1268 94.719 91.0782 95.5921 90.0085 96.5536C88.8489 95.5305 87.4117 95.2829 86.4411 93.4631C85.4706 91.6434 85.8067 90.2272 85.9403 88.4825Z" fill="#F29A7F"/>
<path fill-rule="evenodd" clip-rule="evenodd" d="M43.8423 38.9412C43.374 38.0668 44.0193 37.6877 44.4692 37.4234L44.4695 37.4233C44.5144 37.3969 44.5574 37.3716 44.5972 37.3471L44.8329 37.1719C47.1313 35.4632 49.3376 33.823 51.7529 32.4072C56.9464 29.4324 62.2075 26.5671 68.0598 25.1511C71.7128 24.3351 75.4844 24.2017 79.265 24.8184C82.9571 25.4141 86.4813 26.7179 89.791 28.5317C89.8529 28.5601 89.9177 28.5852 89.9832 28.6106C90.3636 28.7578 90.7697 28.9151 90.7992 29.7994C90.173 29.475 89.5766 29.1991 88.9912 28.9281C88.3312 28.6227 87.6851 28.3237 87.026 27.9691C84.9811 26.7358 82.6541 25.9032 80.4878 25.576C76.9937 24.9339 73.3946 24.7342 69.8301 25.5712C66.1771 26.3872 62.5286 27.5783 59.1502 29.2074C55.3548 31.018 51.7409 33.2457 48.2621 35.6925L44.4548 38.3417C44.1472 38.4557 43.9282 38.5908 43.8442 38.9448L43.8438 38.944C41.4483 40.4773 39.3038 42.2801 37.1105 44.1239L37.1104 44.1239L37.1104 44.1239L37.1103 44.1241L37.1101 44.1242C36.3766 44.7408 35.6377 45.362 34.882 45.9793C34.8352 46.0182 34.7896 46.0592 34.7447 46.0995L34.7446 46.0996C34.4543 46.3603 34.1933 46.5945 33.8243 46.1022C34.6983 45.1055 35.7514 44.2586 36.8185 43.4005L36.8186 43.4004L36.8186 43.4004C37.1601 43.1258 37.503 42.8501 37.8419 42.5679L42.2555 38.9406C42.8234 38.5151 43.2611 38.2452 43.8423 38.9412ZM115.547 58.2974C116.364 58.2732 116.543 58.9732 116.695 59.5703C116.735 59.7266 116.773 59.8759 116.82 60.0033C118.132 62.6207 119.304 65.2986 120.338 68.0369C122.547 73.7032 124.25 79.5301 125.448 85.5174C126.155 89.2379 126.685 92.9164 127.106 96.6623C127.157 97.1062 127.158 97.5545 127.16 97.9986L127.16 97.9987C127.161 98.6128 127.163 99.2187 127.298 99.7932C127.323 100.08 127.125 100.126 126.662 100.11C126.53 98.3026 126.33 96.386 126.13 94.4693L126.13 94.4676C125.159 87.1316 123.901 79.8211 121.256 72.8361C119.592 68.421 117.73 64.0524 115.867 59.6837C115.83 59.5978 115.785 59.5101 115.739 59.4205C115.562 59.0753 115.371 58.7025 115.542 58.2976L115.545 58.2975C114.766 57.8598 114.495 57.0747 114.221 56.2805L114.221 56.2804C114.089 55.8979 113.956 55.5133 113.765 55.1643C112.592 53.0159 111.376 51.0447 110.072 49.0524C106.473 43.3365 102.002 38.5358 97.0294 34.2705C96.9222 34.1808 96.8153 34.0912 96.7087 34.0018L96.7078 34.0011C95.1075 32.6594 93.5586 31.3607 91.6656 30.4733C91.6202 30.4452 91.5711 30.4194 91.5207 30.393C91.2994 30.2768 91.0536 30.1478 90.9949 29.7532C91.3637 29.3124 91.7219 29.6155 92.023 29.8703L92.0781 29.9168C95.793 32.3877 99.1373 35.2382 102.419 38.3542C107.328 42.885 110.86 48.4913 114.131 54.4097C114.346 54.8813 114.584 55.3582 114.821 55.8351L114.821 55.8356L114.822 55.8361C115.059 56.313 115.296 56.7899 115.512 57.2616C115.693 57.6783 115.807 57.9857 115.547 58.2974ZM11.6383 71.0366C12.4284 70.5008 12.8575 69.6851 13.2837 68.8749C13.5187 68.4283 13.7528 67.9833 14.046 67.5878C16.7234 63.9224 19.5793 60.424 22.6139 57.0927C23.376 56.2451 24.1771 55.4302 24.9783 54.6152C25.7794 53.8003 26.5806 52.9853 27.3427 52.1377C27.3846 52.0987 27.4245 52.0564 27.4638 52.0145C27.6499 51.8168 27.8251 51.6305 28.1555 51.8629C28.3447 51.0672 28.7571 50.5111 29.3253 50.0853C30.2882 49.4918 31.069 48.7139 31.8385 47.9472C32.4693 47.3188 33.0924 46.698 33.802 46.1925L33.823 46.104C34.0046 46.521 33.8996 46.9636 33.5711 47.1661C33.0981 47.5502 32.6737 47.9925 32.2476 48.4367C31.6302 49.0803 31.0091 49.7276 30.2315 50.2069C29.9578 50.4061 29.7391 50.6945 29.5149 50.9902C29.1837 51.427 28.8405 51.8796 28.2902 52.0836L28.29 52.0833C27.8218 52.5926 27.355 53.0956 26.8905 53.5961C25.6054 54.9809 24.3383 56.3463 23.1076 57.7708C22.2802 58.6964 21.4749 59.6272 20.6697 60.558C19.8644 61.4889 19.0591 62.4198 18.2317 63.3454C17.1129 64.5498 16.1841 65.9278 15.2588 67.3003C14.4186 68.5468 13.5813 69.7889 12.6074 70.8927C12.5612 70.9357 12.5151 70.9927 12.4673 71.0518C12.2671 71.2994 12.0369 71.5841 11.6384 71.037C11.914 72.3342 11.2712 73.1437 10.6211 73.9623C10.3338 74.3241 10.045 74.6877 9.83353 75.096C9.66838 74.2154 9.99244 73.6378 10.4936 73.1023C11.1042 72.4993 11.5377 71.8543 11.6383 71.0368C11.6382 71.0368 11.6382 71.0367 11.6381 71.0367C11.6382 71.0366 11.6383 71.0366 11.6383 71.0366ZM11.6383 71.0365C11.6383 71.0365 11.6383 71.0366 11.6383 71.0366L11.6383 71.0365Z" fill="#F29A7F"/>
</svg>
