<svg width="24" height="37" viewBox="0 0 24 37" fill="none" xmlns="http://www.w3.org/2000/svg">
<path d="M24 18.4529C18.0904 20.1476 16.0402 24.1018 14.593 28.2443C13.6281 31.0687 13.2663 34.0814 12.4221 37C12.1809 35.8702 12.0603 34.6463 11.8191 33.4224C11.0955 29.2799 10.1307 25.1374 6.8744 21.6539C5.42716 20.0534 3.49749 18.6412 0.603016 18.7353C0.482413 18.7353 0.36181 18.6412 0 18.4529C1.92965 18.3588 3.73869 18.0764 5.18592 17.1349C8.80402 14.8753 10.4925 11.6743 11.5779 8.19085C12.3015 5.55472 11.9397 2.73028 12.5427 0C12.9045 1.7888 13.3869 3.5776 13.3869 5.46055C13.3869 9.13231 15.0754 12.4275 17.7287 15.4402C19.2965 17.0407 21.2261 18.0763 24 18.4529Z" fill="#A5B292"/>
</svg>
