<svg width="25" height="24" viewBox="0 0 25 24" fill="none" xmlns="http://www.w3.org/2000/svg">
<path fill-rule="evenodd" clip-rule="evenodd" d="M3.3335 10.9821C3.3335 7.1413 3.3335 5.22037 4.5272 4.02769C5.7209 2.835 7.64081 2.83398 11.4816 2.83398H13.5187C17.3595 2.83398 19.2804 2.83398 20.4731 4.02769C21.6658 5.22139 21.6668 7.1413 21.6668 10.9821V13.0192C21.6668 16.86 21.6668 18.7809 20.4731 19.9736C19.2794 21.1663 17.3595 21.1673 13.5187 21.1673H11.4816C7.64081 21.1673 5.71988 21.1673 4.5272 19.9736C3.33451 18.7799 3.3335 16.86 3.3335 13.0192V10.9821ZM18.6113 7.41732C18.6113 7.82251 18.4503 8.21111 18.1638 8.49762C17.8773 8.78413 17.4887 8.9451 17.0835 8.9451C16.6783 8.9451 16.2897 8.78413 16.0032 8.49762C15.7167 8.21111 15.5557 7.82251 15.5557 7.41732C15.5557 7.01213 15.7167 6.62353 16.0032 6.33702C16.2897 6.0505 16.6783 5.88954 17.0835 5.88954C17.4887 5.88954 17.8773 6.0505 18.1638 6.33702C18.4503 6.62353 18.6113 7.01213 18.6113 7.41732ZM14.5372 13.0192C14.5372 13.5594 14.3226 14.0776 13.9406 14.4596C13.5585 14.8416 13.0404 15.0562 12.5002 15.0562C11.9599 15.0562 11.4418 14.8416 11.0598 14.4596C10.6777 14.0776 10.4631 13.5594 10.4631 13.0192C10.4631 12.4789 10.6777 11.9608 11.0598 11.5788C11.4418 11.1967 11.9599 10.9821 12.5002 10.9821C13.0404 10.9821 13.5585 11.1967 13.9406 11.5788C14.3226 11.9608 14.5372 12.4789 14.5372 13.0192ZM16.5742 13.0192C16.5742 14.0997 16.145 15.1359 15.381 15.9C14.6169 16.664 13.5807 17.0932 12.5002 17.0932C11.4197 17.0932 10.3834 16.664 9.61936 15.9C8.85532 15.1359 8.42609 14.0997 8.42609 13.0192C8.42609 11.9387 8.85532 10.9024 9.61936 10.1384C10.3834 9.37433 11.4197 8.9451 12.5002 8.9451C13.5807 8.9451 14.6169 9.37433 15.381 10.1384C16.145 10.9024 16.5742 11.9387 16.5742 13.0192Z" fill="#484343"/>
</svg>
