<svg width="48" height="48" viewBox="0 0 48 48" fill="none" xmlns="http://www.w3.org/2000/svg">
<path fill-rule="evenodd" clip-rule="evenodd" d="M30.0316 11.2823C32.0087 10.6431 34.2898 10.6556 36.1541 11.6113C40.4593 13.8234 42.3237 19.5261 40.5909 25.5671C39.8139 28.2775 38.4446 30.9095 35.5494 33.5634C32.6542 36.2205 28.6373 37.7871 26.7761 37.7871C26.6194 37.7896 26.4639 37.7612 26.3183 37.7034C26.1726 37.6457 26.0399 37.5598 25.9275 37.4506C25.8151 37.3415 25.7254 37.2112 25.6635 37.0673C25.6016 36.9235 25.5686 36.7688 25.5666 36.6121C25.5666 35.9635 26.1181 35.4371 26.7761 35.4371C28.9036 35.4371 30.8055 34.2778 33.0584 32.5733C34.7817 31.2667 36.1291 29.5966 36.8717 28.1427C38.2973 25.3603 38.3443 21.4374 36.0413 20.394C35.5067 21.0009 34.8477 21.4856 34.1092 21.8154C33.3707 22.1452 32.57 22.3123 31.7612 22.3053C28.0012 22.3053 25.7859 19.2817 25.8831 16.5431C25.9739 13.9268 27.6377 12.0625 30.0316 11.2823ZM11.2316 11.2823C13.2087 10.6431 15.4898 10.6556 17.3541 11.6113C21.6593 13.8234 23.5237 19.5261 21.7909 25.5671C21.0139 28.2775 19.6446 30.9095 16.7494 33.5634C13.8542 36.2205 9.83727 37.7871 7.97607 37.7871C7.81944 37.7896 7.66387 37.7612 7.51825 37.7034C7.37264 37.6457 7.23985 37.5598 7.1275 37.4506C7.01514 37.3415 6.92543 37.2112 6.8635 37.0673C6.80157 36.9235 6.76864 36.7688 6.7666 36.6121C6.7666 35.9635 7.31807 35.4371 7.97607 35.4371C10.1036 35.4371 12.0055 34.2778 14.2584 32.5733C15.9817 31.2667 17.3291 29.5966 18.0717 28.1427C19.4973 25.3603 19.5443 21.4374 17.2413 20.394C16.1353 21.6035 14.6908 22.3053 12.9612 22.3053C9.2012 22.3053 6.98594 19.2817 7.08307 16.5431C7.17394 13.9268 8.83773 12.0625 11.2316 11.2823Z" fill="#FBEFE1"/>
</svg>
