<svg width="154" height="107" viewBox="0 0 154 107" fill="none" xmlns="http://www.w3.org/2000/svg">
<path d="M70.2091 14.6281C80.0007 13.4129 89.0047 14.9779 97.8543 18.8119C108.754 23.5003 118.196 30.4639 126.876 38.6191C136.027 47.2296 143.844 56.9709 150.938 67.243C151.122 67.5132 151.305 67.7835 151.489 68.0537C152.245 69.378 152.093 70.8083 151.054 71.5947C150.016 72.3811 148.547 72.0513 147.524 70.7854C146.374 69.3612 145.293 67.8287 144.142 66.4046C134.873 54.2811 124.762 42.994 112.602 33.8322C103.662 27.0379 94.0567 21.8796 83.178 20.2599C71.7272 18.5793 61.8615 21.5802 53.2278 28.5019C47.0565 33.4868 42.3716 39.7291 38.4146 46.7431C30.5395 60.9488 26.4392 76.6552 23.6695 92.9081C23.1072 96.2909 22.4366 99.6043 21.7855 103.007C21.536 103.993 21.2476 104.801 20.6731 105.579C20.168 106.248 19.4961 106.582 18.599 106.313C17.7213 106.133 17.1212 105.519 16.8375 104.65C16.398 103.07 16.4418 101.57 16.5744 100.051C18.3046 81.6049 23.0511 64.1736 30.9614 48.0045C35.0705 39.5602 40.4102 32.0568 47.2558 25.8997C52.7856 20.9623 59.0908 17.438 66.2993 15.4852C67.7904 15.0652 69.3205 14.8229 70.2091 14.6281Z" fill="#F29A7F"/>
<path d="M76.8165 46.8927C84.9306 45.6727 92.5909 47.9048 99.7108 52.7699C108.131 58.4675 114.216 66.2601 118.877 75.2031C119.25 76.0527 119.622 76.9024 119.837 77.8798C120.257 79.3709 119.78 80.593 118.594 81.1323C117.497 81.6521 116.078 81.1252 115.233 79.8203C113.691 77.4577 112.237 75.0756 110.695 72.7129C106.176 65.6944 100.608 59.8373 93.3776 55.7415C89.2497 53.48 84.8919 52.2933 80.2737 52.4676C71.8758 52.8185 65.7763 56.8565 61.0415 63.2959C56.0985 70.0604 53.875 78.1844 52.4791 86.6858C52.0471 89.3881 51.7234 92.1598 51.3803 94.8427C51.25 95.5231 51.2087 96.1841 50.9896 96.884C50.5819 97.9978 49.9185 98.7952 48.5771 98.6236C47.2357 98.452 46.5576 97.4831 46.3044 96.328C45.7395 93.7511 45.9438 91.2849 46.1677 88.9076C47.2762 77.396 50.9957 67.1745 57.9179 58.393C61.9979 53.2146 67.1589 49.5687 73.4702 47.3469C74.5171 47.0243 75.7307 47.0376 76.8165 46.8927Z" fill="#BCD1DE"/>
<path d="M29.3842 92.2145C31.6361 91.4414 30.3579 89.859 30.4991 88.8037C30.8398 86.9595 31.0029 85.1543 31.3631 83.399C31.6735 81.8409 31.8754 80.2135 32.4718 78.6858C33.4066 76.1527 33.7108 73.2921 35.0399 70.8587C35.5755 69.9032 35.6582 68.5812 36.0854 67.5563C38.0827 62.6482 40.0995 57.829 42.8552 53.4066C44.7589 50.1954 46.8986 47.2119 48.8218 44.0895C49.3768 43.2228 50.0317 41.9617 51.5508 42.0943C51.748 42.1442 51.709 41.9665 51.7784 41.8582C53.0686 39.2471 55.3423 37.7242 57.5966 36.1125C59.218 35.012 60.9671 34.0698 62.6274 33.147C63.7047 32.5384 65.057 32.335 66.2815 31.9734C69.136 30.9752 72.0403 29.7797 75.2368 29.9171C76.1644 29.9 77.042 30.0801 77.989 30.1519C79.6165 30.3539 81.3049 29.9838 82.9713 30.3635C84.6183 30.6544 86.2263 30.7675 87.8428 31.3444C90.0509 32.071 92.0399 33.4975 94.1702 33.8687C95.9753 34.0317 97.0758 35.6531 98.6838 35.7662C99.4337 35.7881 99.5895 36.499 99.4398 37.0906C99.9425 37.2597 100.259 37.0041 100.692 37.2816C102.051 38.3807 103.598 39.066 105.145 39.7513C105.648 39.9204 105.854 40.4341 106.198 40.7311C108.451 42.9379 111.418 44.1501 113.147 46.9376C114.596 47.1785 114.878 48.8864 116.189 49.344C116.78 49.4937 117.203 50.1461 117.536 50.818C117.703 51.154 117.939 51.3816 118.284 51.6786C119.82 52.7388 120.881 54.1823 121.873 55.7343C122.168 56.2285 122.285 56.7616 122.876 56.9113C124.079 57.2996 124.549 58.5936 124.991 59.3348C126.286 61.8448 128.442 63.6073 129.965 65.881C130.879 67.0776 131.704 68.2935 132.391 69.7262C133.333 71.4754 134.434 73.0967 135.465 74.8264C136.388 76.4867 136.108 77.7587 134.645 78.7314C134.22 78.9176 133.942 79.351 133.556 79.715C132.859 78.6572 131.526 78.9494 130.67 78.0194C130.012 77.1394 129.392 76.4371 129.316 75.2429C129.269 74.6015 128.63 73.8103 128.088 73.4634C127.33 72.9777 127.518 72.5638 127.885 72.111C127.313 72.0502 127.046 72.1086 126.89 71.3977C126.44 70.1927 125.654 69.1544 124.462 68.3912C124.028 68.1137 123.823 67.6001 123.706 67.0669C124.003 66.7224 124.445 67.4637 124.722 67.0304C124.772 66.8332 124.625 66.5861 124.447 66.625C123.095 66.8284 122.575 65.7316 121.986 64.7432C121.288 63.6854 120.452 62.8444 119.685 61.8949C118.81 60.8761 118.023 59.8379 117.395 58.6718C116.934 57.8416 116.145 57.642 115.634 57.0091C114.322 55.5581 112.981 54.1137 111.611 52.6758C110.735 51.657 109.199 50.5969 109.579 48.9304C109.037 48.5835 109.379 49.7192 108.749 49.3918C108.207 49.0449 108.396 48.631 108.407 48.2561C107.834 48.1953 107.882 48.8368 107.438 48.9342C106.71 48.1624 106.348 46.9379 105.146 46.5496C104.643 46.3804 104.576 45.6501 104.39 45.2253C103.995 45.1255 103.865 45.8059 103.432 45.5284C102.998 45.2509 103.098 44.8565 103.198 44.4621C102.004 44.5376 101.079 43.716 100.489 42.7276C100.136 41.9669 99.367 41.8561 98.9921 41.8452C97.5618 41.6931 96.409 41.1077 95.5143 40C95.003 39.367 94.3919 39.1285 93.7224 38.6233C93.3256 39.3622 92.8424 39.2819 92.1729 38.7768C90.8728 37.9443 89.4036 37.6144 88.0536 36.9791C86.9398 36.5713 85.7651 36.7357 84.8789 36.0918C84.2289 35.6755 83.8322 36.4144 83.1322 36.1954C81.9296 35.8071 80.5881 35.6355 79.3161 35.3556C78.2607 35.2145 77.2638 35.3399 76.4141 35.7124C75.4757 36.1044 74.8646 35.8659 74.0868 35.2913C73.5451 34.9445 73.0618 34.8641 72.7734 35.6724C72.4155 36.589 71.6852 36.656 70.7686 36.2981C70.1575 36.0596 69.4965 36.0182 69.258 36.6293C69.0693 37.0432 68.922 36.7961 68.6359 36.7657C67.975 36.7243 67.0973 36.5442 67.084 37.7578C67.0341 37.955 66.8564 37.9939 66.7675 38.0134C64.6045 38.767 63.139 40.5783 61.1926 41.4707C59.3352 42.3435 57.9999 43.4744 56.8703 45.119C56.5733 45.4635 56.1205 45.0971 55.7346 45.4611C56.2459 46.094 55.8795 46.5468 55.238 46.5943C54.4882 46.5724 54.2996 46.9863 54.1499 47.5779C54.0197 48.2584 53.2503 48.1476 52.9728 48.581C52.1995 49.8681 51.5873 51.1819 51.1361 52.5225C51.0862 52.7197 50.9475 52.9364 50.8586 52.9559C49.931 52.973 49.998 53.7033 49.9762 54.4531C48.1904 54.379 48.4608 56.4617 46.9697 56.8817C47.7475 57.4562 48.3975 57.8725 47.3896 58.3729C46.9648 58.5591 47.2095 59.2505 46.932 59.6838C46.3575 60.4617 45.324 59.5707 45.0745 60.5567C45.6661 60.7064 46.2468 61.231 46.0082 61.842C45.8476 62.8086 45.0564 63.4477 44.2068 63.8202C43.7625 63.9176 43.407 63.9955 43.5239 64.5286C43.7796 64.8451 44.0766 64.5006 44.4211 64.7976C44.4101 65.1725 43.6992 65.3284 44.2994 65.9418C43.1357 65.7313 42.2252 66.6759 42.4589 67.7422C42.4784 67.8311 42.6063 67.9893 42.6258 68.0782C42.5126 69.6862 42.0051 71.1944 42.3253 73.0799C41.0252 72.2474 40.9535 73.1944 40.5871 73.6472C40.4179 74.15 41.2176 73.9746 41.1178 74.369C40.7709 74.9107 40.329 74.1694 39.9042 74.3557C39.477 75.3806 41.5768 76.0379 40.3998 77.0409C40.0833 77.2966 39.858 76.6941 39.3054 76.7221C40.4083 77.5047 39.5173 78.5382 40.3037 79.5765C38.9233 79.2272 38.6154 79.9466 38.3659 80.9326C38.7104 81.2296 38.9684 80.7074 39.3823 80.896C39.5662 82.1595 39.5661 82.1595 38.2332 82.4517C37.8863 82.9934 38.831 83.9039 37.7343 84.4237C39.2425 84.9312 37.5128 85.9623 38.5767 86.5672C37.1355 86.79 36.847 87.5983 37.6334 88.6366C36.5757 89.3341 36.7401 90.5088 36.3129 91.5338C36.8545 91.8807 37.0736 91.1807 37.507 91.4582C38.0852 92.8215 35.2636 92.6951 36.3641 94.3164C35.1481 95.1418 35.0069 96.1971 35.9491 97.9463C35.3052 98.8325 34.9864 99.9268 34.4314 100.794C34.1648 100.852 34.0674 100.408 33.662 100.683C33.7205 100.949 33.7984 101.305 33.9153 101.838C33.1569 101.352 32.4522 102.811 31.8045 101.556C31.471 100.884 31.0291 100.142 30.7649 99.3622C30.1781 97.5351 30.6966 95.652 29.9321 93.8639C29.7263 93.3502 30.823 92.8304 29.3842 92.2145Z" fill="#C8D2B9"/>
<path d="M99.8593 80.2098C100.392 80.0929 101.045 79.6705 100.603 78.9292C100.289 78.3461 99.589 78.1271 99.0254 78.53C98.3863 77.7388 99.3248 77.3468 99.3467 76.597C98.2609 76.7419 97.6803 76.2173 97.0023 75.2484C96.4131 74.26 95.2797 73.7634 94.5128 72.814C93.2541 71.3205 91.3515 70.7131 89.9042 69.6335C89.5597 69.3365 89.4818 68.981 89.354 68.8228C88.3181 68.7705 87.3102 69.2708 86.5737 68.0354C86.0296 68.5271 85.5549 68.9106 84.7771 68.3361C84.2159 67.9004 83.4357 68.1645 82.9609 68.548C82.3974 68.9509 81.8252 68.8901 81.4028 68.2376C80.384 69.1129 78.9233 69.2469 77.9288 68.5336C77.8655 69.9444 77.1243 70.3863 75.8522 70.1064C75.6485 70.0269 75.53 70.0528 75.4968 70.1843C75.1779 71.2786 73.9534 71.6402 73.5261 72.6652C73.1707 72.7431 72.8371 72.0712 72.3624 72.4546C73.2182 73.3846 73.1574 73.9566 71.6748 74.8404C71.1806 75.135 70.8836 75.4795 70.7534 76.16C70.4735 77.432 69.8685 78.4959 69.0189 78.8685C67.0325 83.4016 66.1709 87.9675 65.6343 92.7416C65.8899 93.0581 66.3428 93.4245 65.7488 94.1135C65.2936 94.5858 64.9856 95.3052 65.6052 96.0075C64.4976 96.9023 63.1866 96.4446 62.0229 96.2341C61.0564 96.0735 61.8975 95.2372 61.6917 94.7235C60.6364 94.5823 60.0947 94.2354 60.3746 92.9634C60.5742 92.1746 60.8431 91.2775 60.3818 90.4474C60.3038 90.0919 60.4037 89.6975 60.5229 89.392C60.7615 88.7809 61.2362 88.3974 60.5776 87.5174C60.283 87.0232 60.7492 86.176 61.499 86.1978C61.6292 85.5174 61.1156 85.7232 60.9683 85.4761C61.376 84.3623 61.6754 83.179 61.511 82.0044C61.3661 80.9186 62.049 80.2101 62.3569 79.4907C63.3891 77.4019 63.9489 74.8578 65.8283 73.2351C65.9865 73.1073 66.0364 72.9101 66.0863 72.7129C66.0278 72.4464 66.0388 72.0715 66.197 71.9436C67.7989 70.7543 68.2394 68.5157 70.058 67.4652C70.4633 67.1901 70.9575 66.8954 71.2849 66.2649C71.8899 65.201 73.0949 64.7506 74.3194 64.389C75.4551 64.0469 76.5324 63.4382 77.6681 63.0961C78.4288 62.7431 79.3479 62.2622 80.2231 63.281C80.3752 61.8508 81.4781 62.6334 82.1001 62.497C84.3216 62.01 86.4993 63.0227 88.7293 62.9995C89.6568 62.9824 90.8096 63.5679 91.5874 64.1424C93.2904 65.5385 95.2709 66.5012 96.8851 67.9168C97.6824 68.5802 98.3799 69.638 99.6325 69.829C100.293 69.8704 99.6995 70.5594 100.083 71.0341C100.972 70.8393 101.691 71.1472 102.191 72.1551C102.397 72.6688 102.297 73.0632 101.675 73.1995C102.345 73.7046 103.105 73.3516 103.814 74.0345C104.561 74.8951 104.875 75.4781 104.015 76.2256C104.665 76.6418 105.207 76.9887 105.748 77.3356C105.707 77.9966 105.057 77.5803 104.868 77.9942C104.974 78.9022 105.618 78.0161 105.982 78.4019C105.752 79.4768 106.469 80.6234 106.259 81.7871C106.711 82.1535 106.803 81.2953 107.403 81.9087C108.139 83.1442 107.573 84.3858 107.027 85.7163C105.538 85.2977 104.136 85.6982 102.472 84.4798C100.808 83.2614 100.496 81.8397 99.8593 80.2098Z" fill="#F29A7F"/>
<path fill-rule="evenodd" clip-rule="evenodd" d="M40.4275 53.8382C39.6315 53.2544 40.0476 52.6342 40.3379 52.2015C40.367 52.1581 40.3948 52.1166 40.4201 52.0772L40.5564 51.8171L40.5565 51.8169C41.8862 49.2803 43.1626 46.8452 44.7247 44.5217C48.1138 39.5881 51.6112 34.7238 56.2698 30.9087C59.2072 28.5885 62.5475 26.8318 66.2213 25.7471C69.8062 24.6818 73.547 24.3273 77.3156 24.5255C77.3838 24.5242 77.453 24.5187 77.523 24.5131C77.9296 24.4807 78.3637 24.4462 78.7739 25.2302C78.069 25.2096 77.412 25.2197 76.767 25.2296C76.0399 25.2408 75.3281 25.2518 74.5804 25.2183C72.203 24.9945 69.7454 25.2539 67.6516 25.8991C64.2249 26.8366 60.8956 28.2184 58.0471 30.5191C55.1097 32.8393 52.3391 35.4955 50.0018 38.4291C47.3675 41.7073 45.0776 45.2824 43.0045 48.9963L40.7232 53.0351C40.496 53.2708 40.3573 53.4871 40.4342 53.8412L40.4366 53.8423C38.9432 56.2633 37.7929 58.8183 36.6165 61.4314L36.6165 61.4314L36.6165 61.4314C36.2231 62.3054 35.8267 63.1858 35.4136 64.0699C35.3883 64.1254 35.3649 64.1821 35.342 64.2379L35.3419 64.238C35.1934 64.5988 35.0599 64.9231 34.5139 64.6396C34.869 63.3624 35.4505 62.1425 36.0397 60.9062L36.0397 60.9062L36.0398 60.906C36.2283 60.5105 36.4176 60.1133 36.6006 59.7121L39.0037 54.5289C39.33 53.9007 39.6067 53.4682 40.4275 53.8382ZM113.433 40.1694C114.162 39.7882 114.627 40.3428 115.024 40.8158L115.024 40.8159L115.024 40.8159C115.128 40.9395 115.227 41.0574 115.325 41.1516C117.642 42.9408 119.86 44.8448 121.979 46.8637C126.427 51.0105 130.489 55.5214 134.165 60.3962C136.416 63.4416 138.489 66.526 140.493 69.7187C140.732 70.096 140.927 70.4992 141.121 70.8986L141.121 70.8991L141.121 70.8993C141.389 71.4518 141.653 71.997 142.024 72.4562C142.171 72.7033 142.013 72.8311 141.588 73.0173C140.685 71.4464 139.674 69.8061 138.663 68.1657L138.662 68.1654L138.662 68.1644C134.604 61.9762 130.3 55.9353 124.888 50.7891C121.473 47.5332 117.9 44.4051 114.328 41.277C114.257 41.2158 114.178 41.1563 114.098 41.0955C113.789 40.8612 113.455 40.6082 113.433 40.1694ZM111.362 38.9263C111.954 39.5232 112.539 40.1133 113.432 40.1691C113.532 39.7747 113.295 39.547 112.951 39.2501C112.552 38.9184 112.131 38.5916 111.711 38.2649C111.29 37.938 110.869 37.6112 110.47 37.2795C104.956 33.3666 99.3419 29.848 92.9536 27.896C88.6457 26.5123 84.3961 25.3952 79.9774 24.7808L79.9075 24.7628C79.5257 24.6639 79.0715 24.5462 78.9305 25.1034C79.1545 25.4335 79.4319 25.4431 79.6817 25.4517C79.7386 25.4537 79.794 25.4556 79.8471 25.4612C81.9375 25.4394 83.8963 25.9374 85.92 26.4519L85.9205 26.452C86.0556 26.4863 86.191 26.5207 86.3267 26.5551C92.6566 28.2405 98.7673 30.6258 104.49 34.2138C106.529 35.4431 108.479 36.6918 110.468 38.1182C110.791 38.35 111.077 38.6389 111.362 38.9263ZM25.3441 96.7318C25.8236 95.9062 25.8564 94.985 25.889 94.07C25.9069 93.5657 25.9248 93.0632 26.0174 92.5796C26.8397 88.1155 27.8953 83.7245 29.1842 79.4064C29.5032 78.3121 29.8715 77.2302 30.2398 76.1484L30.2399 76.1483C30.6082 75.0664 30.9765 73.9846 31.2954 72.8903C31.3163 72.837 31.3338 72.7816 31.3511 72.7268C31.4329 72.4681 31.5099 72.2245 31.9075 72.29C31.7326 71.4907 31.8629 70.8106 32.1903 70.1803C32.8004 69.2277 33.1664 68.1881 33.5271 67.1635C33.8228 66.3236 34.115 65.4939 34.535 64.7306L34.5156 64.6417C34.8601 64.9387 34.9574 65.383 34.7493 65.708C34.4898 66.2592 34.2993 66.8419 34.108 67.427C33.8309 68.2747 33.5521 69.1275 33.0595 69.8967C32.8993 70.1949 32.8273 70.5497 32.7536 70.9133C32.6447 71.4502 32.5319 72.0064 32.1254 72.4288L32.1257 72.429C31.9246 73.0914 31.7221 73.7475 31.5206 74.4003L31.5205 74.4005L31.5205 74.4007L31.5205 74.4008L31.5205 74.4008C30.9634 76.206 30.414 77.9858 29.9232 79.8032C29.5792 80.9961 29.2575 82.1841 28.9358 83.3721L28.9358 83.3722L28.9357 83.3723C28.614 84.5603 28.2923 85.7483 27.9484 86.9412C27.4628 88.5119 27.2236 90.1564 26.9854 91.7945C26.7691 93.2821 26.5535 94.7645 26.1549 96.1815C26.1319 96.2403 26.1151 96.3116 26.0977 96.3856C26.0248 96.695 25.941 97.0508 25.3473 96.7335C26.1563 97.7819 25.9284 98.7894 25.698 99.8083C25.596 100.259 25.4936 100.712 25.4802 101.171C24.9494 100.45 24.9908 99.7886 25.21 99.0887C25.4984 98.2811 25.6093 97.5123 25.3459 96.7327C25.3453 96.7324 25.3447 96.7321 25.3441 96.7318Z" fill="#F29A7F"/>
</svg>
