<svg width="56" height="61" viewBox="0 0 56 61" fill="none" xmlns="http://www.w3.org/2000/svg">
<path d="M55.9394 29.8238C55.7432 28.6004 54.9773 27.5063 54.0339 26.8499C52.857 26.0442 51.456 25.7956 50.083 25.6563C45.6369 25.1888 41.1162 25.3082 36.801 26.3625C40.5558 23.856 43.8249 20.5439 46.6644 16.8637C47.5424 15.7298 48.3643 14.4965 48.6632 13.0343C48.8967 11.8706 48.7099 10.508 48.0374 9.50339C47.9565 9.38403 47.8693 9.27462 47.7759 9.17515C47.6825 9.07569 47.5797 8.98286 47.4677 8.89665C46.5243 8.18051 45.2447 7.98159 44.1518 8.2402C42.7788 8.54853 41.6206 9.43376 40.5651 10.3588C37.1092 13.3825 33.9895 16.8637 31.6358 20.8621C32.6352 16.2669 32.7379 11.4529 32.3083 6.7184C32.1682 5.25628 31.944 3.76432 31.1781 2.51108C30.5616 1.5065 29.5342 0.690896 28.3853 0.482023C28.2546 0.455499 28.1207 0.445554 27.9837 0.452185C27.8529 0.445554 27.719 0.455499 27.582 0.482023C26.4425 0.690896 25.4057 1.5065 24.7986 2.51108C24.0327 3.76432 23.7992 5.25628 23.6684 6.7184C23.2294 11.4529 23.3415 16.2669 24.3316 20.8621C21.9872 16.8637 18.8675 13.3825 15.4116 10.3588C14.3468 9.43376 13.1979 8.54853 11.8249 8.2402C10.7227 7.99154 9.45243 8.18051 8.49972 8.89665C8.39386 8.98286 8.29423 9.07569 8.20083 9.17515C8.1012 9.27462 8.01402 9.38403 7.9393 9.50339C7.26679 10.508 7.07998 11.8706 7.31349 13.0343C7.60304 14.4965 8.43434 15.7298 9.30299 16.8637C12.1425 20.5439 15.4116 23.856 19.1757 26.3625C14.8512 25.3082 10.3398 25.1888 5.88442 25.6563C4.52073 25.7956 3.11968 26.0442 1.94279 26.8499C0.999418 27.5063 0.224169 28.6004 0.0373615 29.8238C0.0124539 29.9631 0 30.1056 0 30.2515C0 30.3908 0.0124539 30.5333 0.0373615 30.6792C0.224169 31.8927 0.999418 32.9967 1.94279 33.6432C3.11968 34.4588 4.52073 34.7075 5.88442 34.8467C10.3398 35.3142 14.8512 35.1949 19.1757 34.1406C15.4116 36.6371 12.1425 39.9592 9.30299 43.6393C8.43434 44.7732 7.60304 45.9966 7.31349 47.4588C7.07998 48.6324 7.26679 49.9851 7.9393 50.9997C8.01402 51.1124 8.1012 51.2218 8.20083 51.3279C8.29423 51.4274 8.39386 51.5169 8.49972 51.5964C9.45243 52.3126 10.7227 52.5115 11.8249 52.2629C13.1979 51.9545 14.3468 51.0693 15.4116 50.1443C18.8675 47.1206 21.9872 43.6393 24.3316 39.631C23.3415 44.2361 23.2294 49.0502 23.6684 53.7846C23.7992 55.2368 24.0327 56.7387 24.7986 57.992C25.4057 58.9866 26.4425 59.8122 27.582 60.021C27.719 60.0409 27.8529 60.0509 27.9837 60.0509C28.1207 60.0509 28.2546 60.0409 28.3853 60.021C29.5342 59.8122 30.5616 58.9866 31.1781 57.992C31.944 56.7387 32.1682 55.2368 32.3083 53.7846C32.7379 49.0502 32.6352 44.2361 31.6358 39.631C33.9895 43.6393 37.1092 47.1206 40.5651 50.1443C41.6206 51.0693 42.7788 51.9545 44.1518 52.2629C45.254 52.5115 46.5243 52.3126 47.4677 51.5964C47.5797 51.5169 47.6825 51.4274 47.7759 51.3279C47.8693 51.2218 47.9565 51.1124 48.0374 50.9997C48.7099 49.9851 48.8967 48.6324 48.6632 47.4588C48.3643 45.9966 47.5424 44.7732 46.6644 43.6393C43.8249 39.9592 40.5558 36.6371 36.801 34.1406C41.1162 35.1949 45.6369 35.3142 50.083 34.8467C51.456 34.7075 52.857 34.4588 54.0339 33.6432C54.9773 32.9967 55.7432 31.8927 55.9394 30.6792C55.9643 30.5333 55.9767 30.3908 55.9767 30.2515C55.9767 30.1056 55.9643 29.9631 55.9394 29.8238Z" fill="#C8D2B9"/>
<path d="M35.2137 30.2571C35.2137 34.5042 31.982 37.9556 27.9843 37.9556C23.996 37.9556 20.7549 34.5042 20.7549 30.2571C20.7549 26 23.996 22.5586 27.9843 22.5586C31.982 22.5586 35.2137 26 35.2137 30.2571Z" fill="#FBEFE1"/>
</svg>
