<svg width="65" height="62" viewBox="0 0 65 62" fill="none" xmlns="http://www.w3.org/2000/svg">
<path d="M64.4338 30.5561C64.2079 29.2835 63.3262 28.1453 62.2401 27.4624C60.8852 26.6243 59.2722 26.3657 57.6914 26.2208C52.5729 25.7345 47.3683 25.8587 42.4002 26.9554C46.7231 24.3481 50.4867 20.9026 53.7557 17.0743C54.7665 15.8947 55.7128 14.6117 56.0569 13.0908C56.3258 11.8802 56.1107 10.4627 55.3365 9.41764C55.2433 9.29348 55.1429 9.17966 55.0354 9.07619C54.9278 8.97273 54.8095 8.87616 54.6805 8.78649C53.5944 8.04152 52.1212 7.83458 50.8631 8.1036C49.2823 8.42435 47.9489 9.34521 46.7338 10.3075C42.7551 13.4529 39.1635 17.0743 36.4537 21.2337C37.6043 16.4535 37.7225 11.4456 37.2279 6.52054C37.0666 4.99957 36.8085 3.44754 35.9267 2.14385C35.217 1.09882 34.0342 0.250391 32.7115 0.0331086C32.561 0.00551715 32.4068 -0.00482837 32.2491 0.00206949C32.0986 -0.00482837 31.9444 0.00551715 31.7867 0.0331086C30.4748 0.250391 29.2812 1.09882 28.5822 2.14385C27.7005 3.44754 27.4316 4.99957 27.2811 6.52054C26.7757 11.4456 26.9047 16.4535 28.0446 21.2337C25.3455 17.0743 21.7539 13.4529 17.7752 10.3075C16.5493 9.34521 15.2266 8.42435 13.6459 8.1036C12.377 7.84493 10.9146 8.04152 9.81773 8.78649C9.69586 8.87616 9.58116 8.97273 9.47363 9.07619C9.35892 9.17966 9.25856 9.29348 9.17253 9.41764C8.3983 10.4627 8.18323 11.8802 8.45206 13.0908C8.78541 14.6117 9.74246 15.8947 10.7425 17.0743C14.0115 20.9026 17.7752 24.3481 22.1088 26.9554C17.13 25.8587 11.9361 25.7345 6.80681 26.2208C5.23682 26.3657 3.62383 26.6243 2.26891 27.4624C1.18283 28.1453 0.290306 29.2835 0.0752399 30.5561C0.0465645 30.701 0.0322266 30.8493 0.0322266 31.001C0.0322266 31.1459 0.0465645 31.2942 0.0752399 31.4459C0.290306 32.7083 1.18283 33.8567 2.26891 34.5293C3.62383 35.3777 5.23682 35.6364 6.80681 35.7812C11.9361 36.2675 17.13 36.1434 22.1088 35.0466C17.7752 37.6437 14.0115 41.0995 10.7425 44.9278C9.74246 46.1073 8.78541 47.38 8.45206 48.901C8.18323 50.1219 8.3983 51.529 9.17253 52.5844C9.25856 52.7017 9.35892 52.8155 9.47363 52.9259C9.58116 53.0293 9.69586 53.1225 9.81773 53.2052C10.9146 53.9502 12.377 54.1571 13.6459 53.8985C15.2266 53.5777 16.5493 52.6569 17.7752 51.6946C21.7539 48.5492 25.3455 44.9278 28.0446 40.7581C26.9047 45.5486 26.7757 50.5565 27.2811 55.4815C27.4316 56.9922 27.7005 58.5545 28.5822 59.8582C29.2812 60.8929 30.4748 61.7517 31.7867 61.969C31.9444 61.9897 32.0986 62 32.2491 62C32.4068 62 32.561 61.9897 32.7115 61.969C34.0342 61.7517 35.217 60.8929 35.9267 59.8582C36.8085 58.5545 37.0666 56.9922 37.2279 55.4815C37.7225 50.5565 37.6043 45.5486 36.4537 40.7581C39.1635 44.9278 42.7551 48.5492 46.7338 51.6946C47.9489 52.6569 49.2823 53.5777 50.8631 53.8985C52.132 54.1571 53.5944 53.9502 54.6805 53.2052C54.8095 53.1225 54.9278 53.0293 55.0354 52.9259C55.1429 52.8155 55.2433 52.7017 55.3365 52.5844C56.1107 51.529 56.3258 50.1219 56.0569 48.901C55.7128 47.38 54.7665 46.1073 53.7557 44.9278C50.4867 41.0995 46.7231 37.6437 42.4002 35.0466C47.3683 36.1434 52.5729 36.2675 57.6914 35.7812C59.2722 35.6364 60.8852 35.3777 62.2401 34.5293C63.3262 33.8567 64.2079 32.7083 64.4338 31.4459C64.4624 31.2942 64.4768 31.1459 64.4768 31.001C64.4768 30.8493 64.4624 30.701 64.4338 30.5561Z" fill="#7FA2B9"/>
<path d="M40.5729 31.0065C40.5729 35.4245 36.8522 39.0149 32.2498 39.0149C27.6582 39.0149 23.9268 35.4245 23.9268 31.0065C23.9268 26.578 27.6582 22.998 32.2498 22.998C36.8522 22.998 40.5729 26.578 40.5729 31.0065Z" fill="#FBEFE1"/>
</svg>
