<svg width="80" height="80" viewBox="0 0 80 80" fill="none" xmlns="http://www.w3.org/2000/svg">
<path fill-rule="evenodd" clip-rule="evenodd" d="M65.9414 40C78.2872 56.2446 83.4855 71.5395 77.5375 77.5375C71.5395 83.4855 56.2446 78.2872 40 65.9414C23.7554 78.2872 8.46053 83.4855 2.46253 77.5375C-3.48548 71.5395 1.71279 56.2446 14.0587 40C1.71279 23.7554 -3.48548 8.46053 2.46253 2.46253C8.46053 -3.48548 23.7554 1.71279 40 14.0587C56.2446 1.71279 71.5395 -3.48548 77.5375 2.46253C83.4855 8.46053 78.2872 23.7554 65.9414 40ZM53.0456 40C59.2935 31.8027 61.8927 24.1053 58.8937 21.1063C55.8947 18.1073 48.1973 20.7064 40 26.9544C31.8027 20.7064 24.1053 18.1073 21.1063 21.1063C18.1073 24.1053 20.7064 31.8027 26.9544 40C20.7064 48.1973 18.1073 55.8947 21.1063 58.8937C24.1053 61.8927 31.8027 59.2935 40 53.0456C48.1973 59.2935 55.8947 61.8927 58.8937 58.8937C61.8927 55.8947 59.2935 48.1973 53.0456 40Z" fill="#7FA2B9"/>
</svg>
