<svg width="80" height="80" viewBox="0 0 80 80" fill="none" xmlns="http://www.w3.org/2000/svg">
<path fill-rule="evenodd" clip-rule="evenodd" d="M40 80H39.987C39.537 80 39.0869 79.9957 38.6368 79.987C28.4583 79.6364 18.89 75.4935 11.6845 68.2857C4.14151 60.7403 0 50.7013 0 40.026C0 37.4935 0.23369 34.961 0.714054 32.4805L0.856866 31.987C1.02564 31.5974 1.32425 30.987 1.79163 30.3377C2.47972 29.3896 3.31062 28.6753 4.25836 28.1948C5.98507 27.3117 8.04934 27.3247 10.1266 28.2597C10.3083 28.3203 10.4814 28.3939 10.6459 28.4805C12.6193 29.6234 14.8913 30.2338 17.1892 30.2338C20.6686 30.2338 23.9533 28.8701 26.407 26.4026C28.8867 23.9351 30.2369 20.6494 30.2369 17.1558C30.2369 15.0779 29.7436 13.013 28.7959 11.1688L28.7439 11.0779C28.653 10.9221 28.5492 10.7403 28.4323 10.5325C27.6923 9.11688 27.3288 7.80519 27.3288 6.50649C27.3158 5.27273 27.6793 4.11688 28.3804 3.16883C29.1334 2.11688 30.2759 1.33766 31.7559 0.857142L32.0415 0.779221C34.1577 0.350649 36.3778 0.0909087 38.6238 0.0259736C39.0912 0.00865761 39.5586 0 40.026 0C50.7108 0 60.7465 4.14286 68.2765 11.6753C75.8455 19.2468 80 29.2987 80 39.987C80 50.6753 75.8455 60.7273 68.2765 68.2857C60.7335 75.8442 50.6848 80 40 80ZM3.51834 33.0909C3.08991 35.3766 2.8692 37.7013 2.8692 40.026C2.8692 49.9351 6.72509 59.2597 13.7228 66.2597C20.396 72.9351 29.2762 76.7922 38.7277 77.1169C39.1431 77.1255 39.5629 77.1299 39.987 77.1299H40C49.9189 77.1299 59.2405 73.2727 66.2512 66.2597C73.2619 59.2467 77.1308 49.9091 77.1308 39.987C77.1308 30.0649 73.2749 20.7273 66.2512 13.7143C59.2535 6.71429 49.9448 2.87013 40.039 2.87013C39.5975 2.87013 39.1605 2.87446 38.7277 2.88312C36.6504 2.96104 34.5992 3.1948 32.6517 3.58441L32.6128 3.5974C31.7429 3.88312 31.0808 4.32467 30.6913 4.85714C30.2759 5.42857 30.198 6.05195 30.198 6.48052C30.198 7.58441 30.6394 8.55844 30.977 9.1948C31.0549 9.35065 31.1328 9.49351 31.1977 9.58441L31.3145 9.79221C32.4959 12.0519 33.1061 14.5974 33.1061 17.1558C33.1061 21.4156 31.4573 25.4286 28.4453 28.4416C25.4333 31.4416 21.4346 33.1039 17.1892 33.1039C14.4109 33.1039 11.6715 32.3766 9.26972 31.013L9.02305 30.9221C7.67283 30.2857 6.50438 30.2727 5.55664 30.7532C5.01136 31.026 4.531 31.4545 4.11555 32.026C3.82993 32.4156 3.64817 32.7792 3.53132 33.026L3.51834 33.0909Z" fill="#DA8C74"/>
<path d="M67.2635 12.7014C59.7465 5.16897 49.8795 1.42871 40.0256 1.42871C39.5755 1.42871 39.1255 1.43737 38.6754 1.45468C36.5462 1.53261 34.43 1.76637 32.3268 2.18196L32.197 2.22092C31.0026 2.61053 30.1067 3.2339 29.5355 4.01313C28.9643 4.79235 28.7565 5.68845 28.7565 6.49365C28.7695 7.90923 29.3148 9.13001 29.7043 9.85728C29.8081 10.0521 29.886 10.2079 29.9639 10.3248L30.0418 10.4547C31.1324 12.5586 31.6777 14.8573 31.6777 17.156C31.6777 20.8833 30.2625 24.5846 27.4323 27.4287C24.5891 30.2599 20.889 31.6625 17.1889 31.6625C14.6702 31.6625 12.1645 31.0261 9.93147 29.7274C9.83626 29.6755 9.73673 29.6408 9.63286 29.6235C8.6981 29.182 7.81527 28.9742 7.01034 28.9742C6.21839 28.9742 5.49135 29.169 4.90713 29.4807C4.01131 29.9352 3.38814 30.5975 2.94672 31.182C2.51829 31.7794 2.2846 32.2988 2.18074 32.5456L2.11583 32.7534C1.66143 35.156 1.42773 37.5846 1.42773 40.0261C1.42773 49.8833 5.17976 59.7534 12.7098 67.2729C19.9023 74.4807 29.2499 78.2339 38.6754 78.5456C39.1168 78.5629 39.5539 78.5716 39.9867 78.5716C49.8536 78.5716 59.7335 74.8053 67.2635 67.2729C74.7935 59.7404 78.5715 49.8573 78.5715 39.9872C78.5715 30.117 74.7935 20.2339 67.2635 12.7014Z" fill="#DA8C74"/>
<path d="M29.1462 52.9351C29.1462 57.4416 25.4981 61.091 20.993 61.091C16.488 61.091 12.8398 57.4416 12.8398 52.9351C12.8398 48.4286 16.488 44.7793 20.993 44.7793C25.4981 44.7793 29.1462 48.4286 29.1462 52.9351Z" fill="#FDAD95"/>
<path fill-rule="evenodd" clip-rule="evenodd" d="M20.9932 61.8187C16.0987 61.8187 12.126 57.8317 12.126 52.9356C12.126 48.0395 16.0987 44.0654 20.9932 44.0654C25.8877 44.0654 29.8605 48.0395 29.8605 52.9356C29.8605 57.8317 25.8877 61.8187 20.9932 61.8187ZM20.9932 45.494C16.8907 45.494 13.5541 48.8317 13.5541 52.9356C13.5541 57.0395 16.8907 60.3771 20.9932 60.3771C25.0958 60.3771 28.4324 57.0395 28.4324 52.9356C28.4324 48.8317 25.0958 45.494 20.9932 45.494Z" fill="#DA8C74"/>
<path d="M52.4373 61.7017C52.4373 66.2082 48.7891 69.8576 44.2841 69.8576C39.779 69.8576 36.1309 66.2082 36.1309 61.7017C36.1309 57.1952 39.779 53.5459 44.2841 53.5459C48.7891 53.5459 52.4373 57.1952 52.4373 61.7017Z" fill="#FDAD95"/>
<path fill-rule="evenodd" clip-rule="evenodd" d="M44.2842 70.5716C39.4027 70.5716 35.417 66.5976 35.417 61.7015C35.417 56.8054 39.4027 52.8184 44.2842 52.8184C49.1788 52.8184 53.1645 56.8054 53.1645 61.7015C53.1645 66.5976 49.1788 70.5716 44.2842 70.5716ZM44.2842 54.2599C40.1817 54.2599 36.8581 57.5976 36.8581 61.7015C36.8581 65.8054 40.1817 69.143 44.2842 69.143C48.3868 69.143 51.7234 65.8054 51.7234 61.7015C51.7234 57.5976 48.3868 54.2599 44.2842 54.2599Z" fill="#DA8C74"/>
<path d="M68.7569 43.3765C68.7569 47.883 65.0957 51.5324 60.6037 51.5324C56.0987 51.5324 52.4375 47.883 52.4375 43.3765C52.4375 38.8701 56.0987 35.2207 60.6037 35.2207C65.0957 35.2207 68.7569 38.8701 68.7569 43.3765Z" fill="#FDAD95"/>
<path fill-rule="evenodd" clip-rule="evenodd" d="M60.6039 52.2601C55.7094 52.2601 51.7236 48.2731 51.7236 43.377C51.7236 38.4809 55.7094 34.5068 60.6039 34.5068C65.4854 34.5068 69.4711 38.4809 69.4711 43.377C69.4711 48.2731 65.4854 52.2601 60.6039 52.2601ZM60.6039 35.9354C56.5013 35.9354 53.1647 39.2731 53.1647 43.377C53.1647 47.4809 56.5013 50.8185 60.6039 50.8185C64.6935 50.8185 68.03 47.4809 68.03 43.377C68.03 39.2731 64.6935 35.9354 60.6039 35.9354Z" fill="#DA8C74"/>
<path d="M63.6677 20.4156C63.6677 24.9221 60.0196 28.5715 55.5145 28.5715C51.0095 28.5715 47.3613 24.9221 47.3613 20.4156C47.3613 15.9091 51.0095 12.2598 55.5145 12.2598C60.0196 12.2598 63.6677 15.9091 63.6677 20.4156Z" fill="#FDAD95"/>
<path fill-rule="evenodd" clip-rule="evenodd" d="M55.5147 29.2855C50.6202 29.2855 46.6475 25.3114 46.6475 20.4153C46.6475 15.5192 50.6202 11.5322 55.5147 11.5322C60.4092 11.5322 64.382 15.5192 64.382 20.4153C64.382 25.3114 60.4092 29.2855 55.5147 29.2855ZM55.5147 12.9738C51.4121 12.9738 48.0756 16.3114 48.0756 20.4153C48.0756 24.5192 51.4121 27.8569 55.5147 27.8569C59.6173 27.8569 62.9539 24.5192 62.9539 20.4153C62.9539 16.3114 59.6173 12.9738 55.5147 12.9738Z" fill="#DA8C74"/>
</svg>
