<svg width="78" height="78" viewBox="0 0 78 78" fill="none" xmlns="http://www.w3.org/2000/svg">
<path d="M66.2635 11.7014C58.7465 4.16897 48.8795 0.428711 39.0256 0.428711C38.5755 0.428711 38.1255 0.437369 37.6754 0.454685C35.5462 0.532607 33.43 0.766372 31.3268 1.18196L31.197 1.22092C30.0026 1.61053 29.1067 2.2339 28.5355 3.01313C27.9643 3.79235 27.7565 4.68845 27.7565 5.49365C27.7695 6.90923 28.3148 8.13001 28.7043 8.85728C28.8081 9.05209 28.886 9.20793 28.9639 9.32481L29.0418 9.45469C30.1324 11.5586 30.6777 13.8573 30.6777 16.156C30.6777 19.8833 29.2625 23.5846 26.4323 26.4287C23.5891 29.2599 19.889 30.6625 16.1889 30.6625C13.6702 30.6625 11.1645 30.0261 8.93147 28.7274C8.83626 28.6755 8.73673 28.6408 8.63286 28.6235C7.6981 28.182 6.81527 27.9742 6.01034 27.9742C5.21839 27.9742 4.49135 28.169 3.90713 28.4807C3.01131 28.9352 2.38814 29.5975 1.94672 30.182C1.51829 30.7794 1.2846 31.2988 1.18074 31.5456L1.11583 31.7534C0.661427 34.156 0.427734 36.5846 0.427734 39.0261C0.427734 48.8833 4.17976 58.7534 11.7098 66.2729C18.9023 73.4807 28.2499 77.2339 37.6754 77.5456C38.1168 77.5629 38.5539 77.5716 38.9867 77.5716C48.8536 77.5716 58.7335 73.8053 66.2635 66.2729C73.7935 58.7404 77.5715 48.8573 77.5715 38.9872C77.5715 29.117 73.7935 19.2339 66.2635 11.7014Z" fill="#DA8C74"/>
</svg>
