<svg width="56" height="83" viewBox="0 0 56 83" fill="none" xmlns="http://www.w3.org/2000/svg">
  <path d="M56 41.3944C42.211 45.1959 37.4271 54.0662 34.0502 63.3588C31.799 69.6947 30.9548 76.4529 28.9849 83C28.4221 80.4656 28.1407 77.7201 27.5779 74.9746C25.8895 65.682 23.6383 56.3893 16.0403 48.5751C12.6634 44.9847 8.16082 41.8167 1.40704 42.0279C1.12563 42.0279 0.844223 41.8168 0 41.3944C4.50252 41.1832 8.7236 40.5497 12.1005 38.4377C20.5427 33.369 24.4824 26.1883 27.0151 18.3741C28.7035 12.4606 27.8592 6.12468 29.2663 0C30.1105 4.01272 31.2362 8.02542 31.2362 12.2493C31.2362 20.486 35.176 27.8778 41.3669 34.6361C45.0252 38.2264 49.5276 40.5496 56 41.3944Z" fill="#FBEFE1" />
</svg>