<svg width="201" height="140" viewBox="0 0 201 140" fill="none" xmlns="http://www.w3.org/2000/svg">
<path d="M91.3114 19.1431C104.125 17.5528 115.908 19.6009 127.489 24.6181C141.752 30.7535 154.109 39.8662 165.467 50.5383C177.443 61.8062 187.672 74.554 196.956 87.9964C197.196 88.35 197.436 88.7036 197.676 89.0572C198.665 90.7903 198.466 92.662 197.108 93.6911C195.749 94.7202 193.826 94.2886 192.488 92.632C190.983 90.7683 189.568 88.7629 188.063 86.8992C175.932 71.0341 162.7 56.2634 146.788 44.2741C135.089 35.3829 122.519 28.6325 108.283 26.5129C93.298 24.3137 80.3875 28.2408 69.0892 37.2987C61.0133 43.8221 54.8824 51.9909 49.7042 61.1696C39.3987 79.7596 34.033 100.313 30.4083 121.582C29.6726 126.009 28.795 130.345 27.943 134.797C27.6165 136.088 27.239 137.145 26.4872 138.163C25.8262 139.04 24.947 139.476 23.7729 139.124C22.6244 138.888 21.8391 138.086 21.4679 136.948C20.8928 134.881 20.95 132.918 21.1236 130.93C23.3877 106.791 29.5992 83.9797 39.9507 62.8203C45.328 51.7699 52.3157 41.9508 61.2741 33.8934C68.5105 27.4321 76.7617 22.8202 86.1949 20.2648C88.1462 19.7151 90.1486 19.398 91.3114 19.1431Z" fill="#F29A7F"/>
<path d="M99.9583 61.3654C110.577 59.7688 120.601 62.6899 129.918 69.0564C140.937 76.5125 148.901 86.7101 155 98.4131C155.488 99.5249 155.975 100.637 156.256 101.916C156.805 103.867 156.181 105.467 154.63 106.172C153.194 106.852 151.337 106.163 150.232 104.455C148.213 101.364 146.311 98.2462 144.293 95.1544C138.379 85.9698 131.093 78.305 121.631 72.9451C116.229 69.9857 110.526 68.4328 104.483 68.6608C93.4929 69.1201 85.5109 74.4042 79.3148 82.8311C72.8463 91.6833 69.9365 102.315 68.1099 113.44C67.5445 116.976 67.1209 120.603 66.6718 124.114C66.5014 125.004 66.4474 125.869 66.1607 126.785C65.6271 128.243 64.759 129.286 63.0036 129.062C61.2482 128.837 60.3608 127.569 60.0294 126.058C59.2902 122.685 59.5576 119.458 59.8506 116.347C61.3011 101.283 66.1686 87.9067 75.2271 76.4149C80.5663 69.6383 87.3202 64.8672 95.5794 61.9598C96.9493 61.5376 98.5375 61.555 99.9583 61.3654Z" fill="#BCD1DE"/>
<path d="M37.8874 120.675C40.8343 119.663 39.1616 117.593 39.3463 116.212C39.7923 113.798 40.0056 111.436 40.477 109.139C40.8832 107.1 41.1475 104.97 41.9279 102.971C43.1512 99.6561 43.5493 95.9127 45.2886 92.7283C45.9895 91.4778 46.0977 89.7479 46.6567 88.4066C49.2705 81.9838 51.9097 75.6773 55.5159 69.89C58.0071 65.6877 60.8072 61.7834 63.3239 57.6974C64.0502 56.5632 64.9072 54.9129 66.8952 55.0864C67.1532 55.1517 67.1022 54.9192 67.193 54.7774C68.8814 51.3605 71.8569 49.3676 74.8069 47.2584C76.9286 45.8183 79.2177 44.5853 81.3904 43.3778C82.8001 42.5812 84.5698 42.3151 86.1722 41.842C89.9076 40.5356 93.7083 38.9712 97.8914 39.151C99.1052 39.1287 100.254 39.3643 101.493 39.4583C103.623 39.7226 105.832 39.2383 108.013 39.7352C110.168 40.1158 112.272 40.2639 114.388 41.0188C117.277 41.9697 119.88 43.8365 122.668 44.3222C125.03 44.5355 126.47 46.6573 128.575 46.8054C129.556 46.834 129.76 47.7642 129.564 48.5384C130.222 48.7598 130.636 48.4253 131.203 48.7884C132.981 50.2268 135.006 51.1235 137.03 52.0202C137.688 52.2416 137.957 52.9138 138.408 53.3025C141.357 56.1903 145.239 57.7767 147.501 61.4244C149.398 61.7398 149.766 63.9747 151.482 64.5736C152.256 64.7695 152.809 65.6232 153.245 66.5025C153.464 66.9421 153.773 67.24 154.223 67.6287C156.234 69.016 157.623 70.9051 158.921 72.9361C159.307 73.5828 159.46 74.2805 160.234 74.4764C161.808 74.9845 162.423 76.6778 163.001 77.6478C164.696 80.9324 167.517 83.2389 169.51 86.2144C170.706 87.7802 171.786 89.3714 172.685 91.2463C173.918 93.5352 175.358 95.657 176.707 97.9205C177.915 100.093 177.549 101.758 175.634 103.031C175.078 103.274 174.715 103.841 174.21 104.318C173.297 102.934 171.553 103.316 170.433 102.099C169.571 100.947 168.76 100.028 168.661 98.4656C168.599 97.6261 167.763 96.5907 167.054 96.1368C166.062 95.5013 166.309 94.9596 166.788 94.3671C166.039 94.2874 165.69 94.3639 165.487 93.4336C164.897 91.8567 163.868 90.498 162.308 89.4993C161.741 89.1361 161.472 88.4639 161.319 87.7662C161.708 87.3154 162.286 88.2855 162.649 87.7184C162.715 87.4603 162.522 87.137 162.289 87.1879C160.52 87.454 159.839 86.0188 159.068 84.7254C158.155 83.3412 157.061 82.2405 156.057 80.9981C154.912 79.6648 153.883 78.3061 153.061 76.7801C152.457 75.6938 151.425 75.4325 150.756 74.6043C149.04 72.7055 147.285 70.8154 145.491 68.9337C144.346 67.6004 142.335 66.2131 142.832 64.0323C142.123 63.5784 142.571 65.0646 141.746 64.6361C141.037 64.1821 141.284 63.6405 141.298 63.1499C140.549 63.0703 140.612 63.9098 140.03 64.0372C139.078 63.0273 138.604 61.4248 137.031 60.9167C136.373 60.6954 136.285 59.7396 136.041 59.1837C135.525 59.0531 135.355 59.9435 134.788 59.5804C134.221 59.2172 134.351 58.7011 134.482 58.185C132.919 58.2838 131.708 57.2086 130.937 55.9152C130.475 54.9196 129.469 54.7747 128.978 54.7604C127.106 54.5614 125.598 53.7953 124.427 52.3457C123.758 51.5174 122.958 51.2052 122.082 50.5442C121.563 51.5111 120.93 51.4061 120.054 50.7451C118.353 49.6556 116.43 49.2239 114.664 48.3925C113.206 47.8589 111.669 48.074 110.509 47.2314C109.659 46.6867 109.139 47.6536 108.223 47.3669C106.65 46.8588 104.894 46.6343 103.23 46.268C101.848 46.0833 100.544 46.2474 99.432 46.7349C98.2039 47.2479 97.4043 46.9357 96.3863 46.1839C95.6775 45.7299 95.0451 45.6248 94.6676 46.6825C94.1993 47.882 93.2436 47.9697 92.0441 47.5014C91.2444 47.1892 90.3794 47.1351 90.0672 47.9348C89.8204 48.4764 89.6276 48.153 89.2533 48.1132C88.3883 48.0591 87.2398 47.8234 87.2223 49.4116C87.157 49.6696 86.9245 49.7205 86.8082 49.746C83.9776 50.7322 82.0598 53.1026 79.5128 54.2703C77.082 55.4125 75.3346 56.8925 73.8565 59.0446C73.4678 59.4954 72.8752 59.0159 72.3702 59.4922C73.0393 60.3205 72.5598 60.9131 71.7204 60.9753C70.7391 60.9466 70.4923 61.4883 70.2964 62.2624C70.126 63.1529 69.1192 63.008 68.7561 63.5751C67.7441 65.2594 66.9429 66.9787 66.3525 68.7331C66.2872 68.9911 66.1056 69.2747 65.9893 69.3002C64.7755 69.3226 64.8632 70.2783 64.8346 71.2595C62.4977 71.1625 62.8515 73.888 60.9002 74.4376C61.9181 75.1894 62.7687 75.7342 61.4498 76.389C60.8939 76.6327 61.2141 77.5375 60.8509 78.1046C60.0991 79.1225 58.7466 77.9565 58.4201 79.2468C59.1943 79.4427 59.9542 80.1292 59.642 80.9288C59.4318 82.1936 58.3965 83.03 57.2846 83.5175C56.7032 83.6449 56.238 83.7469 56.391 84.4446C56.7255 84.8587 57.1142 84.4079 57.565 84.7965C57.5507 85.2872 56.6204 85.4911 57.4058 86.2939C55.8829 86.0184 54.6914 87.2546 54.9973 88.65C55.0228 88.7663 55.1901 88.9734 55.2156 89.0896C55.0676 91.1939 54.4034 93.1676 54.8224 95.635C53.1211 94.5455 53.0272 95.7848 52.5478 96.3774C52.3264 97.0353 53.3729 96.8059 53.2423 97.322C52.7883 98.0308 52.2101 97.0608 51.6541 97.3045C51.0951 98.6458 53.8429 99.5059 52.3026 100.818C51.8885 101.153 51.5937 100.365 50.8705 100.401C52.3138 101.425 51.1478 102.778 52.1769 104.137C50.3705 103.68 49.9675 104.621 49.641 105.911C50.0918 106.3 50.4296 105.617 50.9712 105.863C51.2118 107.517 51.2117 107.517 49.4675 107.899C49.0135 108.608 50.2497 109.8 48.8145 110.48C50.7881 111.144 48.5247 112.493 49.9169 113.285C48.0309 113.576 47.6534 114.634 48.6825 115.993C47.2983 116.906 47.5135 118.443 46.9544 119.784C47.6633 120.238 47.9499 119.322 48.517 119.685C49.2737 121.469 45.5813 121.304 47.0214 123.426C45.4301 124.506 45.2454 125.887 46.4784 128.176C45.6358 129.335 45.2185 130.768 44.4922 131.902C44.1434 131.978 44.0159 131.397 43.4855 131.757C43.562 132.106 43.6639 132.571 43.8169 133.269C42.8245 132.633 41.9022 134.541 41.0547 132.899C40.6182 132.02 40.0399 131.05 39.6942 130.029C38.9263 127.638 39.6048 125.173 38.6043 122.833C38.3351 122.161 39.7703 121.481 37.8874 120.675Z" fill="#C8D2B9"/>
<path d="M130.113 104.965C130.81 104.812 131.664 104.259 131.086 103.289C130.675 102.526 129.759 102.239 129.021 102.767C128.185 101.731 129.413 101.218 129.442 100.237C128.021 100.427 127.261 99.74 126.374 98.4721C125.603 97.1786 124.12 96.5288 123.116 95.2863C121.469 93.3319 118.979 92.5371 117.085 91.1243C116.634 90.7356 116.532 90.2705 116.365 90.0634C115.009 89.995 113.691 90.6497 112.727 89.0329C112.015 89.6765 111.394 90.1783 110.376 89.4265C109.641 88.8563 108.62 89.202 107.999 89.7038C107.261 90.2311 106.513 90.1514 105.96 89.2976C104.627 90.443 102.715 90.6183 101.414 89.6849C101.331 91.5311 100.361 92.1094 98.6963 91.7431C98.4298 91.639 98.2747 91.673 98.2312 91.8451C97.8139 93.2771 96.2114 93.7503 95.6523 95.0916C95.1872 95.1936 94.7507 94.3143 94.1295 94.8161C95.2493 96.033 95.1697 96.7817 93.2296 97.9382C92.5829 98.3237 92.1942 98.7746 92.0238 99.665C91.6575 101.33 90.8659 102.722 89.754 103.209C87.1546 109.142 86.0271 115.117 85.3248 121.364C85.6594 121.778 86.252 122.258 85.4747 123.159C84.879 123.778 84.476 124.719 85.2868 125.638C83.8373 126.809 82.1217 126.21 80.5989 125.935C79.3341 125.724 80.4347 124.63 80.1655 123.958C78.7844 123.773 78.0755 123.319 78.4418 121.654C78.703 120.622 79.055 119.448 78.4512 118.362C78.3493 117.897 78.4799 117.381 78.636 116.981C78.9482 116.181 79.5694 115.679 78.7076 114.528C78.322 113.881 78.9321 112.772 79.9133 112.801C80.0837 111.91 79.4115 112.18 79.2187 111.856C79.7523 110.399 80.1441 108.85 79.929 107.313C79.7394 105.892 80.633 104.965 81.036 104.024C82.3867 101.29 83.1193 97.961 85.5787 95.8375C85.7858 95.6702 85.851 95.4122 85.9163 95.1541C85.8398 94.8053 85.8541 94.3147 86.0612 94.1474C88.1575 92.591 88.734 89.6616 91.1138 88.2868C91.6442 87.9267 92.291 87.5412 92.7194 86.716C93.511 85.3238 95.088 84.7344 96.6904 84.2612C98.1766 83.8135 99.5864 83.0169 101.073 82.5693C102.068 82.1073 103.271 81.4781 104.416 82.8113C104.615 80.9396 106.058 81.9638 106.872 81.7853C109.779 81.148 112.629 82.4732 115.548 82.4428C116.761 82.4205 118.27 83.1866 119.288 83.9385C121.516 85.7655 124.108 87.0253 126.22 88.8778C127.264 89.7459 128.177 91.1302 129.816 91.3802C130.681 91.4343 129.903 92.336 130.405 92.9572C131.568 92.7023 132.51 93.1052 133.164 94.4241C133.434 95.0963 133.303 95.6124 132.489 95.7909C133.365 96.4519 134.361 95.9899 135.288 96.8835C136.266 98.0097 136.677 98.7727 135.551 99.7508C136.401 100.296 137.11 100.75 137.819 101.203C137.765 102.068 136.914 101.524 136.667 102.065C136.806 103.254 137.649 102.094 138.125 102.599C137.824 104.005 138.762 105.506 138.487 107.029C139.079 107.508 139.199 106.385 139.984 107.188C140.948 108.805 140.207 110.43 139.492 112.171C137.544 111.623 135.709 112.147 133.531 110.553C131.354 108.958 130.946 107.098 130.113 104.965Z" fill="#F29A7F"/>
<path fill-rule="evenodd" clip-rule="evenodd" d="M52.3455 70.4578C51.298 69.6929 51.8435 68.8797 52.2238 68.3127C52.2619 68.256 52.2983 68.2017 52.3313 68.1501L52.5098 67.8096L52.5098 67.8095L52.5099 67.8094L52.5099 67.8094C54.2496 64.4898 55.9197 61.3032 57.9635 58.2626C62.398 51.8062 66.9742 45.4407 73.0701 40.4482C76.9137 37.4119 81.2847 35.1131 86.0921 33.6936C90.7832 32.2995 95.6783 31.8358 100.61 32.0952C100.699 32.0936 100.79 32.0864 100.881 32.0791C101.413 32.0367 101.981 31.9915 102.518 33.0175C101.596 32.9906 100.736 33.0038 99.8921 33.0167C98.9406 33.0314 98.0091 33.0457 97.0307 33.0018C93.9197 32.7088 90.7036 33.0482 87.9638 33.8926C83.4797 35.1193 79.1231 36.9275 75.3958 39.9383C71.5521 42.9746 67.9268 46.4505 64.8685 50.2896C61.4216 54.5795 58.4255 59.2581 55.7129 64.1183L52.728 69.4037C52.4305 69.7124 52.249 69.9957 52.3502 70.46L52.3507 70.4602L52.3504 70.4606L52.3506 70.4615L52.3501 70.4611C50.3964 73.629 48.8917 76.9721 47.3527 80.3914L47.3526 80.3915L47.3526 80.3916L47.3525 80.3917C46.8378 81.5353 46.3193 82.6873 45.7788 83.8442C45.7457 83.9168 45.7151 83.9911 45.6851 84.0642C45.4908 84.5363 45.3161 84.9608 44.6016 84.5897C45.0661 82.9183 45.8269 81.3219 46.5978 79.7041C46.8445 79.1865 47.0923 78.6666 47.3316 78.1414L50.4758 71.3586C50.9036 70.5348 51.2663 69.9682 52.3455 70.4578ZM147.875 52.5664C148.828 52.0675 149.437 52.7933 149.957 53.4123L149.957 53.4125L149.957 53.4127L149.957 53.4128L149.958 53.413L149.958 53.4132C150.093 53.5746 150.223 53.7287 150.35 53.8518C153.382 56.1933 156.285 58.685 159.058 61.327C164.878 66.7539 170.194 72.6571 175.005 79.0366C177.951 83.022 180.664 87.0583 183.286 91.2365C183.599 91.7305 183.855 92.2584 184.108 92.7813L184.108 92.7814C184.459 93.5045 184.805 94.218 185.29 94.8189C185.483 95.1422 185.276 95.3095 184.72 95.5533C183.538 93.4979 182.215 91.3518 180.892 89.2057L180.892 89.2055L180.892 89.2054L180.892 89.2053L180.892 89.2052L180.892 89.205L180.89 89.2024C175.58 81.1042 169.947 73.1987 162.865 66.4641C158.397 62.2032 153.721 58.1095 149.046 54.0159C148.953 53.9358 148.85 53.858 148.745 53.7784L148.745 53.7783C148.341 53.4717 147.904 53.1406 147.875 52.5664ZM145.166 50.9412C145.941 51.7225 146.707 52.4946 147.874 52.5677C148.005 52.0516 147.696 51.7537 147.245 51.365C146.724 50.9312 146.173 50.5037 145.623 50.0763L145.622 50.0756C145.071 49.6479 144.52 49.2203 143.999 48.7862C136.782 43.6652 129.436 39.0604 121.076 36.5057C115.438 34.6948 109.877 33.2327 104.095 32.4285C104.078 32.4243 104.061 32.4199 104.044 32.4155L104.007 32.406L104.004 32.4052L104.004 32.405C103.504 32.2755 102.91 32.1215 102.725 32.8507C103.018 33.2827 103.381 33.2952 103.708 33.3065C103.783 33.3091 103.855 33.3116 103.925 33.319C106.66 33.2905 109.223 33.9422 111.872 34.6156C112.049 34.6606 112.226 34.7057 112.404 34.7507C120.687 36.9565 128.684 40.0783 136.172 44.774C138.841 46.3827 141.393 48.017 143.996 49.8838C144.418 50.187 144.793 50.5651 145.166 50.9412L145.166 50.9412ZM32.6024 126.586C33.2296 125.506 33.2724 124.3 33.3149 123.103C33.3383 122.443 33.3617 121.786 33.4828 121.153C34.5583 115.311 35.9391 109.565 37.6253 103.914C38.0426 102.482 38.5244 101.066 39.0062 99.6504L39.0062 99.6503L39.0062 99.6503C39.488 98.2345 39.9699 96.8188 40.3871 95.3868C40.4144 95.317 40.4373 95.2444 40.4599 95.1728C40.567 94.8338 40.6679 94.5146 41.1899 94.6014L41.1902 94.6016C40.961 93.5553 41.1314 92.665 41.5597 91.84C42.358 90.5935 42.8369 89.2329 43.3088 87.8921C43.6956 86.7931 44.0778 85.7072 44.6274 84.7084L44.6019 84.592C45.0527 84.9807 45.1802 85.5621 44.9078 85.9874C44.5683 86.7088 44.3191 87.4713 44.0689 88.237C43.7064 89.3464 43.3417 90.4623 42.6971 91.4689C42.4875 91.8591 42.3934 92.3234 42.297 92.7993C42.1544 93.5024 42.0068 94.2309 41.4739 94.7838L41.4734 94.7835C41.2107 95.6489 40.9462 96.5062 40.683 97.3591L40.6821 97.3624L40.6818 97.3631C39.953 99.7255 39.2344 102.055 38.5922 104.433C38.1423 105.994 37.7214 107.549 37.3006 109.104C36.8797 110.658 36.4588 112.213 36.0089 113.774C35.3737 115.829 35.0609 117.981 34.7494 120.125L34.7494 120.125C34.4665 122.072 34.1846 124.012 33.6631 125.866C33.633 125.943 33.611 126.036 33.5882 126.133C33.4928 126.539 33.383 127.005 32.6032 126.587C33.6633 127.959 33.3652 129.278 33.0637 130.612C32.9304 131.202 32.7964 131.795 32.7789 132.396C32.0843 131.452 32.1385 130.587 32.4252 129.671C32.8025 128.613 32.9475 127.607 32.6023 126.586C32.6022 126.586 32.6022 126.586 32.6022 126.586C32.6022 126.586 32.6022 126.586 32.6022 126.586C32.6021 126.586 32.602 126.585 32.6019 126.585C32.6021 126.585 32.6022 126.586 32.6024 126.586Z" fill="#F29A7F"/>
</svg>
