<svg width="171" height="20" viewBox="0 0 171 20" fill="none" xmlns="http://www.w3.org/2000/svg">
<path d="M0 0.790039H2.71014L7.23995 10.4691L11.7698 0.790039H14.5089L5.6429 19.4803H2.9618L5.89456 13.1696L0 0.790039Z" fill="#484343"/>
<path d="M19.4834 12.5699C18.3607 11.9698 17.4702 11.1858 16.841 10.1888C16.2022 9.20158 15.8828 8.14656 15.8828 7.02379C15.8828 5.83326 16.1925 4.73952 16.8217 3.75226C17.4508 2.76499 18.3316 1.97132 19.4641 1.39057C20.5965 0.800147 21.8838 0.509766 23.3067 0.509766C24.7101 0.509766 25.9684 0.800138 27.0815 1.38088C28.1946 1.96163 29.0657 2.74564 29.6949 3.7329C30.324 4.72017 30.6337 5.80423 30.6337 6.97539C30.6337 8.09817 30.324 9.15319 29.6949 10.1598C29.0657 11.1568 28.1946 11.9601 27.0815 12.5699C25.9684 13.17 24.7101 13.4797 23.3067 13.4797C21.8838 13.4701 20.6062 13.17 19.4834 12.5699ZM26.7524 10.1017C27.5848 9.25966 27.9913 8.20463 27.9913 6.94635C27.9913 5.66871 27.5751 4.62338 26.7524 3.82002C25.92 3.01665 24.7779 2.61013 23.3067 2.61013C21.7967 2.61013 20.6256 3.02633 19.7835 3.84905C18.9414 4.67177 18.5252 5.73647 18.5252 7.03347C18.5252 8.28207 18.9511 9.30805 19.8028 10.1404C20.6546 10.9632 21.8258 11.3794 23.3067 11.3794C24.7779 11.36 25.92 10.9438 26.7524 10.1017Z" fill="#484343"/>
<path d="M46.363 13.1796H43.7496V11.0792C43.4689 11.6213 42.9462 12.1536 42.1719 12.686C41.3976 13.2086 40.2942 13.47 38.8713 13.47C37.1678 13.47 35.8612 12.9763 34.932 11.9891C34.0028 11.0018 33.5479 9.7145 33.5479 8.13681V0.829102H36.1902V7.61413C36.1902 8.69819 36.4806 9.59835 37.071 10.3049C37.6518 11.0115 38.5326 11.3696 39.7037 11.3696C41.0007 11.3696 41.9977 10.9921 42.7043 10.2275C43.4012 9.46284 43.7593 8.44654 43.7593 7.1689V0.829102H46.3726V13.1796H46.363Z" fill="#484343"/>
<path d="M49.8662 0.819503H52.5086V2.91986C52.7893 2.35847 53.312 1.81645 54.0863 1.29378C54.8606 0.77111 55.964 0.509766 57.3868 0.509766C59.0904 0.509766 60.397 1.0034 61.3262 1.99067C62.2554 2.97794 62.7103 4.26526 62.7103 5.84295V13.1797H60.068V6.36561C60.068 5.28155 59.7776 4.3814 59.1872 3.67483C58.6064 2.96826 57.7256 2.61013 56.5545 2.61013C55.2575 2.61013 54.2605 2.98761 53.5539 3.75226C52.857 4.5169 52.4989 5.53322 52.4989 6.81085V13.17H49.8662V0.819503Z" fill="#484343"/>
<path d="M66.5723 3.72314C67.2111 2.73587 68.0919 1.95186 69.2147 1.37112C70.3375 0.790372 71.5861 0.5 72.9411 0.5C74.0058 0.5 74.9544 0.71294 75.7771 1.12914C76.6095 1.54534 77.258 2.13577 77.7226 2.89074V0.809738H80.365V13.741C80.365 17.5642 77.8872 19.471 72.9315 19.471C70.6956 19.471 68.9921 19.0064 67.8016 18.0772C66.611 17.148 65.9722 15.9865 65.8851 14.5831H68.5662C68.6533 15.4639 69.0502 16.1704 69.7761 16.7125C70.502 17.2545 71.5474 17.5255 72.9315 17.5255C76.1159 17.5255 77.7129 16.2672 77.7129 13.741V11.0599C77.2483 11.8148 76.5998 12.4053 75.7674 12.8215C74.935 13.2377 73.9962 13.4506 72.9315 13.4506C71.5474 13.4506 70.2988 13.1506 69.1857 12.5408C68.0726 11.9407 67.1918 11.1373 66.553 10.1307C65.9141 9.13374 65.5947 8.06904 65.5947 6.94626C65.6238 5.79445 65.9432 4.72008 66.5723 3.72314ZM69.5438 10.1017C70.3956 10.9437 71.5667 11.3599 73.0476 11.3599C74.5576 11.3599 75.719 10.9631 76.5224 10.1597C77.3258 9.36604 77.7323 8.31102 77.7323 7.01402C77.7323 5.69767 77.3258 4.63297 76.503 3.81993C75.6803 3.00689 74.5285 2.60037 73.0476 2.60037C71.5764 2.60037 70.4149 3.00689 69.5535 3.81993C68.692 4.63297 68.2661 5.67831 68.2661 6.93659C68.2661 8.20455 68.692 9.25957 69.5438 10.1017Z" fill="#484343"/>
<path d="M96.3258 13.47C95.4353 13.47 94.6126 13.3538 93.8576 13.1312C93.1027 12.8989 92.4638 12.5892 91.9315 12.1827C91.3991 11.7761 90.9926 11.3115 90.7022 10.7889C90.4119 10.2662 90.2764 9.70481 90.2764 9.1047H92.8607C92.8607 9.87903 93.2091 10.4888 93.9157 10.9437C94.5545 11.3599 95.3482 11.5729 96.3064 11.5729C97.1776 11.5729 97.8841 11.4083 98.4261 11.0696C98.9682 10.7405 99.2392 10.334 99.2392 9.85968C99.2392 9.337 98.9004 8.88208 98.2229 8.49492C97.9422 8.35941 97.5937 8.22391 97.1679 8.11744C96.742 8.00129 96.3161 7.89482 95.8902 7.78835C94.6803 7.50766 93.7318 7.23664 93.0349 6.98498C92.3477 6.73333 91.796 6.38488 91.3798 5.92996C90.9636 5.48472 90.7603 4.89431 90.7603 4.1587C90.7603 3.03592 91.254 2.14545 92.2412 1.48727C93.2285 0.829096 94.4868 0.5 96.0161 0.5C97.7583 0.5 99.1327 0.896849 100.13 1.68085C100.575 2.0293 100.923 2.42613 101.165 2.88105C101.407 3.32629 101.533 3.7812 101.533 4.23612H98.9391C98.9391 3.74249 98.6585 3.31662 98.0971 2.93913C97.5357 2.56165 96.8388 2.37774 96.0064 2.37774C95.2417 2.37774 94.6126 2.54229 94.1286 2.8617C93.635 3.19079 93.393 3.60698 93.393 4.13933C93.393 4.48778 93.5285 4.77815 93.7899 4.99109C94.0512 5.21371 94.3513 5.36858 94.6707 5.46537C94.9901 5.56216 95.5805 5.71702 96.4516 5.92996C98.0293 6.23001 99.2295 6.6075 100.052 7.06242C100.643 7.39151 101.098 7.79803 101.407 8.2723C101.717 8.74658 101.872 9.24989 101.872 9.77256C101.872 10.2856 101.736 10.7695 101.456 11.2438C101.175 11.7181 100.788 12.1246 100.275 12.4537C99.2198 13.1215 97.8938 13.47 96.3258 13.47Z" fill="#484343"/>
<path d="M104.902 19.4904V0.819503H107.545V2.90051C108.009 2.14554 108.658 1.55511 109.49 1.13891C110.323 0.722705 111.262 0.509766 112.326 0.509766C113.691 0.509766 114.93 0.800138 116.053 1.38088C117.175 1.96163 118.066 2.74564 118.695 3.7329C119.334 4.72017 119.653 5.80423 119.653 6.97539C119.653 8.09817 119.334 9.15319 118.695 10.1598C118.056 11.1568 117.185 11.9601 116.062 12.5699C114.949 13.17 113.701 13.4797 112.317 13.4797C111.252 13.4797 110.303 13.2668 109.481 12.8506C108.648 12.4344 108 11.844 107.535 11.089V19.5001H104.902V19.4904ZM112.239 11.36C113.73 11.36 114.901 10.9438 115.743 10.1017C116.595 9.25966 117.021 8.20463 117.021 6.94635C117.021 5.68807 116.595 4.64274 115.733 3.82969C114.872 3.01665 113.71 2.61013 112.239 2.61013C110.749 2.61013 109.597 3.01665 108.784 3.82969C107.961 4.64274 107.554 5.70744 107.554 7.02379C107.554 8.32079 107.961 9.36613 108.764 10.1695C109.568 10.9632 110.729 11.36 112.239 11.36Z" fill="#484343"/>
<path d="M134.074 13.1796V11.0792C133.61 11.8342 132.961 12.4246 132.129 12.8408C131.296 13.257 130.357 13.47 129.293 13.47C127.909 13.47 126.66 13.1699 125.547 12.5601C124.434 11.96 123.553 11.1567 122.914 10.15C122.275 9.1531 121.956 8.0884 121.956 6.96563C121.956 5.79446 122.275 4.7104 122.914 3.72314C123.553 2.73587 124.434 1.95186 125.557 1.37112C126.679 0.790372 127.928 0.5 129.283 0.5C130.348 0.5 131.296 0.71294 132.119 1.12914C132.951 1.54534 133.6 2.13577 134.065 2.89074V0.809738H136.678V13.1699H134.074V13.1796ZM132.845 10.1694C133.668 9.37572 134.074 8.3207 134.074 7.0237C134.074 5.70735 133.668 4.64265 132.845 3.82961C132.022 3.01656 130.861 2.61004 129.351 2.61004C127.88 2.61004 126.718 3.01656 125.857 3.82961C124.995 4.64265 124.569 5.68798 124.569 6.94626C124.569 8.20454 124.995 9.25957 125.847 10.1017C126.699 10.9437 127.87 11.3599 129.351 11.3599C130.87 11.3599 132.032 10.9631 132.845 10.1694Z" fill="#484343"/>
<path d="M149.736 3.2779C149.077 2.81331 148.1 2.581 146.803 2.581C145.845 2.581 145.032 2.78426 144.344 3.20046C143.667 3.61667 143.144 4.1587 142.786 4.82655C142.428 5.50409 142.244 6.22033 142.244 6.99466C142.244 8.20454 142.65 9.24021 143.473 10.1017C144.296 10.9631 145.457 11.389 146.967 11.389C147.984 11.389 148.845 11.1857 149.552 10.7889C150.249 10.3823 150.723 9.81127 150.955 9.07566H153.597C153.452 9.89838 153.075 10.6437 152.484 11.3115C151.884 11.9794 151.1 12.5021 150.123 12.8892C149.145 13.2764 148.032 13.47 146.774 13.47C145.477 13.47 144.277 13.1699 143.173 12.5601C142.07 11.96 141.199 11.1567 140.56 10.15C139.921 9.1531 139.602 8.09807 139.602 6.99466C139.602 5.83317 139.911 4.76848 140.54 3.77153C141.17 2.78427 142.031 1.99058 143.125 1.39048C144.218 0.790379 145.428 0.5 146.745 0.5C148.913 0.5 150.558 0.94524 151.671 1.84539C152.784 2.73587 153.423 3.83928 153.568 5.15563H150.916C150.781 4.37163 150.394 3.7425 149.736 3.2779Z" fill="#484343"/>
<path d="M155.892 7.0237C155.892 5.83317 156.182 4.73944 156.772 3.73281C157.353 2.73587 158.185 1.94218 159.26 1.37112C160.334 0.790372 161.583 0.5 163.006 0.5C164.409 0.5 165.648 0.7807 166.732 1.34209C167.816 1.90347 168.658 2.66811 169.249 3.6457C169.839 4.62329 170.139 5.69766 170.139 6.88819C170.139 7.2076 170.11 7.51734 170.042 7.83675H158.495C158.669 8.87241 159.134 9.74353 159.918 10.4404C160.692 11.1373 161.796 11.4954 163.219 11.4954C165.406 11.4954 166.771 10.6921 167.303 9.07566H169.887C169.675 10.3533 168.978 11.4083 167.797 12.231C166.616 13.0538 165.087 13.47 163.219 13.47C161.776 13.47 160.508 13.1893 159.424 12.6182C158.34 12.0471 157.498 11.2825 156.888 10.3339C156.279 9.37571 155.95 8.34006 155.882 7.21728V7.0237H155.892ZM167.497 5.87189C167.303 4.83623 166.829 4.02318 166.064 3.4134C165.3 2.8133 164.283 2.50358 163.006 2.50358C161.747 2.50358 160.75 2.81331 159.995 3.42309C159.24 4.03287 158.766 4.85559 158.573 5.87189H167.497Z" fill="#484343"/>
</svg>
