<svg width="100" height="100" viewBox="0 0 100 100" fill="none" xmlns="http://www.w3.org/2000/svg">
<path d="M78.0567 21.8699C70.2737 14.0869 60.1188 10.2324 49.9638 10.2324C49.519 10.2324 49.0496 10.2324 48.5554 10.2324C46.3811 10.3313 44.2068 10.603 42.0325 11.0478H41.8842C40.6983 11.4925 39.7346 12.0855 39.1416 12.9009C38.5487 13.7162 38.3263 14.6057 38.4004 15.4952C38.4004 16.9036 38.9193 18.1637 39.364 18.9049C39.4628 19.1026 39.537 19.2755 39.5864 19.4238L39.6605 19.572C40.8465 21.7216 41.3654 24.0936 41.3654 26.4655C41.3654 30.32 39.8829 34.1004 36.9921 37.0653C34.1012 39.9562 30.2468 41.3645 26.4665 41.4386C23.8721 41.4386 21.2778 40.7715 18.9799 39.4373C18.8811 39.3878 18.7823 39.3385 18.6834 39.289C17.6951 38.8443 16.7809 38.6219 15.9408 38.6219C15.1255 38.6219 14.3842 38.8443 13.7912 39.1408C12.8276 39.5855 12.2347 40.3267 11.7899 40.9197C11.3452 41.5127 11.0486 42.0316 10.9745 42.3281L10.9004 42.5505C10.4063 45.0213 10.1592 47.5168 10.1592 50.037C10.1592 60.192 14.0878 70.347 21.7967 78.13C29.2091 85.5424 38.8452 89.3969 48.5554 89.6934C49.0496 89.7428 49.519 89.7675 49.9638 89.7675C60.1188 89.7675 70.2737 85.8389 78.0567 78.13C85.8398 70.347 89.6942 60.1179 89.6942 49.9629C89.6942 39.8079 85.8398 29.5788 78.0567 21.8699Z" fill="#FDAD95"/>
<path fill-rule="evenodd" clip-rule="evenodd" d="M49.9639 91.25C49.4697 91.25 49.0003 91.2253 48.5555 91.1759C38.0299 90.8794 28.1714 86.5802 20.759 79.1678C12.976 71.3848 8.67682 61.0074 8.75094 50.0371C8.75094 47.4427 8.97333 44.7743 9.41808 42.2541L9.56633 41.7352C9.78871 41.2904 10.0852 40.6975 10.5299 40.0303C11.2712 39.042 12.136 38.3008 13.1243 37.8066C14.9033 36.9171 16.9787 36.9171 19.1283 37.8807C19.326 37.9301 19.5236 38.0043 19.7213 38.1031C21.7226 39.2891 24.0946 39.9562 26.4666 39.9562C30.0245 39.9562 33.4342 38.5479 35.9545 35.9535C38.4747 33.4333 39.883 30.0236 39.883 26.4656C39.883 24.316 39.3641 22.1664 38.4005 20.3133L38.3264 20.1651C38.2276 20.0168 38.1287 19.8439 38.0299 19.6462C37.2887 18.1638 36.9181 16.8295 36.9181 15.4953C36.9181 14.161 37.2887 12.975 37.9558 12.0114C38.7465 10.9243 39.9078 10.1337 41.4396 9.6395L41.7361 9.56535C43.9598 9.1206 46.1836 8.89823 48.5555 8.82411C49.0003 8.77469 49.4697 8.75 49.9639 8.75C61.0084 8.75 71.3116 13.0492 79.0946 20.8322C86.8776 28.6152 91.1768 38.9926 91.1768 49.9629C91.1768 61.0074 86.8776 71.3848 79.0946 79.1678C71.3116 86.9508 60.9343 91.25 49.9639 91.25ZM12.3089 42.847C11.8641 45.219 11.6418 47.591 11.6418 50.0371C11.6418 60.2662 15.6445 69.8282 22.8345 77.0923C29.728 83.9117 38.9194 87.9144 48.6296 88.2109C49.0744 88.2604 49.5192 88.285 49.9639 88.285C60.193 88.285 69.755 84.2824 77.0192 77.0923C84.2833 69.8282 88.2119 60.192 88.2119 49.9629C88.2119 39.7338 84.2833 30.0977 77.0192 22.9077C69.8291 15.7176 60.193 11.715 49.9639 11.715C49.5192 11.715 49.0744 11.715 48.6296 11.715C46.48 11.7891 44.4046 12.0856 42.4033 12.4562H42.3291C41.4396 12.7527 40.7725 13.1974 40.3278 13.7904C39.9572 14.3834 39.8089 14.9764 39.883 15.4212C39.883 16.6071 40.3278 17.5707 40.6243 18.2379C40.7231 18.3861 40.7972 18.5343 40.8466 18.6826L40.9949 18.8308C42.1809 21.2028 42.848 23.7971 42.848 26.4656C42.848 30.8389 41.1431 34.9899 38.0299 38.1031C34.9167 41.1422 30.8399 42.847 26.4666 42.847C23.5758 42.847 20.759 42.1058 18.2388 40.6974L18.0164 40.6233C16.6081 39.9562 15.4221 39.9562 14.4585 40.4751C13.9149 40.7716 13.4208 41.2163 12.976 41.8093C12.6795 42.1799 12.4572 42.5505 12.383 42.847H12.3089Z" fill="#FDAD95"/>
<path d="M38.771 63.3057C38.771 67.9755 34.9907 71.7558 30.3209 71.7558C25.7252 71.7558 21.9448 67.9755 21.9448 63.3057C21.9448 58.71 25.7252 54.9297 30.3209 54.9297C34.9907 54.9297 38.771 58.71 38.771 63.3057Z" fill="#FBEFE1"/>
<path fill-rule="evenodd" clip-rule="evenodd" d="M30.3209 72.4971C25.2805 72.4971 21.2036 68.3462 21.2036 63.3057C21.2036 58.2653 25.2805 54.1885 30.3209 54.1885C35.4355 54.1885 39.5122 58.2653 39.5122 63.3057C39.5122 68.3462 35.4355 72.4971 30.3209 72.4971ZM30.3209 55.671C26.0958 55.671 22.6861 59.0807 22.6861 63.3057C22.6861 67.5308 26.0958 71.0146 30.3209 71.0146C34.6201 71.0146 38.0298 67.5308 38.0298 63.3057C38.0298 59.0807 34.6201 55.671 30.3209 55.671Z" fill="#FDAD95"/>
<path d="M62.7876 72.3487C62.7876 77.0185 59.0073 80.7988 54.4116 80.7988C49.7418 80.7988 45.9614 77.0185 45.9614 72.3487C45.9614 67.6788 49.7418 63.9727 54.4116 63.9727C59.0073 63.9727 62.7876 67.6788 62.7876 72.3487Z" fill="#FBEFE1"/>
<path fill-rule="evenodd" clip-rule="evenodd" d="M54.4116 81.4659C49.2971 81.4659 45.2202 77.3891 45.2202 72.3487C45.2202 67.3083 49.2971 63.2314 54.4116 63.2314C59.452 63.2314 63.5289 67.3083 63.5289 72.3487C63.5289 77.3891 59.452 81.4659 54.4116 81.4659ZM54.4116 64.7139C50.1124 64.7139 46.7027 68.1236 46.7027 72.3487C46.7027 76.5738 50.1124 80.0576 54.4116 80.0576C58.6367 80.0576 62.0464 76.5738 62.0464 72.3487C62.0464 68.1236 58.6367 64.7139 54.4116 64.7139Z" fill="#FDAD95"/>
<path d="M79.6138 53.4463C79.6138 58.1161 75.8334 61.8965 71.1636 61.8965C66.5679 61.8965 62.7876 58.1161 62.7876 53.4463C62.7876 48.8506 66.5679 45.0703 71.1636 45.0703C75.8334 45.0703 79.6138 48.8506 79.6138 53.4463Z" fill="#FBEFE1"/>
<path fill-rule="evenodd" clip-rule="evenodd" d="M71.1636 62.6377C66.1232 62.6377 62.0464 58.4868 62.0464 53.4463C62.0464 48.4059 66.1232 44.3291 71.1636 44.3291C76.2041 44.3291 80.355 48.4059 80.355 53.4463C80.355 58.4868 76.2041 62.6377 71.1636 62.6377ZM71.1636 45.8116C66.9386 45.8116 63.5289 49.2213 63.5289 53.4463C63.5289 57.6714 66.9386 61.1553 71.1636 61.1553C75.3887 61.1553 78.8725 57.6714 78.8725 53.4463C78.8725 49.2213 75.3887 45.8116 71.1636 45.8116Z" fill="#FDAD95"/>
<path d="M74.3506 29.8018C74.3506 34.4716 70.5703 38.1778 65.9746 38.1778C61.3048 38.1778 57.5244 34.4716 57.5244 29.8018C57.5244 25.132 61.3048 21.4258 65.9746 21.4258C70.5703 21.4258 74.3506 25.132 74.3506 29.8018Z" fill="#FBEFE1"/>
<path fill-rule="evenodd" clip-rule="evenodd" d="M65.9746 38.9181C60.9342 38.9181 56.7832 34.8413 56.7832 29.8008C56.7832 24.7604 60.9342 20.6836 65.9746 20.6836C71.015 20.6836 75.0918 24.7604 75.0918 29.8008C75.0918 34.8413 71.015 38.9181 65.9746 38.9181ZM65.9746 22.1661C61.7495 22.1661 58.2657 25.5758 58.2657 29.8008C58.2657 34.0259 61.7495 37.5098 65.9746 37.5098C70.1997 37.5098 73.6094 34.0259 73.6094 29.8008C73.6094 25.5758 70.1997 22.1661 65.9746 22.1661Z" fill="#FDAD95"/>
<path d="M11.5539 82.4424C11.5539 82.7492 11.605 83.056 11.7073 83.3628C11.8607 83.6697 12.0141 83.9765 12.3209 84.2066C12.5511 84.4368 12.7812 84.5135 13.088 84.4367C13.2414 84.4879 13.3948 84.5135 13.5482 84.5135C14.2386 84.5902 14.7756 84.36 15.3892 84.0532C16.3864 83.4396 17.537 82.5191 18.8411 81.2151C22.6764 77.3797 28.1993 70.2459 34.9495 61.5013C36.4325 59.5069 37.8644 57.5126 39.2451 55.5182C42.2367 50.9925 44.768 46.5434 46.6857 42.6314C46.7369 42.5291 46.7625 42.4524 46.7625 42.4013C47.1716 41.5831 47.5551 40.7649 47.9131 39.9466C47.9642 39.8955 47.9897 39.8188 47.9897 39.7165C47.6318 39.6142 47.2738 39.4864 46.9158 39.333C45.7652 38.9494 44.6913 38.3358 43.6174 37.5687H43.5407C42.3134 36.7249 41.2395 35.8812 40.319 34.8073C40.1656 34.6538 40.0378 34.5004 39.9355 34.347C39.8844 34.3982 39.8077 34.4493 39.7054 34.5004C39.0406 35.2164 38.3502 35.9579 37.6343 36.7249C34.7194 39.9466 31.4977 43.9354 28.5061 48.4611C27.1765 50.4555 25.8725 52.5522 24.5941 54.7511C20.1451 62.4985 16.5398 69.0953 14.2386 74.0813C13.0113 76.5359 12.2442 78.607 11.784 80.2179C11.6306 81.0616 11.4772 81.752 11.5539 82.4424Z" fill="#DA8C74"/>
<path fill-rule="evenodd" clip-rule="evenodd" d="M39.9356 32.813C40.3958 32.813 40.856 33.0431 41.1629 33.4267C41.2651 33.5801 41.3674 33.7079 41.4697 33.8102C42.1601 34.654 43.0806 35.4211 44.3846 36.2648L44.4613 36.3415C45.6119 37.1086 46.5324 37.5689 47.4529 37.9524C47.7086 38.0547 47.9898 38.1314 48.2967 38.1825C49.0637 38.4126 49.6007 39.103 49.524 39.8701C49.4728 40.1258 49.3961 40.3559 49.2939 40.5604C48.9359 41.3275 48.5779 42.1202 48.2199 42.9384C48.1688 43.0918 48.1176 43.2196 48.0665 43.3219C45.9954 47.5408 43.3874 52.0665 40.4725 56.3621C39.0918 58.4332 37.6343 60.4276 36.1769 62.422C29.9636 70.5529 23.9805 78.2236 19.915 82.2891C18.3809 83.8232 17.2303 84.8204 16.0797 85.3574C15.466 85.7409 14.6222 86.1245 13.4716 86.0477C13.3182 86.0477 13.1392 86.0222 12.9347 85.971C12.321 85.971 11.7841 85.7409 11.3238 85.4341C10.8636 85.0506 10.4801 84.5136 10.25 83.8999C10.0965 83.4908 10.0198 83.0306 10.0198 82.5192C9.9431 81.7521 10.0965 80.9084 10.3267 79.8345C10.7102 78.2236 11.5539 76.1525 12.7812 73.3911C15.3126 68.0983 19.3014 60.9645 23.2901 54.0609C24.4407 51.9131 25.8215 49.6886 27.2022 47.6175C30.1171 43.3219 33.2621 39.1797 36.4838 35.7279C37.1486 34.9608 37.8645 34.1938 38.6315 33.4267C38.8617 33.1966 39.0151 33.1199 39.0918 33.0431C39.3475 32.8897 39.6287 32.813 39.9356 32.813ZM45.9187 40.6371C44.9215 40.1769 43.9244 39.64 42.7737 38.8729L42.697 38.7962C41.5464 38.0291 40.626 37.3387 39.8589 36.5717C39.4498 36.9808 39.0662 37.3899 38.7083 37.799C35.64 41.1741 32.5717 45.1629 29.8102 49.305C28.4295 51.3761 27.1255 53.4472 25.8982 55.5183C21.9861 62.422 18.074 69.479 15.6194 74.6951C14.3921 77.2264 13.625 79.1441 13.3182 80.6015C13.0881 81.3686 13.0114 81.9056 13.0114 82.3658C13.0625 82.5192 13.1136 82.6726 13.1648 82.826C13.1648 82.8772 13.1648 82.9028 13.1648 82.9028C13.3182 82.9028 13.446 82.9283 13.5483 82.9795C13.5994 82.9795 13.625 82.9795 13.625 82.9795C13.9319 83.0562 14.2387 82.9028 14.6222 82.6726C15.466 82.2124 16.4632 81.4453 17.7672 80.1413C21.6793 76.2292 27.5858 68.6352 33.7223 60.5043C35.1798 58.6633 36.5605 56.6689 37.9412 54.5978C40.7027 50.4557 43.234 46.0834 45.3051 42.0179C45.3051 41.9156 45.3306 41.8133 45.3818 41.711C45.5863 41.3531 45.7653 40.9951 45.9187 40.6371Z" fill="#DA8C74"/>
<path d="M38.3246 31.2788C38.478 32.5061 39.0149 33.58 39.7053 34.5005C39.8075 34.7051 39.9354 34.8841 40.0888 35.0375C40.9326 36.0347 42.0832 36.9552 43.3105 37.7222L43.3872 37.7989C44.4611 38.4893 45.535 39.103 46.6856 39.5632C46.9924 39.6655 47.3248 39.7678 47.6828 39.87C48.2453 40.0234 48.8078 40.1002 49.3703 40.1002C50.7511 40.1769 52.1318 39.7166 53.5125 38.7961C54.8933 37.8756 56.274 36.4949 57.6547 34.4238C58.882 32.5828 59.4957 30.5885 59.8792 28.5941C60.4162 25.5258 60.1093 22.5342 59.7258 20.233C59.3423 17.8551 58.8053 16.2442 58.7286 15.9374V15.8607L58.6519 15.784C58.5752 15.4005 58.1149 15.0936 57.6547 15.1703C57.6547 15.1703 54.7399 15.3238 51.2113 16.3977C49.4471 16.9346 47.5294 17.7017 45.6884 18.7756C43.8474 19.9262 42.1599 21.3069 40.8559 23.2246C39.6286 25.0656 38.8615 26.6764 38.4779 28.1338C38.2222 29.2589 38.1711 30.3072 38.3246 31.2788Z" fill="#DA8C74"/>
<path fill-rule="evenodd" clip-rule="evenodd" d="M57.7317 13.6357C58.8056 13.6357 59.8028 14.3261 60.1096 15.3233L60.1863 15.4C60.3397 15.8602 60.8767 17.6245 61.2602 20.0024C61.7971 23.1474 61.8739 26.139 61.4136 28.8237C60.9534 31.2783 60.1096 33.4261 58.8823 35.2671C57.4249 37.4916 55.9674 39.0257 54.3566 40.0996C52.8991 41.0968 51.2116 41.6338 49.524 41.6338H49.2939C48.6803 41.6338 48.041 41.5315 47.3762 41.327C46.916 41.2247 46.5069 41.1224 46.1489 41.0201C44.9983 40.5599 43.8477 39.9462 42.467 39.0257C40.9328 37.9518 39.7822 37.0314 38.9384 36.0342C38.7339 35.8296 38.5805 35.6251 38.4782 35.4205C37.5577 34.1932 36.9952 32.8892 36.7907 31.5085C36.6372 30.3323 36.7139 29.0794 37.0208 27.7498C37.481 26.139 38.3248 24.3747 39.6288 22.3803C40.8561 20.4626 42.6204 18.8518 44.8449 17.4711C46.6092 16.4739 48.5268 15.5534 50.7513 14.9397C54.2031 13.8658 57.0413 13.6357 57.5783 13.6357H57.7317ZM49.524 38.5655C50.5979 38.5655 51.6462 38.2331 52.669 37.5683C53.8963 36.7245 55.1237 35.4205 56.351 33.5795C57.3482 32.1221 58.0385 30.3578 58.3453 28.2867C58.7289 25.9855 58.7289 23.3008 58.2686 20.4626C57.9618 18.6984 57.5783 17.3176 57.3482 16.704C56.4277 16.7807 54.2031 17.0875 51.6718 17.8546C49.6774 18.4682 47.9899 19.1586 46.4557 20.0791C44.6148 21.2297 43.1574 22.5337 42.1602 24.0679C41.0096 25.7554 40.3192 27.2129 40.0123 28.5169C39.7566 29.4374 39.6799 30.2811 39.7822 31.0482C39.9356 31.9687 40.3192 32.838 40.9328 33.6562C41.0351 33.7585 41.1374 33.8864 41.2397 34.0398C41.93 34.8069 42.8505 35.5739 44.1545 36.4944C45.3818 37.2615 46.3023 37.7984 47.2228 38.1053C47.4785 38.2075 47.7597 38.3098 48.0666 38.4121C48.5268 38.5144 48.9615 38.5655 49.3706 38.5655H49.524Z" fill="#DA8C74"/>
</svg>
