<svg width="100" height="100" viewBox="0 0 100 100" fill="none" xmlns="http://www.w3.org/2000/svg">
<path d="M88.0624 55.9195C87.99 55.8472 82.567 49.9903 80.3254 45.218C80.8316 39.0719 79.9639 32.7811 77.9393 27.358C76.0593 22.2242 73.0224 18.1026 69.19 15.3549C64.1285 11.7395 55.6685 9.49801 49.9562 8.91955L48.8716 8.77495C46.847 8.63033 44.7501 8.34109 42.5808 8.4857C27.6131 9.06416 16.6947 17.2349 13.3685 30.3226C9.60852 44.8565 18.5747 57.2211 24.4316 63.5119C24.6485 66.1149 25.5162 79.7088 24.6485 87.5903C24.5039 88.5544 24.3593 89.4221 24.2147 90.1934C24.0701 90.6995 24.287 91.5672 24.6485 91.8565H59.7177C59.7177 91.9047 59.7418 91.9288 59.79 91.9288C59.8382 91.9288 59.9106 91.9047 60.007 91.8565C60.6577 91.7842 61.0916 91.1334 61.0193 90.4826C61.0193 90.4103 60.6577 87.9518 62.6101 85.8549C64.9962 83.1795 69.8408 81.9503 76.7823 82.3119C76.8306 82.3119 76.8788 82.3119 76.927 82.3119C77.0716 82.3119 79.6023 82.0949 80.9762 79.8534C82.1331 78.118 82.1331 75.6595 81.0485 72.6226C81.0003 72.5262 80.928 72.4298 80.8316 72.3334C80.5424 71.8996 80.1808 71.1042 80.3254 70.6703C80.3977 70.4534 80.687 70.3088 80.9762 70.2365C81.3377 70.0919 81.627 69.8749 81.7716 69.5134C81.9162 69.1519 81.8439 68.7903 81.6993 68.5011L81.1208 67.2719C81.9162 67.1996 82.7116 66.9826 83.29 66.4042C83.7239 65.9703 83.9408 65.3195 83.8685 64.6688V62.0657C85.387 61.4149 88.3516 59.6795 88.3516 56.7149C88.3516 56.4257 88.2793 56.1365 88.0624 55.9195Z" fill="#7FA2B9"/>
<path fill-rule="evenodd" clip-rule="evenodd" d="M59.7903 93.3753C59.7421 93.3753 59.6698 93.3512 59.5734 93.303H24.6487C24.2872 93.303 23.9257 93.2307 23.7087 93.0138C22.8411 92.2907 22.6241 90.6999 22.7687 89.9045C22.9134 89.2296 23.058 88.4102 23.2026 87.4461C23.998 80.143 23.2749 67.706 23.058 64.163C17.0564 57.6553 8.09029 44.9291 11.9226 29.9614C15.4657 16.223 26.8903 7.69067 42.5811 7.0399C44.8226 6.89529 46.9195 7.18452 49.0164 7.40144L50.1011 7.47375C55.958 8.05221 64.7072 10.4384 70.058 14.1984C74.1072 17.0907 77.2887 21.5015 79.3133 26.8522C81.338 32.3476 82.2057 38.7107 81.8441 44.9291C84.0134 49.4122 89.0749 54.8353 89.0749 54.9076C89.581 55.4137 89.798 56.0645 89.798 56.7153C89.798 59.7522 87.6287 61.4876 85.821 62.9338C84.881 63.6568 84.0134 64.3799 83.4349 65.1753C82.0611 67.2722 82.2057 70.2368 82.4226 73.2014C82.6395 76.6722 82.9287 80.3599 80.2533 82.6014C78.0841 84.4091 75.4087 84.5537 72.8057 84.5537C72.5164 84.5537 72.2031 84.5537 71.8657 84.5537C68.8287 84.4814 65.7195 84.4814 63.6949 86.7953C62.2487 88.3861 62.3934 90.1937 62.4657 90.266C62.6826 91.7122 61.6703 93.0861 60.2241 93.303C60.0795 93.3512 59.9349 93.3753 59.7903 93.3753ZM25.5887 90.4107H59.5734C59.5011 89.6153 59.501 87.0845 61.5257 84.843C64.201 81.8784 67.7441 81.6614 70.8534 81.6614C71.1908 81.6614 71.5282 81.6614 71.8657 81.6614C72.2031 81.6614 72.5164 81.6614 72.8057 81.6614C75.4087 81.6614 77.1441 81.4445 78.3734 80.3599C79.9641 79.0584 79.7472 76.4553 79.5303 73.3461C79.3134 70.1645 79.0964 66.4768 81.0487 63.5122C81.8441 62.3553 82.9287 61.4876 84.0134 60.6199C85.821 59.2461 86.9057 58.3061 86.9057 56.7876C86.3272 56.1368 81.2657 50.4968 79.0241 45.8691C78.9277 45.6281 78.9036 45.3871 78.9518 45.1461C79.3857 39.2168 78.518 33.0707 76.5657 27.8645C74.8303 23.0199 71.938 19.1153 68.3226 16.5845C63.478 13.1138 55.3072 10.9445 49.8118 10.3661L48.7272 10.2215C46.7749 10.0045 44.7503 9.78759 42.6534 9.93221C28.3364 10.5107 17.9241 18.2476 14.7426 30.6845C11.1995 44.6399 19.9487 56.643 25.5164 62.5722C25.7334 62.7891 25.878 63.0784 25.878 63.4399C26.0949 66.1153 26.9626 79.7814 26.0226 87.7353C25.9503 88.8199 25.8057 89.6876 25.5887 90.4107Z" fill="#7FA2B9"/>
<path d="M26.601 51.3642C26.601 51.3642 28.5533 58.7396 35.1333 57.7996C35.5189 57.7514 35.9046 57.6791 36.2902 57.5827C36.2902 57.5827 37.2302 61.7042 42.1471 57.0042V60.6919C42.1471 60.6919 44.8225 62.0657 46.4856 60.6919C46.4856 60.6919 47.5702 51.7257 50.8241 49.4842C50.8241 49.4842 62.1764 54.3288 62.3933 42.1811C62.3933 42.1811 72.444 41.8196 74.2517 35.1673C74.6133 33.6488 74.4687 31.9134 74.2517 30.395C72.2994 18.6088 58.2717 12.535 47.7148 12.3904C44.7502 12.3181 41.8579 12.535 38.9656 13.1134C35.6394 13.8365 32.3856 14.9934 29.5656 16.9457C26.6733 19.0427 24.7933 20.995 23.0579 24.1765C21.5394 26.9965 20.5271 30.0334 20.021 33.1427C20.021 33.1427 16.9841 51.7257 26.601 51.3642Z" fill="#BCD1DE"/>
<path fill-rule="evenodd" clip-rule="evenodd" d="M44.6058 62.0656C43.1596 62.0656 41.9304 61.4148 41.8581 61.3425L41.4242 61.1979V58.5948C40.2191 59.5107 39.1345 59.9687 38.1704 59.9687C36.9411 59.9687 36.2181 59.1733 35.7842 58.4502C35.6396 58.4984 35.4709 58.5225 35.2781 58.5225C34.8442 58.5707 34.4345 58.5948 34.0488 58.5948C28.915 58.5948 26.6735 53.6779 26.095 52.0872C24.2632 51.9907 22.7447 51.2677 21.5396 49.9179C17.4181 45.001 19.2258 33.5041 19.2981 32.9979C19.8765 29.5272 20.9611 26.4902 22.4073 23.8872C24.215 20.6333 26.095 18.5364 29.2042 16.3672C31.8073 14.5595 35.0611 13.1856 38.8211 12.4625C41.6411 11.8841 44.6781 11.5949 47.715 11.6672C57.7658 11.8118 72.8781 17.741 74.975 30.2502C75.2642 32.3472 75.2642 34.0102 74.9027 35.3841C73.2396 41.4579 65.5027 42.6148 63.1165 42.8318C62.6827 50.0625 58.2719 51.2195 55.5242 51.2195C53.5719 51.2195 51.7642 50.641 50.9688 50.3518C48.7273 52.3041 47.4981 58.5225 47.2088 60.8364V61.1256L46.9196 61.2702C46.2929 61.8005 45.5216 62.0656 44.6058 62.0656ZM42.8704 60.2579C43.3042 60.4025 43.955 60.6195 44.6058 60.6195C45.0878 60.6195 45.4976 60.523 45.835 60.3302C46.0519 58.5948 47.2811 51.0025 50.4627 48.9056L50.7519 48.6887L51.1134 48.8333C51.1134 48.8333 53.2104 49.7733 55.5242 49.7733C59.5011 49.7733 61.5981 47.1702 61.6704 42.181V41.4579H62.3934C62.4658 41.4579 71.8657 41.0241 73.5288 35.0225C73.8181 33.8656 73.8181 32.4195 73.5288 30.5395C71.5765 18.7533 57.2596 13.2579 47.6427 13.1133C44.7504 13.041 41.8581 13.2579 39.1104 13.8364C35.5673 14.5595 32.4581 15.7887 29.9996 17.5241C27.1073 19.621 25.3719 21.501 23.7088 24.5379C22.335 26.9964 21.3227 29.961 20.7442 33.2872C20.6719 33.3595 18.9365 44.5671 22.6242 48.9779C23.6365 50.1348 24.9381 50.641 26.6011 50.641L27.1796 50.5687L27.3242 51.1471C27.3965 51.3641 28.9873 57.1487 34.0488 57.1487C34.3863 57.1487 34.7237 57.1246 35.0611 57.0764C35.3986 57.0282 35.736 56.9559 36.0735 56.8595L36.7965 56.7148L36.9411 57.4379C37.0135 57.5102 37.3027 58.5225 38.1704 58.5225C38.8211 58.5225 39.9058 58.161 41.6411 56.4979L42.8704 55.341V60.2579Z" fill="#7FA2B9"/>
</svg>
