<svg width="144" height="100" viewBox="0 0 144 100" fill="none" xmlns="http://www.w3.org/2000/svg">
<g clip-path="url(#clip0_1_13010)">
<path d="M71.1705 11.916C70.3576 14.8771 70.0093 17.8963 69.6609 20.9155C69.3125 23.9927 68.9642 27.128 68.6739 30.2633C67.9771 36.534 67.9191 42.9207 67.5126 49.9461C67.2223 56.2748 66.4675 62.6035 66.1772 69.3966C65.7708 77.8155 65.8289 88.4988 59.4421 90.8793C57.7584 91.4599 54.565 91.518 52.1845 91.7502C47.3073 92.1566 42.8947 93.3759 38.5981 94.363C36.2757 94.8855 33.8371 95.5242 31.3405 95.2339C26.9278 94.7113 23.6764 91.0535 23.27 86.9892C23.0958 85.7699 23.27 84.0861 23.5022 82.983C24.199 80.138 25.7666 77.8736 27.2181 75.8995C29.4245 72.9384 32.5017 70.3837 32.6178 65.042C32.6178 63.3002 32.3275 61.4422 31.9792 59.7004C31.6308 58.0166 31.1082 56.3909 31.1082 54.7071C31.1663 48.0882 36.4499 45.6496 38.482 40.8305C40.6303 35.7792 38.0175 28.3473 38.1917 22.7735C38.5981 12.3805 44.3462 6.63242 54.1586 6.05181C58.0487 5.81956 61.5323 6.40018 64.2612 7.44528C66.9901 8.43232 69.4867 9.88385 71.1705 11.916Z" fill="#484343"/>
<path d="M121.369 99.7014C128.5 99.7014 132.693 91.99 128.239 86.4212C124.611 81.8858 120.3 77.1482 115.983 73.9165C106.868 67.0653 97.6942 63.1171 81.8434 63.001C79.521 69.0393 75.8631 79.0839 67.2701 76.4131C62.3929 74.9616 60.7092 68.3426 59.4318 63.5235C51.7097 63.93 45.2068 65.0912 39.5749 66.5427C27.0485 69.7926 19.2444 78.9941 14.6549 86.8866C11.3356 92.5947 16.4374 99.7014 23.0403 99.7014H121.369Z" fill="#FDAD95"/>
<path d="M76.2801 43.8504C76.2801 43.8504 79.4154 40.4828 80.5185 34.6186C79.7057 28.2319 80.2863 17.0841 75.5253 14.0649C68.4999 9.65228 57.6424 11.5102 52.5911 16.2713C48.2945 20.3355 44.1722 29.6254 43.5916 38.9152C42.9529 48.3791 46.4366 56.3335 57.8166 53.3143C58.5714 57.0883 58.8036 62.2558 59.2101 63.5912C65.6549 87.4544 71.9835 74.6809 79.8218 61.9074C79.7637 62.3138 76.222 46.2309 76.2801 43.8504Z" fill="#EBB2A1"/>
<path d="M57.8164 53.3149C61.3001 52.5601 65.3644 48.1475 65.3644 48.1475C65.3644 48.1475 65.1902 55.289 58.7454 59.2372L57.8164 53.3149Z" fill="#DB8E81"/>
<path d="M63.5065 33.2836C60.3712 29.0451 56.7134 31.6579 56.7134 31.6579C56.7134 31.6579 57.4682 33.1675 59.7906 33.8061C61.5325 34.3287 63.5065 33.2836 63.5065 33.2836Z" fill="white"/>
<path d="M56.7134 31.6577C56.7134 31.6577 58.5133 30.3804 60.6615 31.0771C60.7196 31.2513 60.8357 31.5996 60.8357 31.7738C60.7196 32.7028 60.0229 33.3995 59.0939 33.5737C57.294 32.8189 56.7134 31.6577 56.7134 31.6577Z" fill="#484343"/>
<path d="M51.1393 31.1355C48.2943 27.1873 44.8687 29.5678 44.8687 29.5678C44.8687 29.5678 45.5654 30.9613 47.7137 31.6C49.3394 32.1225 51.1393 31.1355 51.1393 31.1355Z" fill="white"/>
<path d="M44.8687 29.5678C44.8687 29.5678 46.4944 28.4066 48.5265 29.0453C48.5846 29.2195 48.6426 29.5678 48.6426 29.742C48.5846 30.5549 47.9459 31.1936 47.075 31.3677C45.3912 30.7291 44.8687 29.5678 44.8687 29.5678Z" fill="#484343"/>
<path d="M58.397 37.1744C57.41 38.4518 57.6422 40.3678 58.9196 41.3548C60.1969 42.3999 62.1129 42.1677 63.1 40.8903C64.1451 39.613 63.9128 37.697 62.6355 36.7099C61.3581 35.6648 59.4421 35.8971 58.397 37.1744Z" fill="#DB8E81"/>
<path d="M46.3202 37.6384C45.6815 38.4513 44.5783 38.8577 43.5913 38.7416C43.5913 38.6255 43.8816 34.7934 44.4622 32.8193C44.9848 32.8774 45.3912 33.1096 45.8557 33.3999C47.133 34.4451 47.3653 36.3611 46.3202 37.6384Z" fill="#DB8E81"/>
<path d="M65.1901 30.5545L64.2611 31.2513C61.9967 28.5224 58.1647 28.7546 56.8293 29.2772L56.4229 28.174C58.5711 27.3612 62.6935 27.5934 65.1901 30.5545Z" fill="#484343"/>
<path d="M52.7648 28.5225L51.8358 29.2773C49.7456 26.7807 46.2038 26.9549 44.9846 27.4774L44.5781 26.3743C46.5522 25.6195 50.3843 25.7936 52.7648 28.5225Z" fill="#484343"/>
<path d="M52.7652 31.7163C52.0685 31.426 49.1073 37.4063 49.1654 38.103C49.2235 39.032 52.0685 39.961 52.3588 39.6707C53.1716 38.7998 53.7522 32.0647 52.7652 31.7163Z" fill="#DB8E81"/>
<path d="M46.9009 43.9095C49.9781 46.2319 53.8102 44.8965 56.0165 42.6321L55.0875 41.7031C53.2296 43.5611 50.1523 44.6642 47.7137 42.8643L46.9009 43.9095Z" fill="#DB8E81"/>
<path d="M61.01 7.67773C60.0229 7.67773 59.0939 7.73579 58.3972 7.73579C50.3847 8.08416 45.1592 10.755 42.7787 16.445C41.153 20.3931 41.2691 27.5927 41.5594 33.2827C41.6175 34.6181 41.8497 38.1599 42.8948 38.0438C43.7658 37.9857 43.9399 35.4891 44.0561 34.9085C44.7528 30.7861 44.9851 27.0121 46.7849 24.98C48.8752 22.5995 52.8814 22.2511 56.6554 21.6124C59.152 21.1479 61.4744 20.4512 63.3905 19.348C65.4226 18.1288 66.8741 16.6192 68.2096 15.2257C69.1966 14.1806 70.1836 13.0774 70.9384 11.742C67.6289 10.4647 64.2614 9.12927 61.01 7.67773Z" fill="#484343"/>
<path d="M67.9773 9.65255C71.403 9.4203 76.0479 9.65255 78.9509 10.8718C83.9442 13.0201 86.9634 17.8972 88.0665 23.7614C88.7052 27.0129 88.7052 30.5546 88.473 34.0963C88.1246 38.3929 87.9504 43.212 89.3439 46.5795C91.4921 51.805 96.3112 55.7532 99.6788 60.5142C101.479 63.0108 102.698 65.3333 104.033 68.4105C105.137 70.9072 106.878 74.9715 105.775 77.9906C104.091 82.6936 97.3563 81.5904 93.6985 83.8548C91.1438 85.4225 90.2729 88.2675 89.0536 91.6931C86.8472 98.0798 84.2926 105.221 78.4864 107.776C73.0867 110.157 67.7451 106.905 66.3516 102.783C65.1323 99.0088 67.0484 95.0607 66.6419 90.9383C66.0613 85.3644 61.1261 82.5775 61.5325 76.4811C61.6487 73.9264 62.8679 71.662 64.0292 69.8621C65.1904 68.0622 66.8742 66.5526 67.5128 64.2882C68.2096 61.6174 67.3387 58.9465 67.3967 55.8112C67.3967 51.747 69.4289 48.0891 71.1127 45.4183C72.6222 42.9797 75.8737 38.9735 75.1189 35.4898C74.4221 32.2964 71.9836 30.3224 69.7192 28.2321C67.5128 26.1419 65.2485 23.9937 63.855 21.497C63.2744 20.4519 62.3454 18.3617 62.2873 16.5038C62.1712 14.0652 63.1002 11.1041 64.6098 10.117C65.4226 9.65255 66.7 9.71061 67.9773 9.65255Z" fill="#484343"/>
<path d="M80.2864 39.2635C78.893 41.5279 74.3642 44.3149 72.332 43.0956C70.358 41.8182 71.5772 37.0572 73.0288 34.7347C74.4223 32.4704 77.2092 31.5994 79.2413 32.8187C81.2154 34.0961 81.738 36.9411 80.2864 39.2635Z" fill="#EBB2A1"/>
</g>
<defs>
<clipPath id="clip0_1_13010">
<rect width="144" height="100" fill="white"/>
</clipPath>
</defs>
</svg>
