<svg width="100" height="100" viewBox="0 0 100 100" fill="none" xmlns="http://www.w3.org/2000/svg">
<path d="M89.9867 40.015C89.0251 34.1459 86.704 28.5089 82.7913 23.6345C70.5225 8.21566 44.1281 3.77238 28.3445 16.1738C11.4335 29.5036 -0.57001 60.4408 19.4248 74.7323C21.6796 76.3571 24.2328 77.7497 27.0181 78.9103C26.2886 82.2593 24.6638 87.8963 21.4474 90.0517C21.4474 90.0517 33.4509 90.9469 37.9605 82.1267C55.7668 85.4426 76.889 80.9993 85.1124 66.3099C89.622 58.2192 91.3794 48.8684 89.9867 40.015Z" fill="#B7C2A5"/>
<path d="M41.409 48.3708C41.409 50.924 39.32 53.013 36.7667 53.013C34.1804 53.013 32.1245 50.924 32.1245 48.3708C32.1245 45.8175 34.1804 43.7285 36.7667 43.7285C39.32 43.7285 41.409 45.8175 41.409 48.3708Z" fill="#FBEFE1"/>
<path d="M56.0652 47.7409C56.0652 50.2941 54.0094 52.3831 51.423 52.3831C48.8698 52.3831 46.7808 50.2941 46.7808 47.7409C46.7808 45.1545 48.8698 43.0986 51.423 43.0986C54.0094 43.0986 56.0652 45.1545 56.0652 47.7409Z" fill="#FBEFE1"/>
<path d="M70.7547 47.0778C70.7547 49.631 68.6657 51.72 66.1125 51.72C63.5592 51.72 61.4702 49.631 61.4702 47.0778C61.4702 44.5246 63.5592 42.4355 66.1125 42.4355C68.6657 42.4355 70.7547 44.5246 70.7547 47.0778Z" fill="#FBEFE1"/>
</svg>
